<svg width="160" height="116" viewBox="0 0 160 116" fill="none" xmlns="http://www.w3.org/2000/svg">
<path d="M80.7594 62.8487V58.3097H65.3008V92.6313H70.9613V77.4557H79.3322V73.003H70.9613V62.8487H80.7594Z" fill="#27BDBE"/>
<path d="M97.2588 58.3097V88.2239H89.6381V58.3097H83.9775V89.4955C83.9775 91.5869 85.1222 92.6313 87.4128 92.6313H99.4361C101.759 92.6313 102.921 91.5869 102.921 89.4955V58.3097H97.2588Z" fill="#27BDBE"/>
<path d="M120.606 77.0823C122.477 77.0823 123.703 76.9733 124.283 76.7541C125.363 76.3302 125.904 75.3935 125.904 73.9464V61.4681C125.904 59.3621 124.766 58.3097 122.493 58.3097H107.469V92.6313H113.131V62.7172H120.266V73.5956H114.703V76.6877L120.945 92.6313H126.848L120.606 77.0823Z" fill="#27BDBE"/>
<path d="M130.404 58.3097V92.6313H136.065V58.3097H130.404Z" fill="#27BDBE"/>
<path d="M154.379 58.3097V76.9946C154.379 77.5939 154.5 78.4203 154.741 79.4727L145.67 58.3097H140.71V92.6313H146.225V73.508C146.225 72.9087 146.105 72.0822 145.863 71.0298L154.935 92.6313H159.894V58.3097H154.379Z" fill="#27BDBE"/>
<path d="M89.4959 45.4326V34.6166H88.4512V46.3548H92.2116V45.4326H89.4959Z" fill="#27BDBE"/>
<path d="M96.8137 39.0573H94.4072C93.8449 39.0573 93.565 39.3389 93.565 39.905V41.1341H94.5351V39.8891H96.6858V42.0868H94.3312C93.7649 42.0868 93.4824 42.3672 93.4824 42.9266V45.5894C93.4824 46.1289 93.7556 46.3999 94.3019 46.3999C94.5977 46.3999 94.9908 46.3694 95.4825 46.3096C95.8783 46.2591 96.2741 46.2073 96.6711 46.1515V46.3548H97.6559V39.905C97.6559 39.3389 97.3747 39.0573 96.8137 39.0573ZM96.6858 45.4472L94.4525 45.4924V42.8668H96.6858V45.4472Z" fill="#27BDBE"/>
<path d="M102.5 39.0573V45.402L100.282 45.4618V39.0573H99.2969V45.5894C99.2969 46.1289 99.5674 46.3999 100.108 46.3999C100.424 46.3999 100.823 46.3694 101.305 46.3096C101.701 46.2591 102.099 46.2073 102.5 46.1515V46.3548H103.486V39.0573H102.5Z" fill="#27BDBE"/>
<path d="M108.487 39.0121C108.177 39.0121 107.781 39.0426 107.299 39.1024C106.903 39.1569 106.51 39.2101 106.118 39.2592V39.0573H105.117V46.3548H106.118V40.01L108.322 39.9489V46.3548H109.323V39.8293C109.323 39.2845 109.044 39.0121 108.487 39.0121Z" fill="#27BDBE"/>
<path d="M114.105 34.6166V39.0573H112.458C112.011 39.0573 111.641 39.2061 111.345 39.5037C111.049 39.8014 110.901 40.1747 110.901 40.6239V44.8918C110.901 45.3223 111.032 45.6811 111.293 45.9681C111.553 46.2564 111.897 46.3999 112.323 46.3999C112.438 46.3999 113.032 46.3176 114.105 46.1515V46.3548H115.099V34.6166H114.105ZM114.105 45.4472C113.313 45.4964 112.852 45.5216 112.722 45.5216C112.17 45.5216 111.894 45.2426 111.894 44.6819V40.782C111.894 40.2173 112.17 39.9342 112.722 39.9342H114.105V45.4472Z" fill="#27BDBE"/>
<path d="M119.747 39.0121C119.48 39.0121 119.147 39.0426 118.746 39.1024C118.41 39.1569 118.077 39.2101 117.745 39.2592V39.0573H116.746V46.3548H117.745V40.01L119.588 39.9489V41.457H120.574V39.8293C120.574 39.2845 120.299 39.0121 119.747 39.0121Z" fill="#27BDBE"/>
<path d="M124.966 39.0573L123.703 44.8014L122.454 39.0573H121.423L123.228 46.295L122.492 49.1225H123.476L124.206 46.295L125.967 39.0573H124.966Z" fill="#27BDBE"/>
<path d="M132.405 39.7774L131.344 39.0719V35.5401H133.917V37.9092H134.962V35.4497C134.962 35.2052 134.883 35.0046 134.725 34.8491C134.567 34.695 134.365 34.6166 134.12 34.6166H131.141C130.9 34.6166 130.703 34.695 130.547 34.8491C130.391 35.0046 130.314 35.2052 130.314 35.4497V38.9363C130.314 39.242 130.452 39.5024 130.727 39.7163C130.999 39.8824 131.272 40.0472 131.548 40.212L130.667 40.782C130.411 40.9468 130.283 41.1966 130.283 41.5314V45.5216C130.283 45.7675 130.36 45.9668 130.514 46.1222C130.666 46.2764 130.866 46.3548 131.111 46.3548H134.916V40.685H135.783V39.7774H132.405ZM133.886 45.4326H131.315V41.3746L132.39 40.685H133.886V45.4326Z" fill="#27BDBE"/>
<path d="M144.763 38.179V35.4497C144.763 35.2052 144.683 35.0046 144.521 34.8491C144.362 34.695 144.158 34.6166 143.913 34.6166H140.881C140.636 34.6166 140.435 34.695 140.28 34.8491C140.124 35.0046 140.047 35.2052 140.047 35.4497V45.5216C140.047 45.7675 140.124 45.9668 140.28 46.1222C140.435 46.2764 140.636 46.3548 140.881 46.3548H143.913C144.158 46.3548 144.362 46.2764 144.521 46.1222C144.683 45.9668 144.763 45.7675 144.763 45.5216V42.5439H143.71V45.4326H141.092V35.5401H143.71V38.179H144.763Z" fill="#27BDBE"/>
<path d="M149.763 39.0573H147.356C146.795 39.0573 146.514 39.3389 146.514 39.905V41.1341H147.484V39.8891H149.635V42.0868H147.282C146.715 42.0868 146.432 42.3672 146.432 42.9266V45.5894C146.432 46.1289 146.705 46.3999 147.251 46.3999C147.547 46.3999 147.941 46.3694 148.432 46.3096C148.829 46.2591 149.225 46.2073 149.62 46.1515V46.3548H150.606V39.905C150.606 39.3389 150.325 39.0573 149.763 39.0573ZM149.635 45.4472L147.402 45.4924V42.8668H149.635V45.4472Z" fill="#27BDBE"/>
<path d="M155.013 35.4949V34.6166H153.457C152.895 34.6166 152.615 34.8996 152.615 35.4643V39.0573H151.765V39.9342H152.615V46.3548H153.6V39.9342H154.848V39.0573H153.6V35.4949H155.013Z" fill="#27BDBE"/>
<path d="M158.136 36.6495L157.007 38.3676V38.4115H157.707L159.55 36.6788V36.6495H158.136ZM159.662 42.8814L160 42.5293V39.905C160 39.3389 159.72 39.0572 159.158 39.0572H156.751C156.19 39.0572 155.909 39.3389 155.909 39.905V45.507C155.909 46.0717 156.19 46.3547 156.751 46.3547H159.158C159.72 46.3547 160 46.0717 160 45.507V44.1862H159.03V45.5216H156.879V42.8814H159.662ZM156.879 39.889H159.03V42.0868H156.879V39.889Z" fill="#27BDBE"/>
<path d="M28.9998 44.5012C22.7103 44.5012 17.5947 39.3988 17.5947 33.1284C17.5947 26.858 22.7103 21.7556 28.9998 21.7556C35.2893 21.7556 40.4035 26.858 40.4035 33.1284C40.4035 39.3988 35.288 44.5012 28.9998 44.5012Z" fill="#A4DAD2"/>
<path d="M57.9981 28.9176C57.9981 35.4777 55.8074 41.5275 52.1163 46.3787H36.3126C40.9937 43.801 44.1705 38.8274 44.1705 33.1284C44.1705 24.7865 37.3653 17.9993 28.9997 17.9993C20.6341 17.9993 13.8276 24.7865 13.8276 33.1284C13.8276 38.8274 17.0057 43.801 21.6868 46.3787H5.88176C2.19067 41.5275 0 35.4777 0 28.9176C0 12.946 12.9828 0 28.9997 0C45.0166 0 57.9981 12.946 57.9981 28.9176Z" fill="#A4DAD2"/>
<path d="M17.4208 57.8406H5.75586V116H17.4208V57.8406Z" fill="#A4DAD2"/>
<path d="M34.8631 57.8406H23.1982V92.7362H34.8631V57.8406Z" fill="#A4DAD2"/>
<path d="M52.4159 57.8406H40.751V69.4725H52.4159V57.8406Z" fill="#A4DAD2"/>
<path d="M40.4035 33.1284C40.4035 39.3988 35.288 44.5012 28.9998 44.5012C22.7116 44.5012 17.5947 39.3988 17.5947 33.1284C17.5947 26.858 22.7103 21.7556 28.9998 21.7556C35.2893 21.7556 40.4035 26.858 40.4035 33.1284Z" fill="#27BDBE"/>
</svg>
