<svg width="488" height="300" viewBox="0 0 488 300" fill="none" xmlns="http://www.w3.org/2000/svg">
<g clip-path="url(#clip0_193_1618)">
<path d="M214.129 149.696V280.694H180.866V149.696H156.159V286.265C156.159 295.422 161.152 300 171.158 300H223.645C233.78 300 238.858 295.422 238.858 286.265V149.696H214.14H214.129Z" fill="#27BDBE"/>
<path d="M316.041 231.902C324.213 231.902 329.557 231.422 332.086 230.461C336.801 228.604 339.169 224.506 339.169 218.167V163.527C339.169 154.306 334.198 149.696 324.277 149.696H258.689V300H283.407V169.001H314.558V216.641H290.278V230.184L317.524 300H343.287L316.041 231.913V231.902Z" fill="#27BDBE"/>
<path d="M358.81 149.696V300H383.517V149.696H358.81Z" fill="#27BDBE"/>
<path d="M463.463 149.696V231.518C463.463 234.143 463.997 237.761 465.042 242.371L425.442 149.696H403.797V300H427.875V216.257C427.875 213.632 427.352 210.014 426.296 205.404L465.896 300H487.541V149.696H463.463Z" fill="#27BDBE"/>
<path d="M218.525 115.908V74.437H214.535V119.451H228.905V115.919H218.525V115.908Z" fill="#27BDBE"/>
<path d="M246.497 91.4695H237.301C235.156 91.4695 234.079 92.5474 234.079 94.7244V99.4415H237.791V94.6711H246.016V103.102H237.013C234.847 103.102 233.77 104.18 233.77 106.325V116.538C233.77 118.608 234.815 119.644 236.906 119.644C238.037 119.644 239.541 119.526 241.419 119.302C242.933 119.11 244.448 118.907 245.963 118.694V119.473H249.729V94.7458C249.729 92.5794 248.651 91.4908 246.507 91.4908L246.497 91.4695ZM246.006 115.962L237.471 116.132V106.069H246.006V115.962Z" fill="#27BDBE"/>
<path d="M268.227 91.4695V115.802L259.746 116.026V91.4695H255.98V116.517C255.98 118.587 257.015 119.622 259.085 119.622C260.29 119.622 261.816 119.505 263.661 119.281C265.176 119.089 266.702 118.886 268.227 118.672V119.451H271.993V91.4695H268.227Z" fill="#27BDBE"/>
<path d="M291.111 91.2882C289.927 91.2882 288.412 91.4056 286.566 91.6297C285.051 91.8431 283.547 92.0459 282.053 92.2273V91.4483H278.224V119.43H282.053V95.0981L290.481 94.8633V119.43H294.311V94.4044C294.311 92.3127 293.244 91.2668 291.121 91.2668L291.111 91.2882Z" fill="#27BDBE"/>
<path d="M312.586 74.4372V91.4697H306.292C304.585 91.4697 303.166 92.0353 302.035 93.1772C300.904 94.3191 300.339 95.7491 300.339 97.4673V113.827C300.339 115.482 300.84 116.858 301.832 117.958C302.825 119.067 304.137 119.612 305.769 119.612C306.206 119.612 308.479 119.292 312.575 118.662V119.441H316.373V74.4265H312.575L312.586 74.4372ZM312.586 115.962C309.556 116.154 307.796 116.25 307.294 116.25C305.182 116.25 304.126 115.183 304.126 113.027V98.0756C304.126 95.9092 305.182 94.8207 307.294 94.8207H312.586V115.962Z" fill="#27BDBE"/>
<path d="M334.146 91.2882C333.132 91.2882 331.852 91.4056 330.316 91.6297C329.036 91.8431 327.756 92.0459 326.486 92.2273V91.4483H322.667V119.43H326.486V95.0981L333.527 94.8633V100.648H337.293V94.4044C337.293 92.3127 336.237 91.2668 334.135 91.2668L334.146 91.2882Z" fill="#27BDBE"/>
<path d="M354.105 91.4695L349.272 113.496L344.504 91.4695H340.557L347.459 119.227L344.642 130.07H348.408L351.203 119.227L357.935 91.4695H354.105Z" fill="#27BDBE"/>
<path d="M382.536 94.223L378.482 91.5123V77.9695H388.318V87.0514H392.308V77.6174C392.308 76.6782 392.01 75.9098 391.401 75.3122C390.804 74.7253 390.025 74.4158 389.086 74.4158H377.704C376.786 74.4158 376.029 74.7146 375.431 75.3122C374.834 75.9098 374.535 76.6782 374.535 77.6174V90.9894C374.535 92.1633 375.069 93.1558 376.114 93.9775C377.149 94.6178 378.194 95.2475 379.251 95.8771L375.879 98.0649C374.898 98.6945 374.407 99.655 374.407 100.936V116.239C374.407 117.178 374.706 117.947 375.293 118.544C375.869 119.131 376.637 119.441 377.576 119.441H392.127V97.702H395.434V94.223H382.526H382.536ZM388.19 115.908H378.365V100.349L382.472 97.702H388.19V115.908Z" fill="#27BDBE"/>
<path d="M429.763 88.0973V77.6281C429.763 76.689 429.454 75.9206 428.846 75.323C428.238 74.736 427.459 74.4265 426.52 74.4265H414.935C413.996 74.4265 413.228 74.7253 412.641 75.323C412.044 75.9206 411.745 76.689 411.745 77.6281V116.25C411.745 117.189 412.044 117.958 412.641 118.555C413.228 119.142 413.996 119.452 414.935 119.452H426.52C427.459 119.452 428.238 119.153 428.846 118.555C429.465 117.958 429.763 117.2 429.763 116.25V104.831H425.742V115.909H415.735V77.9803H425.742V88.0973H429.763Z" fill="#27BDBE"/>
<path d="M448.88 91.4695H439.684C437.54 91.4695 436.463 92.5474 436.463 94.7244V99.4415H440.175V94.6711H448.4V103.102H439.407C437.241 103.102 436.153 104.18 436.153 106.325V116.538C436.153 118.608 437.199 119.644 439.29 119.644C440.421 119.644 441.925 119.526 443.802 119.302C445.317 119.11 446.832 118.907 448.347 118.694V119.473H452.113V94.7458C452.113 92.5794 451.035 91.4908 448.891 91.4908L448.88 91.4695ZM448.39 115.962L439.855 116.132V106.069H448.39V115.962Z" fill="#27BDBE"/>
<path d="M468.947 77.8094V74.437H462.994C460.85 74.437 459.772 75.5256 459.772 77.692V91.4695H456.519V94.8312H459.772V119.451H463.538V94.8312H468.307V91.4695H463.538V77.8094H468.947Z" fill="#27BDBE"/>
<path d="M480.885 82.2277L476.575 88.8123V88.9831H479.253L486.294 82.3344V82.217H480.885V82.2277ZM486.71 106.133L488.001 104.778V94.7139C488.001 92.5475 486.934 91.459 484.779 91.459H475.583C473.439 91.459 472.361 92.5368 472.361 94.7139V116.197C472.361 118.363 473.439 119.452 475.583 119.452H484.779C486.923 119.452 488.001 118.363 488.001 116.197V111.127H484.288V116.25H476.063V106.122H486.699L486.71 106.133ZM476.074 94.6499H484.299V103.081H476.074V94.6499Z" fill="#27BDBE"/>
<path d="M74.7294 115.044C58.5246 115.044 45.3389 101.853 45.3389 85.6425C45.3389 69.4318 58.5246 56.2412 74.7294 56.2412C90.9342 56.2412 104.12 69.4318 104.12 85.6425C104.12 101.853 90.9342 115.044 74.7294 115.044Z" fill="#A4DAD2"/>
<path d="M149.46 74.7572C149.46 91.715 143.816 107.36 134.3 119.9H93.5803C105.646 113.24 113.828 100.381 113.828 85.6426C113.828 64.0746 96.29 46.5298 74.7298 46.5298C53.1696 46.5298 35.6313 64.0746 35.6313 85.6426C35.6313 100.381 43.8244 113.23 55.8793 119.9H15.1593C5.64341 107.36 0 91.715 0 74.7572C0 33.4673 33.4551 0 74.7298 0C116.005 0 149.46 33.4673 149.46 74.7572Z" fill="#A4DAD2"/>
<path d="M44.8907 149.525H14.8281V299.883H44.8907V149.525Z" fill="#A4DAD2"/>
<path d="M89.8458 149.525H59.7832V239.735H89.8458V149.525Z" fill="#A4DAD2"/>
<path d="M135.067 149.525H105.005V179.599H135.067V149.525Z" fill="#A4DAD2"/>
<path d="M104.12 85.6425C104.12 101.853 90.9342 115.044 74.7294 115.044C58.5246 115.044 45.3389 101.853 45.3389 85.6425C45.3389 69.4318 58.5246 56.2412 74.7294 56.2412C90.9342 56.2412 104.12 69.4318 104.12 85.6425Z" fill="#27BDBE"/>
</g>
<defs>
<clipPath id="clip0_193_1618">
<rect width="488" height="300" fill="white"/>
</clipPath>
</defs>
</svg>
