<svg width="160" height="99" viewBox="0 0 160 99" fill="none" xmlns="http://www.w3.org/2000/svg">
<path d="M70.2058 49.1311V92.1255H59.2999V49.1311H51.1992V93.9538C51.1992 96.9591 52.8362 98.4617 56.117 98.4617H73.3258C76.6486 98.4617 78.3136 96.9591 78.3136 93.9538V49.1311H70.2093H70.2058Z" fill="white"/>
<path d="M103.619 76.1116C106.298 76.1116 108.051 75.954 108.88 75.6388C110.426 75.0293 111.202 73.6843 111.202 71.6038V53.6705C111.202 50.6442 109.572 49.1311 106.319 49.1311H84.8154V98.4617H92.9197V55.4673H103.133V71.1029H95.1722V75.5477L104.105 98.4617H112.552L103.619 76.1151V76.1116Z" fill="white"/>
<path d="M117.642 49.1311V98.4617H125.742V49.1311H117.642Z" fill="white"/>
<path d="M151.954 49.1311V75.9855C151.954 76.8472 152.129 78.0345 152.472 79.5477L139.488 49.1311H132.392V98.4617H140.286V70.9768C140.286 70.1152 140.115 68.9278 139.768 67.4147L152.752 98.4617H159.849V49.1311H151.954Z" fill="white"/>
<path d="M71.648 38.0415V24.4304H70.3398V39.2044H75.0513V38.045H71.648V38.0415Z" fill="white"/>
<path d="M80.8193 30.0208H77.8042C77.1012 30.0208 76.7479 30.3745 76.7479 31.089V32.6372H77.9651V31.0715H80.6619V33.8386H77.7098C76.9998 33.8386 76.6465 34.1923 76.6465 34.8964V38.2484C76.6465 38.9279 76.9893 39.2676 77.6748 39.2676C78.0456 39.2676 78.5388 39.2291 79.1544 39.1555C79.651 39.0925 80.1477 39.0259 80.6444 38.9559V39.2116H81.8791V31.096C81.8791 30.385 81.5258 30.0278 80.8228 30.0278L80.8193 30.0208ZM80.6584 38.0592L77.8602 38.1153V34.8123H80.6584V38.0592Z" fill="white"/>
<path d="M87.9441 30.0208V38.0067L85.1634 38.0802V30.0208H83.9287V38.2413C83.9287 38.9208 84.268 39.2606 84.9465 39.2606C85.3418 39.2606 85.842 39.2221 86.4471 39.1485C86.9437 39.0855 87.4439 39.0189 87.9441 38.9489V39.2046H89.1788V30.0208H87.9441Z" fill="white"/>
<path d="M95.446 29.9614C95.0577 29.9614 94.561 29.9999 93.9559 30.0734C93.4592 30.1435 92.9661 30.21 92.4764 30.2696V30.0139H91.2207V39.1977H92.4764V31.2118L95.2396 31.1347V39.1977H96.4953V30.9841C96.4953 30.2976 96.1455 29.9543 95.4495 29.9543L95.446 29.9614Z" fill="white"/>
<path d="M102.487 24.4307V30.0209H100.423C99.8638 30.0209 99.3986 30.2065 99.0278 30.5813C98.6571 30.9561 98.4717 31.4254 98.4717 31.9894V37.3588C98.4717 37.9017 98.6361 38.3536 98.9614 38.7143C99.2866 39.0786 99.7169 39.2572 100.252 39.2572C100.395 39.2572 101.14 39.1522 102.484 38.9455V39.2012H103.729V24.4272H102.484L102.487 24.4307ZM102.487 38.0594C101.494 38.1224 100.917 38.1539 100.752 38.1539C100.06 38.1539 99.7134 37.8037 99.7134 37.0961V32.189C99.7134 31.478 100.06 31.1207 100.752 31.1207H102.487V38.0594Z" fill="white"/>
<path d="M109.557 29.9614C109.224 29.9614 108.805 29.9999 108.301 30.0734C107.881 30.1435 107.461 30.21 107.045 30.2696V30.0139H105.793V39.1977H107.045V31.2118L109.354 31.1347V33.0331H110.588V30.9841C110.588 30.2976 110.242 29.9543 109.553 29.9543L109.557 29.9614Z" fill="white"/>
<path d="M116.1 30.0208L114.516 37.2501L112.952 30.0208H111.658L113.921 39.131L112.998 42.6896H114.233L115.149 39.131L117.356 30.0208H116.1Z" fill="white"/>
<path d="M125.422 30.9244L124.093 30.0347V25.5899H127.318V28.5707H128.626V25.4744C128.626 25.1661 128.528 24.9139 128.329 24.7178C128.133 24.5252 127.878 24.4236 127.57 24.4236H123.838C123.537 24.4236 123.288 24.5217 123.093 24.7178C122.897 24.9139 122.799 25.1661 122.799 25.4744V29.8631C122.799 30.2484 122.974 30.5741 123.316 30.8438C123.656 31.054 123.999 31.2606 124.345 31.4673L123.24 32.1853C122.918 32.392 122.757 32.7072 122.757 33.1275V38.1503C122.757 38.4585 122.855 38.7107 123.047 38.9068C123.236 39.0995 123.488 39.201 123.796 39.201H128.567V32.0662H129.651V30.9244H125.419H125.422ZM127.276 38.0417H124.054V32.9349L125.401 32.0662H127.276V38.0417Z" fill="white"/>
<path d="M140.906 28.9141V25.478C140.906 25.1698 140.804 24.9176 140.605 24.7215C140.406 24.5288 140.15 24.4272 139.842 24.4272H136.044C135.736 24.4272 135.484 24.5253 135.292 24.7215C135.096 24.9176 134.998 25.1698 134.998 25.478V38.1539C134.998 38.4622 135.096 38.7143 135.292 38.9105C135.484 39.1031 135.736 39.2047 136.044 39.2047H139.842C140.15 39.2047 140.406 39.1066 140.605 38.9105C140.808 38.7143 140.906 38.4657 140.906 38.1539V34.4061H139.587V38.0418H136.306V25.5936H139.587V28.9141H140.906Z" fill="white"/>
<path d="M147.174 30.0208H144.159C143.456 30.0208 143.102 30.3745 143.102 31.089V32.6372H144.32V31.0715H147.016V33.8386H144.068C143.358 33.8386 143.001 34.1923 143.001 34.8964V38.2484C143.001 38.9279 143.344 39.2676 144.029 39.2676C144.4 39.2676 144.893 39.2291 145.509 39.1555C146.006 39.0925 146.502 39.0259 146.999 38.9559V39.2116H148.234V31.096C148.234 30.385 147.88 30.0278 147.177 30.0278L147.174 30.0208ZM147.013 38.0592L144.215 38.1153V34.8123H147.013V38.0592Z" fill="white"/>
<path d="M153.754 25.5375V24.4307H151.802C151.099 24.4307 150.746 24.7879 150.746 25.499V30.0208H149.679V31.1241H150.746V39.2046H151.98V31.1241H153.544V30.0208H151.98V25.5375H153.754Z" fill="white"/>
<path d="M157.668 26.9876L156.255 29.1487V29.2048H157.133L159.441 27.0227V26.9841H157.668V26.9876ZM159.577 34.8334L160.001 34.3886V31.0857C160.001 30.3746 159.651 30.0174 158.944 30.0174H155.929C155.226 30.0174 154.873 30.3711 154.873 31.0857V38.1364C154.873 38.8474 155.226 39.2047 155.929 39.2047H158.944C159.647 39.2047 160.001 38.8474 160.001 38.1364V36.4727H158.783V38.1539H156.087V34.8299H159.574L159.577 34.8334ZM156.09 31.0647H158.787V33.8317H156.09V31.0647Z" fill="white"/>
<path d="M24.5015 37.758C19.1884 37.758 14.8652 33.4288 14.8652 28.1084C14.8652 22.7879 19.1884 18.4587 24.5015 18.4587C29.8145 18.4587 34.1377 22.7879 34.1377 28.1084C34.1377 33.4288 29.8145 37.758 24.5015 37.758Z" fill="white"/>
<path d="M49.0031 24.5357C49.0031 30.1013 47.1528 35.2361 44.0328 39.3517H30.682C34.6379 37.166 37.3207 32.9454 37.3207 28.1083C37.3207 21.0296 31.5704 15.2713 24.5015 15.2713C17.4326 15.2713 11.6824 21.0296 11.6824 28.1083C11.6824 32.9454 14.3686 37.1625 18.3211 39.3517H4.97026C1.8503 35.2361 0 30.1013 0 24.5357C0 10.9841 10.9689 0 24.5015 0C38.0342 0 49.0031 10.9841 49.0031 24.5357Z" fill="white"/>
<path d="M14.7189 49.0752H4.8623V98.4233H14.7189V49.0752Z" fill="white"/>
<path d="M29.4581 49.0752H19.6016V78.6826H29.4581V49.0752Z" fill="white"/>
<path d="M44.2853 49.0752H34.4287V58.9455H44.2853V49.0752Z" fill="white"/>
<path d="M34.1377 28.1081C34.1377 33.4286 29.8145 37.7578 24.5015 37.7578C19.1884 37.7578 14.8652 33.4286 14.8652 28.1081C14.8652 22.7877 19.1884 18.4585 24.5015 18.4585C29.8145 18.4585 34.1377 22.7877 34.1377 28.1081Z" fill="white"/>
</svg>
