<svg width="150" height="300" viewBox="0 0 150 300" fill="none" xmlns="http://www.w3.org/2000/svg">
<g clip-path="url(#clip0_193_1648)">
<path d="M74.9997 115.089C58.7363 115.089 45.5029 101.893 45.5029 85.6762C45.5029 69.4592 58.7363 56.2634 74.9997 56.2634C91.2631 56.2634 104.497 69.4592 104.497 85.6762C104.497 101.893 91.2631 115.089 74.9997 115.089Z" fill="#A4DAD2"/>
<path d="M150 74.7865C150 91.7509 144.336 107.402 134.786 119.947H93.9186C106.028 113.285 114.24 100.42 114.24 85.6762C114.24 64.0996 96.6381 46.548 75 46.548C53.3619 46.548 35.7602 64.0996 35.7602 85.6762C35.7602 100.42 43.9829 113.274 56.0814 119.947H15.2141C5.66381 107.402 0 91.7509 0 74.7865C0 33.4804 33.576 0 75 0C116.424 0 150 33.4804 150 74.7865Z" fill="#A4DAD2"/>
<path d="M45.0531 149.584H14.8818V300H45.0531V149.584Z" fill="#A4DAD2"/>
<path d="M90.1713 149.584H60V239.829H90.1713V149.584Z" fill="#A4DAD2"/>
<path d="M135.556 149.584H105.385V179.669H135.556V149.584Z" fill="#A4DAD2"/>
<path d="M104.497 85.6762C104.497 101.893 91.2631 115.089 74.9997 115.089C58.7363 115.089 45.5029 101.893 45.5029 85.6762C45.5029 69.4592 58.7363 56.2634 74.9997 56.2634C91.2631 56.2634 104.497 69.4592 104.497 85.6762Z" fill="#27BDBE"/>
</g>
<defs>
<clipPath id="clip0_193_1648">
<rect width="150" height="300" fill="white"/>
</clipPath>
</defs>
</svg>
