<svg width="200" height="96" viewBox="0 0 200 96" fill="none" xmlns="http://www.w3.org/2000/svg">
<g clip-path="url(#clip0_550_204)">
<path d="M91.373 16.8526C91.373 8.54944 95.9769 0 104.376 0C107.434 0 112.143 1.30177 112.143 5.10152C112.143 7.14212 110.737 8.30316 108.523 8.30316C107.082 8.30316 109.015 4.99597 104.552 4.99597C98.9992 4.99597 97.0663 11.2937 97.0663 16.1841C97.0663 20.0191 98.1558 24.0651 102.76 24.0651C104.938 24.0651 107.293 23.1503 107.293 20.6875C107.293 17.8377 104.517 17.5914 104.517 16.6767C104.517 16.2193 110.561 14.038 110.983 14.038C111.686 14.038 112.494 22.6226 112.494 23.6781C112.494 28.287 107.926 30.3276 103.568 30.3276C95.4146 30.3276 91.373 24.6984 91.373 16.8526Z" fill="#008A39"/>
<path d="M124.408 30.3253C117.309 30.3253 114.532 25.2238 114.532 19.1372C114.532 10.0952 119.593 -0.00231934 126.165 -0.00231934C132.737 -0.00231934 137.797 10.0952 137.797 19.1372C137.797 25.2238 135.021 30.3253 127.922 30.3253H124.408ZM132.104 18.3655C132.104 10.5901 128.519 5.69965 126.165 5.69965C123.81 5.69965 120.225 10.5901 120.225 18.3655C120.225 22.4819 122.44 24.0651 126.165 24.0651C129.89 24.0651 132.104 22.4819 132.104 18.3655Z" fill="#008A39"/>
<path d="M94.1849 62.6349C93.3063 62.6349 92.252 63.3034 92.252 50.1098C92.252 32.7295 94.0794 33.3628 94.6769 33.3628H100.651C105.115 33.3628 113.162 38.2532 113.162 51.4468C113.162 57.5334 110.386 62.6349 103.287 62.6349H94.1849ZM97.7344 49.303C97.7344 57.2191 100.054 58.1339 102.022 58.1339C103.99 58.1339 107.469 56.3395 107.469 50.0066C107.469 41.3165 102.971 37.5167 100.686 37.5167C98.2264 37.5167 97.7344 42.0553 97.7344 44.2718V49.303Z" fill="#008A39"/>
<path d="M130.91 62.635C130.594 62.635 129.575 62.7405 129.575 62.2128C129.575 61.2277 132.281 57.7094 132.281 53.6985C132.281 52.1153 130.77 51.5172 129.188 51.5172C125.99 51.5172 120.894 52.0801 120.894 56.091C120.894 58.8704 123.179 61.861 123.179 62.3887C123.179 62.5998 122.968 62.635 122.511 62.635H117.486C115.693 62.635 115.201 59.4685 115.201 54.8947C115.201 39.8365 125.639 32.8351 127.185 32.8351C128.345 32.8351 137.412 37.8662 137.412 54.1911C137.412 63.5849 135.901 62.635 134.846 62.635H130.91ZM121.668 47.0161C121.668 47.4383 121.914 47.6846 122.335 47.6846C122.968 47.6846 126.377 46.7698 129.469 46.7698C130.699 46.7698 131.262 46.5939 131.262 45.6088C131.262 43.4275 128.661 38.8537 127.326 38.8537C125.428 38.8537 121.668 44.4478 121.668 47.0161Z" fill="#008A39"/>
<path d="M142.683 62.6349C141.804 62.6349 140.75 63.3034 140.75 50.1098C140.75 32.7295 142.577 33.3628 143.175 33.3628H146.97C147.427 33.3628 148.306 33.2572 148.306 33.9257C148.306 34.2775 146.443 40.1531 146.443 46.9434C146.443 55.9502 148.2 61.7554 148.2 62.2479C148.2 62.5997 147.99 62.6349 147.673 62.6349H142.683Z" fill="#008A39"/>
<path d="M153.296 62.6349C151.434 62.7053 151.996 61.4739 151.82 54.3318C151.82 49.6173 153.753 33.3628 154.772 33.3628H160.36C160.606 33.3628 161.028 33.4332 161.028 34.0665C161.028 34.8405 156.951 42.4048 156.951 52.1153C156.951 56.9705 159.06 58.1315 160.993 58.1315C164.226 58.1315 166.194 55.141 167.073 55.141C167.74 55.141 169.111 61.9313 169.111 62.1072C169.111 62.8109 168.022 62.6349 167.6 62.6349H153.296Z" fill="#008A39"/>
<path d="M186.716 33.3652C188.121 33.3652 188.402 33.8578 188.402 35.2299C188.402 46.3125 179.124 48.5994 179.124 59.7172C179.124 60.4912 179.335 61.23 179.335 61.9689C179.335 62.7077 178.246 62.6374 177.719 62.6374H173.642C172.693 62.6374 172.553 61.3004 172.553 60.5967C172.553 56.3748 174.907 53.3139 174.907 52.1177C174.907 50.9215 166.895 45.3626 166.895 36.0391C166.895 33.4004 167.387 33.3652 168.968 33.3652H171.779C172.447 33.3652 173.783 33.2948 173.783 34.28C173.783 34.5614 173.466 36.4261 173.466 37.0242C173.466 42.0554 176.91 46.594 177.965 46.594C179.019 46.594 182.99 41.0351 182.99 36.8483C182.99 35.7225 182.674 34.2448 182.674 33.9633C182.674 33.2245 183.588 33.3652 184.08 33.3652H186.716Z" fill="#008A39"/>
<path d="M109.051 66.2024C109.472 66.2024 110.737 66.0968 110.737 66.8005C110.737 67.082 108.488 72.0076 108.031 72.0076C107.434 72.0076 106.38 70.354 102.936 70.354C100.511 70.354 97.9452 71.7965 97.9452 75.174C97.9452 77.285 98.0507 77.9535 99.0698 77.9535C101.354 77.9535 101.565 76.3351 106.204 76.3351C106.591 76.3351 107.399 76.3351 107.399 76.9332C107.399 77.1091 106.028 82.5976 105.431 82.5976C105.079 82.5976 104.13 82.1051 102.76 82.1051C99.6673 82.1051 98.1209 83.8994 98.1209 86.7844C98.1209 89.8453 99.5267 94.7709 99.4915 95.1579C99.5267 95.5801 98.6481 95.4745 98.3318 95.4745H94.1849C93.3063 95.4745 92.252 96.143 92.252 82.9494C92.252 65.5691 94.0794 66.2024 94.6769 66.2024H109.051Z" fill="#008A39"/>
<path d="M123.249 66.2024C129.785 66.2024 131.437 69.791 131.437 72.7816C131.437 78.4108 126.166 80.1348 126.166 81.1199C126.166 82.105 132.491 86.714 132.491 95.0172C132.491 95.4042 132.351 95.4745 131.613 95.4745H127.642C127.009 95.4745 125.92 95.5801 125.92 95.0172C125.92 91.0415 123.108 83.8994 121.07 83.8994C120.015 83.8994 117.45 85.3419 117.45 87.3121C117.45 89.986 118.75 94.8061 118.75 95.0523C118.75 95.6505 117.872 95.4745 117.52 95.4745H113.444C112.565 95.4745 111.511 96.143 111.511 82.9494C111.511 65.5691 113.338 66.2024 113.936 66.2024H123.249ZM125.744 73.3797C125.744 71.1632 123.67 70.354 121.773 70.354C118.575 70.354 117.169 71.515 117.204 77.6016C117.204 78.3405 117.239 79.7478 118.293 79.7478C119.488 79.7478 125.744 76.6165 125.744 73.3797Z" fill="#008A39"/>
<path d="M136.322 95.4722C134.459 95.5426 135.021 94.3112 134.846 87.1691C134.846 82.4546 136.779 66.2001 137.798 66.2001H151.644C152.066 66.2001 153.331 66.0945 153.331 66.7982C153.331 67.0797 151.082 72.0053 150.625 72.0053C150.028 72.0053 148.973 70.3517 145.529 70.3517C143.104 70.3517 140.539 71.7942 140.539 75.1717C140.539 75.9106 140.68 77.1771 141.664 77.1771C142.788 77.1771 145.283 75.5235 148.235 75.5235C148.657 75.5235 149.817 75.6643 149.817 76.2624C149.817 76.2976 147.849 82.0324 147.427 82.0324C147.076 82.0324 145.74 81.3287 144.37 81.3287C142.577 81.3287 139.977 82.6305 139.977 86.1136C139.977 88.9282 141.453 90.9688 144.405 90.9688C147.884 90.9688 150.028 88.6468 150.871 88.6468C151.398 88.6468 153.753 94.5927 153.753 94.9445C153.753 95.613 152.874 95.4722 152.453 95.4722H136.322Z" fill="#008A39"/>
<path d="M165.313 70.4244C163.556 70.4244 161.306 71.3039 161.306 73.3446C161.306 75.8777 164.786 76.8628 166.719 77.5313C174.099 79.9941 175.61 83.5476 175.61 86.89C175.61 90.9712 172.693 96.0023 165.278 96.0023C160.287 96.0023 155.227 93.3284 155.227 87.7343C155.227 84.7438 157.019 82.9847 157.37 82.9847C157.968 82.9847 157.37 90.1268 164.926 90.1268C167.597 90.1268 169.917 88.9657 169.917 86.7844C169.917 84.2161 166.754 83.1606 164.715 82.5273C157.019 80.1348 156.175 76.6517 156.175 73.6612C156.175 70.6706 158.179 65.6747 165.313 65.6747C170.409 65.6747 174.028 68.3838 174.028 69.4041C174.028 70.4244 172.201 73.5908 171.217 73.5908C170.338 73.5908 168.968 70.4244 165.313 70.4244Z" fill="#008A39"/>
<path d="M193.815 95.4722C193.463 95.4722 192.515 95.5074 192.515 94.9445C192.515 94.7686 192.55 94.5927 192.62 94.4519C193.85 91.2151 194.869 87.9079 194.869 84.4248C194.869 82.0324 193.92 81.2232 191.566 81.2232C188.016 81.2232 184.221 82.912 184.221 86.9932C184.221 89.5263 184.677 92.2706 185.662 94.5927C185.732 94.7334 185.802 94.9797 185.802 95.1204C185.802 95.613 184.959 95.4722 184.677 95.4722H179.511C178.527 95.4722 178.527 85.3396 178.527 83.8267C178.527 81.2584 179.23 66.2001 180.917 66.2001H185.697C185.908 66.2001 186.751 66.0945 186.751 66.5167C186.751 66.9741 184.361 72.0756 184.361 75.805C184.361 76.6846 184.677 77.529 185.205 77.529C186.294 77.529 186.294 76.4735 191.074 76.4735C192.796 76.4735 194.166 76.8605 194.166 75.3828C194.166 72.0404 191.074 67.0093 191.074 66.5519C191.074 66.0945 192.128 66.2001 192.339 66.2001H196.943C198.278 66.2001 200 76.3328 200 83.8267C200 85.5155 200 95.4722 198.876 95.4722H193.815Z" fill="#008A39"/>
<path d="M0 48.0011C0 1.92565 46.8699 1.81541 56.5109 2.28217C57.4668 2.32908 58.1814 3.17816 58.0596 4.1281C57.1154 11.5235 51.2652 40.4251 17.0353 48.0011C51.2652 55.5772 57.1154 84.4788 58.0596 91.8742C58.1814 92.8241 57.4668 93.6732 56.5109 93.7201C46.8675 94.1845 0 94.0696 0 48.0011Z" fill="#008A39"/>
<path d="M72.3655 55.4739L48.7279 48.7727C47.9501 48.5523 47.9501 47.4499 48.7279 47.2294L72.3655 40.5282C75.1817 39.7307 78.2064 40.2045 80.643 41.8276C85.0477 44.7619 85.0477 51.2379 80.643 54.1721C78.2064 55.7952 75.1817 56.2714 72.3655 55.4716V55.4739Z" fill="#FFD833"/>
<path d="M59.367 74.2311L47.3854 52.7602C46.9917 52.0542 47.7696 51.2755 48.4748 51.6695L69.9218 63.6645C72.4779 65.093 74.2796 67.5698 74.8559 70.4431C75.8985 75.6361 71.3228 80.2146 66.1356 79.1732C63.2656 78.5962 60.7915 76.7901 59.3646 74.2335L59.367 74.2311Z" fill="#FFD833"/>
<path d="M69.9218 32.3377L48.4748 44.3327C47.7696 44.7268 46.9917 43.948 47.3854 43.242L59.367 21.7711C60.7938 19.2121 63.2679 17.4084 66.138 16.8314C71.3252 15.7877 75.8985 20.3685 74.8583 25.5615C74.2819 28.4347 72.4779 30.9116 69.9241 32.34L69.9218 32.3377Z" fill="#FFD833"/>
</g>
<defs>
<clipPath id="clip0_550_204">
<rect width="200" height="96" fill="white"/>
</clipPath>
</defs>
</svg>
