<svg width="200" height="77" viewBox="0 0 200 77" fill="none" xmlns="http://www.w3.org/2000/svg">
<g clip-path="url(#clip0_550_377)">
<path d="M7.90202 74.1118H6.70726C6.61588 74.1118 6.53821 74.1439 6.47425 74.208C6.41028 74.2722 6.3783 74.3502 6.3783 74.4419V76.4912C6.3783 76.5828 6.34632 76.6608 6.28236 76.725C6.21839 76.7891 6.14072 76.8212 6.05163 76.8212H3.99107C3.89969 76.8212 3.82202 76.7891 3.75806 76.725C3.69409 76.6608 3.66211 76.5828 3.66211 76.4912V67.0836C3.66211 66.9919 3.69409 66.914 3.75806 66.8498C3.82202 66.7856 3.89969 66.7535 3.99107 66.7535H8.18529C8.697 66.7535 9.17902 66.8498 9.63134 67.0424C10.0837 67.2349 10.4766 67.5008 10.8101 67.8401C11.1436 68.1793 11.4086 68.5736 11.6051 69.0229C11.8015 69.4722 11.8998 69.9536 11.8998 70.467C11.8998 70.9805 11.8175 71.4596 11.6531 71.9043C11.4886 72.349 11.2396 72.7341 10.9038 73.0596C10.5702 73.3851 10.1522 73.6418 9.65418 73.8298C9.15389 74.0178 8.57136 74.1118 7.90202 74.1118ZM8.00025 69.2842H6.70498C6.6136 69.2842 6.53593 69.3163 6.46968 69.3805C6.40343 69.4447 6.37373 69.5226 6.37373 69.612V71.2258C6.37373 71.3175 6.40572 71.3954 6.46968 71.4573C6.53364 71.5192 6.61131 71.5536 6.70498 71.5536H8.17844C8.52796 71.5536 8.78153 71.4413 8.94372 71.2189C9.10363 70.9966 9.18587 70.7421 9.18587 70.4602C9.18587 70.3135 9.16074 70.1713 9.11049 70.0292C9.06023 69.8871 8.98484 69.7633 8.88204 69.6533C8.78153 69.5432 8.65817 69.4539 8.50968 69.3874C8.36119 69.3209 8.19214 69.2842 8.00025 69.2842Z" fill="#45474B"/>
<path d="M20.4526 74.6206V76.4912C20.4526 76.5828 20.4206 76.6608 20.3566 76.725C20.2927 76.7891 20.215 76.8212 20.1236 76.8212H13.284C13.1835 76.8212 13.1036 76.7891 13.0442 76.725C12.9848 76.6608 12.9551 76.5828 12.9551 76.4912V67.0836C12.9551 66.9919 12.9848 66.914 13.0442 66.8498C13.1036 66.7856 13.1835 66.7535 13.284 66.7535H15.34C15.4314 66.7535 15.5091 66.7856 15.573 66.8498C15.637 66.914 15.669 66.9919 15.669 67.0836V73.9605C15.669 74.0522 15.6987 74.1301 15.7581 74.1943C15.8175 74.2585 15.8974 74.2906 15.9979 74.2906H20.1236C20.215 74.2906 20.2927 74.3227 20.3566 74.3868C20.4206 74.451 20.4526 74.529 20.4526 74.6206Z" fill="#45474B"/>
<path d="M21.3984 67.0974C21.3984 67.0057 21.4304 66.9278 21.4944 66.8636C21.5583 66.7994 21.636 66.7673 21.7274 66.7673H23.788C23.8793 66.7673 23.957 66.7994 24.0187 66.8636C24.0826 66.9278 24.1146 67.0057 24.1146 67.0974V72.6677C24.1146 73.0253 24.1717 73.321 24.286 73.5548C24.4002 73.7886 24.5418 73.972 24.7132 74.1049C24.8822 74.2379 25.065 74.3319 25.2568 74.3869C25.4487 74.4419 25.6246 74.4694 25.78 74.4694C25.9353 74.4694 26.1112 74.4419 26.3031 74.3869C26.495 74.3319 26.6755 74.2379 26.84 74.1049C27.0044 73.972 27.1438 73.7886 27.2603 73.5548C27.3768 73.321 27.4316 73.0253 27.4316 72.6677V67.0974C27.4316 67.0057 27.4636 66.9278 27.5276 66.8636C27.5915 66.7994 27.6692 66.7673 27.7606 66.7673H29.8211C29.9125 66.7673 29.9902 66.7994 30.0519 66.8636C30.1158 66.9278 30.1478 67.0057 30.1478 67.0974V72.6677C30.1478 73.3187 30.045 73.9101 29.8394 74.4419C29.6338 74.9737 29.3391 75.4276 28.9576 75.8035C28.5738 76.1794 28.1147 76.4706 27.5756 76.6769C27.0364 76.8832 26.4402 76.9863 25.7823 76.9863C25.1244 76.9863 24.5281 76.8832 23.989 76.6769C23.4499 76.4706 22.9907 76.1794 22.6069 75.8035C22.2231 75.4276 21.9261 74.9737 21.7183 74.4419C21.5081 73.9101 21.403 73.3187 21.403 72.6677V67.0974H21.3984Z" fill="#45474B"/>
<path d="M32.8986 73.369C33.392 73.6899 33.8809 73.9421 34.3652 74.1255C34.8495 74.3089 35.3018 74.4006 35.7221 74.4006C36.1425 74.4006 36.4303 74.3432 36.6405 74.2286C36.8506 74.114 36.9557 73.9421 36.9557 73.7129C36.9557 73.5937 36.91 73.4997 36.8187 73.4309C36.7273 73.3622 36.6062 73.3048 36.4554 73.259C36.3047 73.2132 36.1288 73.1765 35.9277 73.149C35.7267 73.1215 35.5211 73.0848 35.3109 73.0389C35.1099 73.0023 34.8746 72.9587 34.605 72.9083C34.3355 72.8578 34.0591 72.7845 33.7758 72.6882C33.4925 72.5919 33.2115 72.4705 32.9328 72.3238C32.6541 72.177 32.4051 71.9891 32.1858 71.7598C31.9665 71.5306 31.7906 71.2578 31.6581 70.9415C31.5256 70.6252 31.4594 70.2515 31.4594 69.8206C31.4594 69.1879 31.5827 68.6653 31.8294 68.2527C32.0762 67.84 32.3891 67.5122 32.7684 67.2693C33.1476 67.0263 33.5702 66.8567 34.0362 66.7604C34.5022 66.6641 34.9546 66.616 35.3932 66.616C36.1607 66.616 36.8484 66.7283 37.456 66.9529C38.0637 67.1776 38.6462 67.5054 39.2036 67.9363C39.2767 68.0005 39.3178 68.0784 39.327 68.1701C39.3361 68.2618 39.3133 68.3443 39.2584 68.4177L38.1893 69.9444C38.1345 70.0177 38.0614 70.0636 37.97 70.0819C37.8786 70.1002 37.7964 70.0819 37.7233 70.0269C37.2573 69.7335 36.8232 69.5249 36.4212 69.4011C36.0191 69.2773 35.649 69.2154 35.3109 69.2154C35.2104 69.2154 35.0939 69.2154 34.9614 69.2223C34.8289 69.2269 34.7033 69.2452 34.5845 69.2773C34.4657 69.3094 34.3675 69.3621 34.2898 69.4355C34.2121 69.5088 34.1733 69.6097 34.1733 69.7381C34.1733 69.8664 34.2692 69.981 34.4611 70.0819C34.653 70.1828 34.8723 70.2699 35.119 70.3432C35.3658 70.4166 35.6033 70.4739 35.8318 70.5151C36.0602 70.5564 36.2064 70.5816 36.2704 70.5908C36.5994 70.655 36.9603 70.749 37.3532 70.8727C37.7461 70.9965 38.1139 71.1799 38.4566 71.4229C38.7993 71.6659 39.0871 71.9822 39.3201 72.3719C39.5531 72.7616 39.6696 73.2498 39.6696 73.8367C39.6696 74.3868 39.5737 74.8613 39.3818 75.2602C39.1899 75.659 38.9226 75.9868 38.58 76.2435C38.2373 76.5003 37.8261 76.6905 37.3464 76.8143C36.8666 76.9381 36.3344 77 35.7495 77C35.2744 77 34.8312 76.961 34.42 76.8831C34.0088 76.8052 33.625 76.6974 33.2686 76.5599C32.9123 76.4223 32.581 76.2596 32.2749 76.0716C31.9688 75.8837 31.6878 75.6842 31.432 75.4733C31.3589 75.4183 31.3177 75.3427 31.3086 75.2464C31.2995 75.1501 31.3223 75.0653 31.3771 74.992L32.4325 73.4653C32.4874 73.3919 32.5605 73.3461 32.6518 73.3278C32.7432 73.3094 32.8255 73.3232 32.8986 73.369Z" fill="#45474B"/>
<path d="M45.3303 72.9152H40.9579C40.8665 72.9152 40.7888 72.8832 40.7249 72.819C40.6609 72.7548 40.6289 72.6768 40.6289 72.5852V70.7284C40.6289 70.6275 40.6609 70.5473 40.7249 70.4877C40.7888 70.4281 40.8665 70.3983 40.9579 70.3983H45.3303C45.4216 70.3983 45.4993 70.4281 45.5633 70.4877C45.6272 70.5473 45.6592 70.6275 45.6592 70.7284V72.5852C45.6592 72.6768 45.6272 72.7548 45.5633 72.819C45.4993 72.8832 45.4216 72.9152 45.3303 72.9152Z" fill="#45474B"/>
<path d="M47.8243 73.369C48.3178 73.6899 48.8067 73.9421 49.291 74.1255C49.7753 74.3089 50.2276 74.4006 50.6479 74.4006C51.0682 74.4006 51.3561 74.3432 51.5663 74.2286C51.7764 74.114 51.8815 73.9421 51.8815 73.7129C51.8815 73.5937 51.8358 73.4997 51.7444 73.4309C51.6531 73.3622 51.532 73.3048 51.3812 73.259C51.2304 73.2132 51.0545 73.1765 50.8535 73.149C50.6525 73.1215 50.4469 73.0848 50.2367 73.0389C50.0357 73.0023 49.8004 72.9587 49.5308 72.9083C49.2613 72.8578 48.9848 72.7845 48.7016 72.6882C48.4183 72.5919 48.1373 72.4705 47.8586 72.3238C47.5799 72.177 47.3309 71.9891 47.1116 71.7598C46.8923 71.5306 46.7164 71.2578 46.5839 70.9415C46.4514 70.6252 46.3852 70.2515 46.3852 69.8206C46.3852 69.1879 46.5085 68.6653 46.7552 68.2527C47.0019 67.84 47.3149 67.5122 47.6941 67.2693C48.0733 67.0263 48.496 66.8567 48.962 66.7604C49.428 66.6641 49.8803 66.616 50.319 66.616C51.0865 66.616 51.7741 66.7283 52.3818 66.9529C52.9895 67.1776 53.572 67.5054 54.1294 67.9363C54.2025 68.0005 54.2436 68.0784 54.2527 68.1701C54.2619 68.2618 54.239 68.3443 54.1842 68.4177L53.1151 69.9444C53.0603 70.0177 52.9872 70.0636 52.8958 70.0819C52.8044 70.1002 52.7222 70.0819 52.6491 70.0269C52.183 69.7335 51.749 69.5249 51.3469 69.4011C50.9449 69.2773 50.5748 69.2154 50.2367 69.2154C50.1362 69.2154 50.0197 69.2154 49.8872 69.2223C49.7547 69.2269 49.629 69.2452 49.5103 69.2773C49.3915 69.3094 49.2932 69.3621 49.2156 69.4355C49.1379 69.5088 49.0991 69.6097 49.0991 69.7381C49.0991 69.8664 49.195 69.981 49.3869 70.0819C49.5788 70.1828 49.7981 70.2699 50.0448 70.3432C50.2915 70.4166 50.5291 70.4739 50.7576 70.5151C50.986 70.5564 51.1322 70.5816 51.1962 70.5908C51.5251 70.655 51.8861 70.749 52.279 70.8727C52.6719 70.9965 53.0397 71.1799 53.3824 71.4229C53.725 71.6659 54.0129 71.9822 54.2459 72.3719C54.4789 72.7616 54.5954 73.2498 54.5954 73.8367C54.5954 74.3868 54.4995 74.8613 54.3076 75.2602C54.1157 75.659 53.8484 75.9868 53.5057 76.2435C53.1631 76.5003 52.7519 76.6905 52.2721 76.8143C51.7924 76.9381 51.2601 77 50.6753 77C50.2002 77 49.757 76.961 49.3458 76.8831C48.9346 76.8052 48.5508 76.6974 48.1944 76.5599C47.8381 76.4223 47.5068 76.2596 47.2007 76.0716C46.8946 75.8837 46.6136 75.6842 46.3577 75.4733C46.2846 75.4183 46.2435 75.3427 46.2344 75.2464C46.2252 75.1501 46.2481 75.0653 46.3029 74.992L47.3583 73.4653C47.4131 73.3919 47.4863 73.3461 47.5776 73.3278C47.669 73.3094 47.7512 73.3232 47.8243 73.369Z" fill="#45474B"/>
<path d="M58.5025 76.8213H56.4419C56.3414 76.8213 56.2614 76.7892 56.2043 76.725C56.1449 76.6608 56.1152 76.5829 56.1152 76.4912V67.0974C56.1152 67.0057 56.1449 66.9278 56.2043 66.8636C56.2637 66.7994 56.3437 66.7673 56.4419 66.7673H58.5025C58.5938 66.7673 58.6715 66.7994 58.7332 66.8636C58.7972 66.9278 58.8291 67.0057 58.8291 67.0974V76.4912C58.8291 76.5829 58.7972 76.6608 58.7332 76.725C58.6692 76.7892 58.5916 76.8213 58.5025 76.8213Z" fill="#45474B"/>
<path d="M68.5488 76.8212H60.7909C60.6995 76.8212 60.6218 76.7891 60.5579 76.7249C60.4939 76.6607 60.4619 76.5828 60.4619 76.4911V74.953C60.4619 74.8613 60.4848 74.7604 60.5304 74.6504C60.5761 74.5404 60.6264 74.4487 60.6812 74.3753L64.8754 69.667C64.9303 69.5936 64.9485 69.5157 64.9303 69.4332C64.912 69.3507 64.8526 69.3094 64.7521 69.3094H60.7909C60.6995 69.3094 60.6218 69.2773 60.5579 69.2131C60.4939 69.1489 60.4619 69.071 60.4619 68.977V67.0813C60.4619 66.9896 60.4939 66.9117 60.5579 66.8475C60.6218 66.7833 60.6995 66.7512 60.7909 66.7512H68.5488C68.6493 66.7512 68.7293 66.7833 68.7887 66.8475C68.8481 66.9117 68.8778 66.9896 68.8778 67.0813V68.6355C68.8778 68.7272 68.8572 68.828 68.8161 68.9381C68.775 69.0481 68.727 69.1398 68.6722 69.2131L64.4779 73.9444C64.4231 74.0177 64.4048 74.0934 64.4231 74.1713C64.4414 74.2493 64.4962 74.2882 64.5876 74.2882H68.5488C68.6493 74.2882 68.7293 74.3203 68.7887 74.3845C68.8481 74.4487 68.8778 74.5266 68.8778 74.6183V76.4888C68.8778 76.5805 68.8481 76.6585 68.7887 76.7226C68.7293 76.7868 68.6493 76.8189 68.5488 76.8189V76.8212Z" fill="#45474B"/>
<path d="M73.086 69.6143V70.192C73.086 70.2837 73.118 70.3616 73.1819 70.4258C73.2459 70.49 73.3236 70.522 73.4149 70.522H77.1294C77.2208 70.522 77.2985 70.5541 77.3624 70.6183C77.4264 70.6825 77.4584 70.7604 77.4584 70.8521V72.7501C77.4584 72.8418 77.4264 72.9198 77.3624 72.984C77.2985 73.0481 77.2208 73.0802 77.1294 73.0802H73.4149C73.3236 73.0802 73.2459 73.1123 73.1819 73.1765C73.118 73.2407 73.086 73.3186 73.086 73.4103V73.933C73.086 74.0247 73.118 74.1026 73.1819 74.1668C73.2459 74.231 73.3236 74.2631 73.4149 74.2631H77.6777C77.7691 74.2631 77.8467 74.2951 77.9107 74.3593C77.9747 74.4235 78.0067 74.5015 78.0067 74.5931V76.4912C78.0067 76.5828 77.9747 76.6608 77.9107 76.725C77.8467 76.7891 77.7691 76.8212 77.6777 76.8212H70.701C70.6097 76.8212 70.532 76.7891 70.468 76.725C70.4041 76.6608 70.3721 76.5828 70.3721 76.4912V67.0836C70.3721 66.9919 70.4041 66.914 70.468 66.8498C70.532 66.7856 70.6097 66.7535 70.701 66.7535H77.6777C77.7691 66.7535 77.8467 66.7856 77.9107 66.8498C77.9747 66.914 78.0067 66.9919 78.0067 67.0836V68.9541C78.0067 69.0458 77.9747 69.1238 77.9107 69.1879C77.8467 69.2521 77.7691 69.2842 77.6777 69.2842H73.4149C73.3236 69.2842 73.2459 69.3163 73.1819 69.3805C73.118 69.4447 73.086 69.5226 73.086 69.6143Z" fill="#45474B"/>
<path d="M95.62 67.0974V76.4912C95.62 76.5829 95.5881 76.6608 95.5241 76.725C95.4601 76.7892 95.3825 76.8213 95.2934 76.8213H93.2328C93.1414 76.8213 93.0638 76.7892 92.9998 76.725C92.9358 76.6608 92.9038 76.5829 92.9038 76.4912V72.0625C92.9038 71.9708 92.8627 71.9204 92.7805 71.9112C92.6982 71.902 92.6297 71.9341 92.5749 72.0075L90.2676 75.7347C90.2219 75.8081 90.1488 75.8448 90.0483 75.8448C89.9478 75.8448 89.8701 75.8081 89.8153 75.7347L87.508 72.0075C87.4623 71.9341 87.3984 71.902 87.3161 71.9112C87.2339 71.9204 87.1928 71.9708 87.1928 72.0625V76.4912C87.1928 76.5829 87.1608 76.6608 87.0968 76.725C87.0328 76.7892 86.9552 76.8213 86.8661 76.8213H84.8055C84.7141 76.8213 84.6365 76.7892 84.5725 76.725C84.5085 76.6608 84.4766 76.5829 84.4766 76.4912V67.0974C84.4766 67.0057 84.5085 66.9278 84.5725 66.8636C84.6365 66.7994 84.7141 66.7673 84.8032 66.7673H86.713C86.8044 66.7673 86.9003 66.7948 86.9986 66.8499C87.0991 66.9049 87.1722 66.9691 87.2179 67.0424L89.8564 70.921C89.9112 70.9943 89.9752 71.031 90.0483 71.031C90.1214 71.031 90.1808 70.9943 90.2265 70.921L92.865 67.0424C92.9198 66.9691 92.9975 66.9049 93.0957 66.8499C93.1962 66.7948 93.2922 66.7673 93.3813 66.7673H95.2911C95.3825 66.7673 95.4578 66.7994 95.5218 66.8636C95.5858 66.9278 95.6177 67.0057 95.6177 67.0974H95.62Z" fill="#45474B"/>
<path d="M100.499 69.6143V70.192C100.499 70.2837 100.531 70.3616 100.595 70.4258C100.659 70.49 100.737 70.522 100.828 70.522H104.543C104.634 70.522 104.712 70.5541 104.776 70.6183C104.839 70.6825 104.871 70.7604 104.871 70.8521V72.7501C104.871 72.8418 104.839 72.9198 104.776 72.984C104.712 73.0481 104.634 73.0802 104.543 73.0802H100.828C100.737 73.0802 100.659 73.1123 100.595 73.1765C100.531 73.2407 100.499 73.3186 100.499 73.4103V73.933C100.499 74.0247 100.531 74.1026 100.595 74.1668C100.659 74.231 100.737 74.2631 100.828 74.2631H105.091C105.182 74.2631 105.26 74.2951 105.324 74.3593C105.388 74.4235 105.42 74.5015 105.42 74.5931V76.4912C105.42 76.5828 105.388 76.6608 105.324 76.725C105.26 76.7891 105.182 76.8212 105.091 76.8212H98.1141C98.0227 76.8212 97.9451 76.7891 97.8811 76.725C97.8171 76.6608 97.7852 76.5828 97.7852 76.4912V67.0836C97.7852 66.9919 97.8171 66.914 97.8811 66.8498C97.9451 66.7856 98.0227 66.7535 98.1141 66.7535H105.091C105.182 66.7535 105.26 66.7856 105.324 66.8498C105.388 66.914 105.42 66.9919 105.42 67.0836V68.9541C105.42 69.0458 105.388 69.1238 105.324 69.1879C105.26 69.2521 105.182 69.2842 105.091 69.2842H100.828C100.737 69.2842 100.659 69.3163 100.595 69.3805C100.531 69.4447 100.499 69.5226 100.499 69.6143Z" fill="#45474B"/>
<path d="M116.591 67.0836V76.4912C116.591 76.5828 116.559 76.6608 116.495 76.725C116.431 76.7891 116.353 76.8212 116.262 76.8212H114.238C114.146 76.8212 114.05 76.7937 113.95 76.7387C113.849 76.6837 113.772 76.6195 113.717 76.5462L110.146 71.4986C110.091 71.4252 110.034 71.3954 109.975 71.4092C109.915 71.4229 109.886 71.4756 109.886 71.5673V76.4912C109.886 76.5828 109.854 76.6608 109.79 76.725C109.726 76.7891 109.648 76.8212 109.557 76.8212H107.503C107.412 76.8212 107.334 76.7891 107.268 76.725C107.204 76.6608 107.172 76.5828 107.172 76.4912V67.0836C107.172 66.9919 107.204 66.914 107.268 66.8498C107.332 66.7856 107.409 66.7535 107.501 66.7535H109.557C109.648 66.7535 109.744 66.7788 109.845 66.8292C109.945 66.8796 110.023 66.9415 110.078 67.0149L113.641 72.0625C113.696 72.1358 113.753 72.1679 113.813 72.1587C113.872 72.1496 113.902 72.0991 113.902 72.0075V67.0836C113.902 66.9919 113.934 66.914 113.998 66.8498C114.062 66.7856 114.139 66.7535 114.231 66.7535H116.259C116.351 66.7535 116.428 66.7856 116.492 66.8498C116.556 66.914 116.588 66.9919 116.588 67.0836H116.591Z" fill="#45474B"/>
<path d="M119.044 70.7559C118.962 70.7926 118.87 70.7949 118.77 70.7628C118.669 70.7307 118.592 70.6779 118.537 70.6046L118.29 70.247C118.244 70.1736 118.226 70.0911 118.235 69.9994C118.244 69.9077 118.285 69.8298 118.359 69.7656C118.459 69.6739 118.548 69.5822 118.626 69.4905C118.704 69.3989 118.779 69.3072 118.852 69.2155C118.907 69.1421 118.916 69.0688 118.879 68.9954C118.843 68.9221 118.788 68.8579 118.715 68.8029C118.56 68.702 118.441 68.5599 118.359 68.3765C118.276 68.1931 118.226 67.996 118.208 67.7851C118.19 67.3908 118.313 67.0584 118.578 66.7879C118.843 66.5175 119.167 66.373 119.551 66.3547C119.78 66.3455 119.99 66.3845 120.182 66.4716C120.373 66.5587 120.536 66.6779 120.668 66.8292C120.801 66.9805 120.903 67.157 120.977 67.3587C121.05 67.5604 121.086 67.7759 121.086 68.0051C121.086 68.6103 120.917 69.149 120.579 69.6212C120.241 70.0934 119.729 70.4716 119.044 70.7559Z" fill="#45474B"/>
<path d="M123.154 73.369C123.648 73.6899 124.137 73.9421 124.621 74.1255C125.105 74.3089 125.558 74.4006 125.978 74.4006C126.398 74.4006 126.686 74.3432 126.896 74.2286C127.106 74.114 127.212 73.9421 127.212 73.7129C127.212 73.5937 127.166 73.4997 127.075 73.4309C126.983 73.3622 126.862 73.3048 126.711 73.259C126.561 73.2132 126.385 73.1765 126.184 73.149C125.983 73.1215 125.777 73.0848 125.567 73.0389C125.366 73.0023 125.13 72.9587 124.861 72.9083C124.591 72.8578 124.315 72.7845 124.032 72.6882C123.748 72.5919 123.467 72.4705 123.189 72.3238C122.91 72.177 122.661 71.9891 122.442 71.7598C122.222 71.5306 122.046 71.2578 121.914 70.9415C121.781 70.6252 121.715 70.2515 121.715 69.8206C121.715 69.1879 121.839 68.6653 122.085 68.2527C122.332 67.84 122.645 67.5122 123.024 67.2693C123.403 67.0263 123.826 66.8567 124.292 66.7604C124.758 66.6641 125.21 66.616 125.649 66.616C126.417 66.616 127.104 66.7283 127.712 66.9529C128.32 67.1776 128.902 67.5054 129.459 67.9363C129.533 68.0005 129.574 68.0784 129.583 68.1701C129.592 68.2618 129.569 68.3443 129.514 68.4177L128.445 69.9444C128.39 70.0177 128.317 70.0636 128.226 70.0819C128.134 70.1002 128.052 70.0819 127.979 70.0269C127.513 69.7335 127.079 69.5249 126.677 69.4011C126.275 69.2773 125.905 69.2154 125.567 69.2154C125.466 69.2154 125.35 69.2154 125.217 69.2223C125.085 69.2269 124.959 69.2452 124.84 69.2773C124.722 69.3094 124.623 69.3621 124.546 69.4355C124.468 69.5088 124.429 69.6097 124.429 69.7381C124.429 69.8664 124.525 69.981 124.717 70.0819C124.909 70.1828 125.128 70.2699 125.375 70.3432C125.622 70.4166 125.859 70.4739 126.088 70.5151C126.316 70.5564 126.462 70.5816 126.526 70.5908C126.855 70.655 127.216 70.749 127.609 70.8727C128.002 70.9965 128.37 71.1799 128.712 71.4229C129.055 71.6659 129.343 71.9822 129.576 72.3719C129.809 72.7616 129.925 73.2498 129.925 73.8367C129.925 74.3868 129.83 74.8613 129.638 75.2602C129.446 75.659 129.178 75.9868 128.836 76.2435C128.493 76.5003 128.082 76.6905 127.602 76.8143C127.122 76.9381 126.59 77 126.005 77C125.53 77 125.087 76.961 124.676 76.8831C124.265 76.8052 123.881 76.6974 123.524 76.5599C123.168 76.4223 122.837 76.2596 122.531 76.0716C122.225 75.8837 121.944 75.6842 121.688 75.4733C121.615 75.4183 121.574 75.3427 121.564 75.2464C121.555 75.1501 121.578 75.0653 121.633 74.992L122.688 73.4653C122.743 73.3919 122.816 73.3461 122.908 73.3278C122.999 73.3094 123.081 73.3232 123.154 73.369Z" fill="#45474B"/>
<path d="M135.298 67.1524C135.252 67.0424 135.25 66.9484 135.291 66.8704C135.332 66.7925 135.403 66.7535 135.503 66.7535H137.738C137.829 66.7535 137.916 66.7833 137.998 66.8429C138.08 66.9025 138.135 66.9736 138.162 67.0561L139.725 71.6361C139.752 71.7278 139.8 71.7736 139.869 71.7736C139.937 71.7736 139.985 71.7278 140.013 71.6361L141.521 67.0699C141.548 66.9782 141.603 66.9025 141.685 66.8429C141.767 66.7833 141.859 66.7535 141.959 66.7535H143.782C143.883 66.7535 143.974 66.7833 144.056 66.8429C144.139 66.9025 144.193 66.9782 144.221 67.0699L145.729 71.6636C145.756 71.7553 145.804 71.8011 145.872 71.8011C145.941 71.8011 145.994 71.7553 146.03 71.6636L147.606 67.0561C147.643 66.9736 147.702 66.9025 147.785 66.8429C147.867 66.7833 147.958 66.7535 148.059 66.7535H150.279C150.38 66.7535 150.448 66.7925 150.485 66.8704C150.521 66.9484 150.526 67.0286 150.498 67.1111L147.181 76.5049C147.145 76.5966 147.085 76.6722 147.003 76.7318C146.921 76.7914 146.83 76.8212 146.729 76.8212H144.961C144.86 76.8212 144.769 76.7914 144.687 76.7318C144.605 76.6722 144.55 76.5966 144.522 76.5049L143.015 71.9249C142.987 71.8332 142.939 71.7874 142.871 71.7874C142.802 71.7874 142.754 71.8332 142.727 71.9249L141.219 76.5049C141.192 76.5966 141.137 76.6722 141.055 76.7318C140.972 76.7914 140.881 76.8212 140.78 76.8212H139.012C138.912 76.8212 138.82 76.7869 138.738 76.7181C138.656 76.6493 138.606 76.5783 138.587 76.5049L135.298 67.1524Z" fill="#45474B"/>
<path d="M154.378 69.6143V70.192C154.378 70.2837 154.41 70.3616 154.474 70.4258C154.538 70.49 154.616 70.522 154.707 70.522H158.421C158.513 70.522 158.59 70.5541 158.654 70.6183C158.718 70.6825 158.75 70.7604 158.75 70.8521V72.7501C158.75 72.8418 158.718 72.9198 158.654 72.984C158.59 73.0481 158.513 73.0802 158.421 73.0802H154.707C154.616 73.0802 154.538 73.1123 154.474 73.1765C154.41 73.2407 154.378 73.3186 154.378 73.4103V73.933C154.378 74.0247 154.41 74.1026 154.474 74.1668C154.538 74.231 154.616 74.2631 154.707 74.2631H158.97C159.061 74.2631 159.139 74.2951 159.203 74.3593C159.267 74.4235 159.299 74.5015 159.299 74.5931V76.4912C159.299 76.5828 159.267 76.6608 159.203 76.725C159.139 76.7891 159.061 76.8212 158.97 76.8212H151.993C151.902 76.8212 151.824 76.7891 151.76 76.725C151.696 76.6608 151.664 76.5828 151.664 76.4912V67.0836C151.664 66.9919 151.696 66.914 151.76 66.8498C151.824 66.7856 151.902 66.7535 151.993 66.7535H158.97C159.061 66.7535 159.139 66.7856 159.203 66.8498C159.267 66.914 159.299 66.9919 159.299 67.0836V68.9541C159.299 69.0458 159.267 69.1238 159.203 69.1879C159.139 69.2521 159.061 69.2842 158.97 69.2842H154.707C154.616 69.2842 154.538 69.3163 154.474 69.3805C154.41 69.4447 154.378 69.5226 154.378 69.6143Z" fill="#45474B"/>
<path d="M163.931 67.0699C163.967 66.9874 164.029 66.9163 164.116 66.8567C164.203 66.7971 164.296 66.7673 164.397 66.7673H166.316C166.407 66.7673 166.496 66.7971 166.583 66.8567C166.67 66.9163 166.732 66.9874 166.768 67.0699L170.77 76.4224C170.807 76.5049 170.8 76.5921 170.75 76.6837C170.7 76.7754 170.601 76.8213 170.455 76.8213H168.111C168.011 76.8213 167.917 76.7915 167.83 76.7319C167.744 76.6723 167.677 76.6012 167.632 76.5187L167.262 75.6935C167.216 75.611 167.15 75.5399 167.063 75.4803C166.976 75.4207 166.887 75.3909 166.796 75.3909H163.903C163.803 75.3909 163.709 75.4207 163.622 75.4803C163.536 75.5399 163.474 75.611 163.437 75.6935L163.054 76.5187C163.017 76.6012 162.955 76.6723 162.869 76.7319C162.782 76.7915 162.693 76.8213 162.601 76.8213H160.244C160.198 76.8213 160.15 76.8121 160.1 76.7938C160.05 76.7754 160.009 76.7479 159.977 76.7112C159.945 76.6746 159.924 76.6287 159.915 76.5737C159.906 76.5187 159.919 76.4545 159.956 76.3812L163.931 67.0699ZM164.74 73.0528H165.959C166.051 73.0528 166.117 73.023 166.158 72.9634C166.199 72.9038 166.197 72.8327 166.151 72.7502C166.06 72.521 165.95 72.2528 165.822 71.9456C165.694 71.6384 165.576 71.3519 165.466 71.086C165.429 71.0035 165.388 70.9622 165.343 70.9622C165.297 70.9622 165.256 71.0035 165.219 71.086L164.534 72.7502C164.497 72.8327 164.497 72.9038 164.534 72.9634C164.571 73.023 164.639 73.0528 164.74 73.0528Z" fill="#45474B"/>
<path d="M173.594 76.8212H171.54C171.449 76.8212 171.371 76.7891 171.305 76.725C171.241 76.6608 171.209 76.5828 171.209 76.4912V67.0836C171.209 66.9919 171.241 66.914 171.305 66.8498C171.369 66.7856 171.447 66.7535 171.538 66.7535H175.801C176.331 66.7535 176.82 66.8429 177.267 67.0217C177.715 67.2005 178.097 67.4504 178.412 67.7713C178.727 68.0922 178.974 68.4728 179.152 68.9129C179.33 69.353 179.419 69.8389 179.419 70.3708C179.419 70.6642 179.385 70.9553 179.316 71.2441C179.248 71.5329 179.15 71.8057 179.022 72.0625C178.894 72.3192 178.743 72.5507 178.569 72.757C178.396 72.9633 178.199 73.1353 177.98 73.2728C177.907 73.3278 177.859 73.3943 177.836 73.4722C177.813 73.5502 177.829 73.6258 177.884 73.6992C178.231 74.1576 178.597 74.6298 178.981 75.1158C179.364 75.6017 179.707 76.0464 180.009 76.4499C180.063 76.5232 180.077 76.6035 180.05 76.6906C180.022 76.7777 179.963 76.8212 179.872 76.8212H177.322C177.231 76.8212 177.133 76.796 177.027 76.7456C176.922 76.6952 176.842 76.6333 176.788 76.5599C176.497 76.1748 176.207 75.7851 175.922 75.3909C175.636 74.9966 175.351 74.5977 175.07 74.1943C175.015 74.1209 174.937 74.059 174.839 74.0086C174.738 73.9582 174.642 73.933 174.553 73.933H174.254C174.163 73.933 174.085 73.9651 174.021 74.0292C173.957 74.0934 173.925 74.1714 173.925 74.2631V76.4912C173.925 76.5828 173.893 76.6608 173.829 76.725C173.765 76.7891 173.688 76.8212 173.596 76.8212H173.594ZM174.252 71.4023H175.698C175.808 71.4023 175.922 71.3817 176.038 71.3404C176.157 71.2991 176.267 71.235 176.365 71.1478C176.465 71.0607 176.548 70.953 176.612 70.8246C176.676 70.6963 176.708 70.545 176.708 70.3708C176.708 70.2791 176.692 70.1713 176.66 70.0475C176.628 69.9238 176.573 69.8046 176.495 69.69C176.417 69.5753 176.312 69.4791 176.182 69.4011C176.05 69.3232 175.89 69.2842 175.698 69.2842H174.252C174.16 69.2842 174.083 69.3163 174.021 69.3805C173.957 69.4447 173.925 69.5226 173.925 69.6143V71.0722C173.925 71.1639 173.957 71.2418 174.021 71.306C174.085 71.3702 174.163 71.4023 174.252 71.4023Z" fill="#45474B"/>
<path d="M76.3412 3.52555C76.5354 3.08314 76.8666 2.70491 77.3326 2.38399C77.7964 2.06537 78.299 1.90491 78.8358 1.90491H89.1089C89.5978 1.90491 90.0752 2.06537 90.539 2.38399C91.0027 2.70491 91.334 3.08314 91.5304 3.52555L112.958 53.5981C113.153 54.0405 113.116 54.5082 112.849 54.9964C112.579 55.487 112.054 55.7322 111.27 55.7322H98.7218C98.1827 55.7322 97.6824 55.5741 97.2187 55.2532C96.7526 54.9345 96.3985 54.554 96.1541 54.1116L94.1735 49.6944C93.9291 49.252 93.575 48.8737 93.1089 48.5528C92.6429 48.2342 92.1655 48.0737 91.6789 48.0737H76.195C75.6559 48.0737 75.1556 48.2342 74.6918 48.5528C74.2258 48.8737 73.8969 49.252 73.7004 49.6944L71.6467 54.1116C71.4502 54.554 71.1213 54.9345 70.6552 55.2532C70.1892 55.5718 69.7118 55.7322 69.2252 55.7322H56.6037C56.3592 55.7322 56.1034 55.6841 55.8338 55.5855C55.5665 55.487 55.345 55.3403 55.1736 55.1431C55.0023 54.9483 54.8926 54.7007 54.8424 54.4073C54.7944 54.1116 54.8675 53.7701 55.0617 53.3758L76.3412 3.52555ZM80.6725 35.5579H87.2037C87.6926 35.5579 88.0466 35.3997 88.2682 35.0788C88.4875 34.7602 88.4761 34.3797 88.2317 33.9372C87.7428 32.7109 87.1557 31.2759 86.4704 29.63C85.785 27.9865 85.15 26.4529 84.5629 25.0271C84.3664 24.5847 84.1471 24.3647 83.9027 24.3647C83.6582 24.3647 83.4367 24.5847 83.2425 25.0271L79.5737 33.9372C79.3772 34.3797 79.3772 34.7602 79.5737 35.0788C79.7678 35.3974 80.1356 35.5579 80.6748 35.5579H80.6725Z" fill="#45474B"/>
<path d="M156.403 43.9522V53.9672C156.403 54.4577 156.232 54.8772 155.889 55.2188C155.547 55.5626 155.131 55.7345 154.642 55.7345H118.025C117.486 55.7345 117.059 55.5626 116.741 55.2188C116.421 54.8749 116.264 54.4577 116.264 53.9672V3.59889C116.264 3.10834 116.421 2.69115 116.741 2.34731C117.059 2.00346 117.486 1.83154 118.025 1.83154H129.031C129.52 1.83154 129.936 2.00346 130.279 2.34731C130.621 2.69115 130.793 3.10834 130.793 3.59889V40.4175C130.793 40.9081 130.95 41.3275 131.27 41.6691C131.588 42.0129 132.015 42.1848 132.554 42.1848H154.642C155.131 42.1848 155.547 42.3568 155.889 42.7006C156.232 43.0445 156.403 43.4617 156.403 43.9522Z" fill="#45474B"/>
<path d="M199.625 3.96799L181.279 33.7906C181.034 34.233 180.813 34.7739 180.619 35.4112C180.422 36.0507 180.326 36.6146 180.326 37.1052V53.9672C180.326 54.4578 180.155 54.8773 179.815 55.2188C179.474 55.5626 179.061 55.7346 178.574 55.7346H167.549C167.063 55.7346 166.649 55.5626 166.307 55.2188C165.966 54.875 165.797 54.4578 165.797 53.9672V37.1785C165.797 36.688 165.711 36.1103 165.541 35.4479C165.37 34.7854 165.162 34.2582 164.918 33.8639C161.982 28.8094 158.985 23.8489 155.929 18.9893C152.87 14.1297 149.825 9.12333 146.793 3.96799C146.549 3.52558 146.501 3.074 146.647 2.60637C146.793 2.14104 147.113 1.90723 147.602 1.90723H160.664C161.153 1.90723 161.656 2.05393 162.17 2.34964C162.684 2.64305 163.061 3.01211 163.307 3.45452L172.301 19.2117C172.543 19.6059 172.836 19.8008 173.176 19.8008C173.516 19.8008 173.809 19.6059 174.053 19.2117L182.974 3.45452C183.218 3.01211 183.598 2.64534 184.112 2.34964C184.626 2.05393 185.126 1.90723 185.615 1.90723H198.823C199.312 1.90723 199.666 2.07915 199.888 2.42299C200.107 2.76683 200.023 3.28259 199.632 3.97028L199.625 3.96799Z" fill="#45474B"/>
<path d="M17.5144 8.78631V16.4265C15.5452 16.4265 13.6355 16.674 11.8079 17.1371C7.15452 18.3222 3.05853 20.9194 0.00195412 24.4449V8.78631C-0.000330313 3.93126 3.92205 0 8.75591 0C11.8513 0 14.5744 1.61147 16.1278 4.04588C17.0073 5.41437 17.5144 7.04189 17.5144 8.78631Z" fill="#FFCE00"/>
<path d="M52.542 8.78631V17.5726C52.542 25.497 47.3106 32.1974 40.1261 34.3911C38.511 34.8839 36.8022 35.1475 35.0272 35.1475C34.8216 35.1475 34.6206 35.143 34.4173 35.1361C34.4219 35.1407 17.5125 35.1475 17.5125 35.1475V48.5184C17.5125 52.0829 15.3948 55.1546 12.3497 56.5299C11.2531 57.0297 10.0378 57.3047 8.75624 57.3047C6.33931 57.3047 4.14853 56.3236 2.56542 54.7305C0.977738 53.1419 0 50.9436 0 48.5184V39.7321C0 31.8054 5.22679 25.1028 12.4159 22.9136C14.0264 22.4208 15.7398 22.1572 17.5148 22.1572H35.0295V8.78631C35.0295 5.21723 37.1472 2.15016 40.1878 0.774791C41.2843 0.275074 42.5019 0 43.7858 0C48.6219 0 52.542 3.93126 52.542 8.78631Z" fill="#FFCE00"/>
<path d="M52.5421 32.8599V48.5207C52.5421 53.3735 48.6197 57.307 43.7859 57.307C41.3689 57.307 39.1782 56.3259 37.5951 54.7328C37.1496 54.2904 36.7544 53.7976 36.414 53.2612C35.5345 51.8927 35.0273 50.2651 35.0273 48.5207V40.8806C36.9965 40.8806 38.9063 40.633 40.7339 40.1699C45.3873 38.9848 49.4832 36.3877 52.5398 32.8622L52.5421 32.8599Z" fill="#FFCE00"/>
</g>
<defs>
<clipPath id="clip0_550_377">
<rect width="200" height="77" fill="white"/>
</clipPath>
</defs>
</svg>
