<svg width="191" height="180" viewBox="0 0 191 180" fill="none" xmlns="http://www.w3.org/2000/svg">
<g clip-path="url(#clip0_200_1391)">
<path d="M191 95.5468L114.425 172.16C103.972 182.618 87.025 182.618 76.5753 172.16L0 95.5468C5.264 90.2802 12.1648 87.6469 19.0656 87.6438C25.9664 87.6438 32.8671 90.2802 38.1311 95.5468L76.5753 134.01C87.0281 144.468 103.975 144.468 114.425 134.01L152.869 95.5468C163.397 85.0136 180.469 85.0136 191 95.5468Z" fill="#3F7B48"/>
<path d="M152.347 57.5722L114.391 95.5467C103.863 106.08 86.7912 106.08 76.2601 95.5467C76.2006 95.4904 76.1411 95.4309 76.0848 95.3714L38.1289 57.3969C43.3929 52.1303 50.2937 49.497 57.1945 49.4939C64.0953 49.4939 70.9961 52.1303 76.2601 57.3969L84.5504 65.6913C90.4998 71.6436 100.148 71.6436 106.098 65.6913L114.213 57.5722C124.741 47.0391 141.813 47.0391 152.344 57.5722H152.347Z" fill="#94B692"/>
<path d="M95.4991 0L103.21 7.71514C109.482 13.9899 109.482 24.163 103.21 30.4378L95.4991 38.153L87.7878 30.4378C81.5161 24.163 81.5161 13.9899 87.7878 7.71514L95.4991 0Z" fill="#CD8C5E"/>
</g>
<defs>
<clipPath id="clip0_200_1391">
<rect width="191" height="180" fill="white"/>
</clipPath>
</defs>
</svg>
