<svg width="140" height="115" viewBox="0 0 140 115" fill="none" xmlns="http://www.w3.org/2000/svg">
<path d="M0 102.372V79.1797H1.29383C3.58283 79.1797 5.43783 81.0314 5.43783 83.3164V106.508H4.144C1.855 106.508 0 104.657 0 102.372Z" fill="white"/>
<path d="M10.8389 92.5331C9.62902 90.6953 10.455 88.1973 12.534 87.4705C12.5504 87.4647 12.5655 87.4601 12.5819 87.4542C14.1697 86.9057 15.8135 86.6309 17.5133 86.6309C19.0883 86.6309 20.4825 86.9674 21.6947 87.6417C22.9068 88.316 23.8448 89.264 24.5075 90.4869C25.1702 91.7097 25.5015 93.1201 25.5015 94.7179V106.511H21.8265C20.8535 106.511 20.0637 105.723 20.0637 104.751C19.5632 105.35 18.8317 105.831 17.8692 106.193C16.9067 106.554 15.887 106.736 14.8125 106.736C12.6869 106.736 10.9684 106.15 9.65585 104.976C8.34336 103.803 7.68652 102.268 7.68652 100.371C7.68652 99.098 8.05519 97.9753 8.79252 97.0017C9.52986 96.0281 10.567 95.2793 11.9052 94.7552C13.2422 94.2311 14.7869 93.9691 16.5368 93.9691C17.2123 93.9691 17.868 94.0133 18.5062 94.1007C19.1432 94.188 19.6623 94.3068 20.0625 94.4559C20.087 93.6325 19.8058 92.9652 19.219 92.4527C18.631 91.9415 17.8622 91.6853 16.9125 91.6853C16.0877 91.6853 15.1812 91.8541 14.1942 92.1907C13.206 92.5273 12.3124 92.9838 11.512 93.5568L10.8389 92.5343V92.5331ZM18.3942 101.437C19.156 101.024 19.7125 100.494 20.0625 99.8457V98.9466C19.6623 98.7964 19.1933 98.6788 18.6567 98.5914C18.1188 98.5041 17.5997 98.4598 17.1003 98.4598C15.95 98.4598 15.0307 98.6345 14.3435 98.9839C13.6552 99.3333 13.3122 99.7956 13.3122 100.369C13.3122 100.868 13.556 101.274 14.0437 101.586C14.5314 101.898 15.1625 102.054 15.9383 102.054C16.8133 102.054 17.6312 101.848 18.3942 101.437Z" fill="white"/>
<path d="M33.228 78.8804C34.6536 80.4782 35.3653 81.8886 35.3653 83.1102C35.3653 85.7062 33.7646 87.9771 30.5645 89.9244L30.5353 89.8987C29.4048 88.9135 29.0373 87.3273 29.5821 85.9309C29.7618 85.4686 29.8516 84.9899 29.8516 84.4961C29.8516 84.3086 29.8271 84.1106 29.777 83.9022C29.4235 82.4266 30.0021 80.887 31.2925 80.0846L33.228 78.8815V78.8804Z" fill="white"/>
<path d="M58.9928 87.042L51.2765 104.614C50.7702 105.765 49.6303 106.51 48.3703 106.51C47.115 106.51 45.9833 105.786 45.463 104.657C43.2253 99.7945 37.3535 87.042 37.3535 87.042H40.7707C42.4098 87.042 43.895 88.0063 44.56 89.5028L48.4555 98.2735L52.148 89.5669C52.7967 88.0366 54.3005 87.042 55.9642 87.042H58.994H58.9928Z" fill="white"/>
<path d="M76.957 102.915C76.0319 104.089 74.801 105.03 73.2634 105.742C71.7257 106.454 70.1565 106.809 68.557 106.809C66.4571 106.809 64.6126 106.391 63.0247 105.554C61.4369 104.718 60.2061 103.54 59.3311 102.016C58.4561 100.494 58.0186 98.7345 58.0186 96.7372C58.0186 94.7399 58.4374 92.9744 59.2751 91.4394C60.1127 89.9045 61.3004 88.7189 62.8381 87.8827C64.3757 87.0465 66.1444 86.6284 68.1452 86.6284C69.9955 86.6284 71.6207 87.0023 73.0207 87.7511C74.4207 88.4999 75.508 89.5481 76.2839 90.8955C77.0585 92.243 77.447 93.8036 77.447 95.5749C77.4447 97.3044 76.026 98.7194 74.2924 98.7194H63.7201C63.9452 99.6429 64.5076 100.379 65.4082 100.929C66.3077 101.478 67.3834 101.752 68.6329 101.752C69.6327 101.752 70.5952 101.559 71.5204 101.172C71.5297 101.169 71.5391 101.164 71.5484 101.16C73.1012 100.504 74.8932 100.827 76.0785 102.025L76.9582 102.913L76.957 102.915ZM65.4059 92.1894C64.6557 92.6518 64.1307 93.269 63.8309 94.0423H71.8191C71.6184 93.269 71.1622 92.6506 70.4505 92.1894C69.7377 91.7282 68.9059 91.4965 67.9562 91.4965C67.0065 91.4965 66.1561 91.7271 65.4059 92.1894Z" fill="white"/>
<path d="M98.22 104.824C98.22 106.696 97.8315 108.349 97.0568 109.784C96.281 111.219 95.1937 112.336 93.7937 113.135C92.3925 113.934 90.7802 114.333 88.9555 114.333C86.8298 114.333 84.9363 113.841 83.2738 112.854C81.6288 111.878 80.5042 110.604 79.8998 109.031C79.8893 109.002 79.9033 108.969 79.9313 108.957L82.1177 108.047C83.3812 107.52 84.8138 107.705 85.935 108.49C85.9455 108.497 85.956 108.504 85.9653 108.511C86.8287 109.104 87.8857 109.331 88.931 109.262C90.002 109.193 90.8852 108.892 91.5805 108.361C92.3808 107.748 92.781 106.932 92.781 105.908V105.221C92.781 105.169 92.7133 105.144 92.6818 105.186C92.3248 105.648 91.7777 106.026 91.038 106.321C90.2248 106.644 89.344 106.807 88.3943 106.807C86.5195 106.807 84.8687 106.389 83.4442 105.553C82.0185 104.717 80.9125 103.538 80.125 102.015C79.3375 100.493 78.9443 98.7332 78.9443 96.7359C78.9443 94.7386 79.3375 93.0231 80.125 91.5138C80.9125 90.0045 82.0185 88.8375 83.4442 88.013C84.8698 87.1896 86.5195 86.7773 88.3943 86.7773C89.2693 86.7773 90.107 86.8705 90.9073 87.058C91.6575 87.2339 92.2537 87.4691 92.6958 87.7649C92.7332 87.7906 92.7822 87.7649 92.7822 87.7184V87.0941C92.7822 87.0627 92.8078 87.0382 92.8382 87.0382H95.4573C96.9833 87.0382 98.22 88.2727 98.22 89.796V104.821V104.824ZM91.451 101.156C92.0857 100.758 92.5278 100.238 92.7787 99.5939C92.781 99.5869 92.7822 99.5799 92.7822 99.5729V93.1291C92.7822 93.1151 92.7775 93.1012 92.7682 93.0907C92.4438 92.7238 91.9667 92.4234 91.339 92.1893C90.702 91.9529 90.0195 91.8341 89.295 91.8341C87.8705 91.8341 86.726 92.2894 85.8638 93.2002C85.0017 94.1121 84.57 95.3151 84.57 96.8128C84.57 98.3105 85.0075 99.4774 85.8825 100.388C86.7575 101.3 87.9078 101.754 89.3323 101.754C90.107 101.754 90.814 101.555 91.451 101.156Z" fill="white"/>
<path d="M103.623 92.5331C102.413 90.6953 103.239 88.1973 105.318 87.4705C105.335 87.4647 105.35 87.4601 105.366 87.4542C106.954 86.9057 108.598 86.6309 110.298 86.6309C111.873 86.6309 113.267 86.9674 114.479 87.6417C115.691 88.316 116.629 89.264 117.292 90.4869C117.954 91.7097 118.286 93.1201 118.286 94.7179V106.511H114.611C113.638 106.511 112.848 105.723 112.848 104.751C112.347 105.35 111.616 105.831 110.653 106.193C109.691 106.554 108.671 106.736 107.597 106.736C105.471 106.736 103.753 106.15 102.44 104.976C101.128 103.803 100.471 102.268 100.471 100.371C100.471 99.098 100.839 97.9753 101.577 97.0017C102.314 96.0281 103.351 95.2793 104.689 94.7552C106.026 94.2311 107.571 93.9691 109.321 93.9691C109.997 93.9691 110.652 94.0133 111.29 94.1007C111.927 94.188 112.447 94.3068 112.847 94.4559C112.871 93.6325 112.59 92.9652 112.003 92.4527C111.415 91.9415 110.646 91.6853 109.697 91.6853C108.872 91.6853 107.965 91.8541 106.978 92.1907C105.99 92.5273 105.097 92.9838 104.296 93.5568L103.623 92.5343V92.5331ZM111.178 101.437C111.94 101.024 112.497 100.494 112.847 99.8457V98.9466C112.447 98.7964 111.978 98.6788 111.441 98.5914C110.903 98.5041 110.384 98.4598 109.885 98.4598C108.734 98.4598 107.815 98.6345 107.128 98.9839C106.439 99.3333 106.096 99.7956 106.096 100.369C106.096 100.868 106.34 101.274 106.828 101.586C107.316 101.898 107.947 102.054 108.723 102.054C109.598 102.054 110.415 101.848 111.178 101.437Z" fill="white"/>
<path d="M124.311 87.042H126.987V88.4267C127.437 87.9026 128.15 87.4787 129.124 87.1538C130.099 86.83 131.161 86.667 132.311 86.667C133.836 86.667 135.18 87.035 136.343 87.771C137.506 88.5071 138.406 89.5494 139.044 90.8969C139.682 92.2443 140.001 93.8049 140.001 95.5763V102.371C140.001 104.656 138.146 106.507 135.857 106.507H134.563V95.9128C134.563 94.6655 134.213 93.6547 133.513 92.8802C132.813 92.1069 131.888 91.7191 130.737 91.7191C129.937 91.7191 129.194 91.9566 128.506 92.4306C127.817 92.9046 127.311 93.5289 126.987 94.3022V102.369C126.987 104.654 125.132 106.506 122.843 106.506H121.549V89.7963C121.549 88.273 122.786 87.0385 124.311 87.0385V87.042Z" fill="white"/>
<path d="M105.506 35.5381L76.9603 64.0338C73.0637 67.9236 66.7462 67.9236 62.8507 64.0338L34.3047 35.5381C36.267 33.5792 38.8395 32.5998 41.412 32.5986C43.9845 32.5986 46.557 33.5792 48.5193 35.5381L62.8507 49.8442C66.7473 53.734 73.0648 53.734 76.9603 49.8442L91.2916 35.5381C95.2163 31.6204 101.58 31.6204 105.506 35.5381Z" fill="white"/>
<path d="M91.0972 21.4139L76.9479 35.5383C73.0232 39.456 66.659 39.456 62.7332 35.5383C62.711 35.5173 62.6889 35.4952 62.6679 35.473L48.5186 21.3487C50.4809 19.3898 53.0534 18.4103 55.6259 18.4092C58.1984 18.4092 60.7709 19.3898 62.7332 21.3487L65.8237 24.4337C68.0415 26.6476 71.6384 26.6476 73.8562 24.4337L76.8814 21.4139C80.806 17.4961 87.1702 17.4961 91.096 21.4139H91.0972Z" fill="white"/>
<path d="M69.9055 0L72.7802 2.8696C75.1182 5.20348 75.1182 8.98729 72.7802 11.3212L69.9055 14.1908L67.0308 11.3212C64.6928 8.98729 64.6928 5.20348 67.0308 2.8696L69.9055 0Z" fill="white"/>
</svg>
