<svg width="140" height="114" viewBox="0 0 140 114" fill="none" xmlns="http://www.w3.org/2000/svg">
<g clip-path="url(#clip0_550_469)">
<path d="M0 102.073V78.9487H1.29383C3.58283 78.9487 5.43783 80.7951 5.43783 83.0734V106.198H4.144C1.855 106.198 0 104.351 0 102.073Z" fill="#3F7B48"/>
<path d="M10.8398 92.2632C9.63 90.4308 10.456 87.94 12.535 87.2154C12.5513 87.2096 12.5665 87.205 12.5828 87.1992C14.1707 86.6522 15.8145 86.3782 17.5143 86.3782C19.0893 86.3782 20.4835 86.7138 21.6957 87.3861C22.9078 88.0585 23.8458 89.0037 24.5085 90.223C25.1712 91.4422 25.5025 92.8485 25.5025 94.4417V106.2H21.8275C20.8545 106.2 20.0647 105.415 20.0647 104.446C19.5642 105.042 18.8327 105.522 17.8702 105.883C16.9077 106.243 15.888 106.424 14.8135 106.424C12.6878 106.424 10.9693 105.84 9.65683 104.67C8.34433 103.5 7.6875 101.97 7.6875 100.078C7.6875 98.809 8.05617 97.6896 8.7935 96.7188C9.53083 95.748 10.568 95.0014 11.9062 94.4788C13.2432 93.9563 14.7878 93.695 16.5378 93.695C17.2133 93.695 17.869 93.7391 18.5072 93.8262C19.1442 93.9133 19.6633 94.0317 20.0635 94.1804C20.088 93.3594 19.8068 92.694 19.22 92.1831C18.632 91.6733 17.8632 91.4179 16.9135 91.4179C16.0887 91.4179 15.1822 91.5862 14.1952 91.9218C13.207 92.2574 12.3133 92.7126 11.513 93.2839L10.8398 92.2644V92.2632ZM18.3952 101.141C19.157 100.73 19.7135 100.201 20.0635 99.5545V98.658C19.6633 98.5082 19.1943 98.3909 18.6577 98.3039C18.1198 98.2168 17.6007 98.1726 17.1013 98.1726C15.951 98.1726 15.0317 98.3468 14.3445 98.6952C13.6562 99.0436 13.3132 99.5046 13.3132 100.076C13.3132 100.574 13.557 100.978 14.0447 101.289C14.5323 101.601 15.1635 101.756 15.9393 101.756C16.8143 101.756 17.6322 101.551 18.3952 101.141Z" fill="#3F7B48"/>
<path d="M33.228 78.6503C34.6536 80.2435 35.3653 81.6497 35.3653 82.8678C35.3653 85.4562 33.7646 87.7205 30.5645 89.6621L30.5353 89.6365C29.4048 88.6541 29.0373 87.0726 29.5821 85.6803C29.7618 85.2193 29.8516 84.742 29.8516 84.2497C29.8516 84.0627 29.8271 83.8653 29.777 83.6574C29.4235 82.1862 30.0021 80.651 31.2925 79.851L33.228 78.6514V78.6503Z" fill="#94B692"/>
<path d="M58.9928 86.7881L51.2765 104.309C50.7702 105.457 49.6303 106.199 48.3703 106.199C47.115 106.199 45.9833 105.478 45.463 104.351C43.2253 99.5034 37.3535 86.7881 37.3535 86.7881H40.7707C42.4098 86.7881 43.895 87.7496 44.56 89.2417L48.4555 97.9868L52.148 89.3056C52.7967 87.7798 54.3005 86.7881 55.9642 86.7881H58.994H58.9928Z" fill="#3F7B48"/>
<path d="M76.9571 102.615C76.0319 103.786 74.8011 104.724 73.2634 105.434C71.7257 106.143 70.1566 106.497 68.5571 106.497C66.4571 106.497 64.6126 106.081 63.0247 105.247C61.4369 104.413 60.2061 103.238 59.3311 101.719C58.4561 100.201 58.0186 98.4467 58.0186 96.4552C58.0186 94.4637 58.4374 92.7033 59.2751 91.1728C60.1127 89.6424 61.3004 88.4602 62.8381 87.6265C64.3757 86.7927 66.1444 86.3759 68.1452 86.3759C69.9956 86.3759 71.6207 86.7486 73.0207 87.4953C74.4207 88.2419 75.5081 89.287 76.2839 90.6305C77.0586 91.9741 77.4471 93.5301 77.4471 95.2963C77.4447 97.0207 76.0261 98.4316 74.2924 98.4316H63.7201C63.9452 99.3524 64.5076 100.086 65.4082 100.634C66.3077 101.183 67.3834 101.455 68.6329 101.455C69.6327 101.455 70.5952 101.263 71.5204 100.877C71.5297 100.874 71.5391 100.869 71.5484 100.865C73.1012 100.211 74.8932 100.533 76.0786 101.727L76.9582 102.613L76.9571 102.615ZM65.4059 91.9207C64.6557 92.3817 64.1307 92.9971 63.8309 93.7681H71.8191C71.6184 92.9971 71.1622 92.3805 70.4506 91.9207C69.7377 91.4608 68.9059 91.2297 67.9562 91.2297C67.0066 91.2297 66.1561 91.4597 65.4059 91.9207Z" fill="#3F7B48"/>
<path d="M98.221 104.519C98.221 106.385 97.8325 108.034 97.0578 109.464C96.282 110.895 95.1946 112.009 93.7946 112.805C92.3935 113.602 90.7811 114 88.9565 114C86.8308 114 84.9373 113.509 83.2748 112.525C81.6298 111.552 80.5051 110.282 79.9008 108.713C79.8903 108.684 79.9043 108.651 79.9323 108.64L82.1186 107.732C83.3821 107.207 84.8148 107.392 85.936 108.174C85.9465 108.181 85.957 108.188 85.9663 108.195C86.8296 108.786 87.8867 109.013 88.932 108.944C90.003 108.874 90.8861 108.575 91.5815 108.045C92.3818 107.435 92.782 106.621 92.782 105.6V104.915C92.782 104.862 92.7143 104.838 92.6828 104.88C92.3258 105.34 91.7787 105.717 91.039 106.011C90.2258 106.334 89.345 106.496 88.3953 106.496C86.5205 106.496 84.8696 106.079 83.4451 105.246C82.0195 104.412 80.9135 103.237 80.126 101.718C79.3385 100.2 78.9453 98.4456 78.9453 96.4541C78.9453 94.4626 79.3385 92.7521 80.126 91.2472C80.9135 89.7423 82.0195 88.5787 83.4451 87.7566C84.8708 86.9356 86.5205 86.5245 88.3953 86.5245C89.2703 86.5245 90.108 86.6174 90.9083 86.8044C91.6585 86.9797 92.2546 87.2143 92.6968 87.5092C92.7341 87.5348 92.7832 87.5092 92.7832 87.4628V86.8404C92.7832 86.809 92.8088 86.7846 92.8391 86.7846H95.4583C96.9843 86.7846 98.221 88.0155 98.221 89.5344V104.515V104.519ZM91.452 100.861C92.0866 100.465 92.5288 99.9459 92.7796 99.3037C92.782 99.2967 92.7832 99.2898 92.7832 99.2828V92.8578C92.7832 92.8439 92.7785 92.8299 92.7691 92.8195C92.4448 92.4537 91.9676 92.1541 91.34 91.9207C90.703 91.685 90.0205 91.5665 89.296 91.5665C87.8715 91.5665 86.727 92.0206 85.8648 92.9286C85.0026 93.8379 84.571 95.0374 84.571 96.5307C84.571 98.0241 85.0085 99.1876 85.8835 100.096C86.7585 101.005 87.9088 101.458 89.3333 101.458C90.108 101.458 90.815 101.259 91.452 100.861Z" fill="#3F7B48"/>
<path d="M103.623 92.2632C102.413 90.4308 103.239 87.94 105.318 87.2154C105.335 87.2096 105.35 87.205 105.366 87.1992C106.954 86.6522 108.598 86.3782 110.298 86.3782C111.873 86.3782 113.267 86.7138 114.479 87.3861C115.691 88.0585 116.629 89.0037 117.292 90.223C117.954 91.4422 118.286 92.8485 118.286 94.4417V106.2H114.611C113.638 106.2 112.848 105.415 112.848 104.446C112.347 105.042 111.616 105.522 110.653 105.883C109.691 106.243 108.671 106.424 107.597 106.424C105.471 106.424 103.753 105.84 102.44 104.67C101.128 103.5 100.471 101.97 100.471 100.078C100.471 98.809 100.839 97.6896 101.577 96.7188C102.314 95.748 103.351 95.0014 104.689 94.4788C106.026 93.9563 107.571 93.695 109.321 93.695C109.997 93.695 110.652 93.7391 111.29 93.8262C111.927 93.9133 112.447 94.0317 112.847 94.1804C112.871 93.3594 112.59 92.694 112.003 92.1831C111.415 91.6733 110.646 91.4179 109.697 91.4179C108.872 91.4179 107.965 91.5862 106.978 91.9218C105.99 92.2574 105.097 92.7126 104.296 93.2839L103.623 92.2644V92.2632ZM111.178 101.141C111.94 100.73 112.497 100.201 112.847 99.5545V98.658C112.447 98.5082 111.978 98.3909 111.441 98.3039C110.903 98.2168 110.384 98.1726 109.885 98.1726C108.734 98.1726 107.815 98.3468 107.128 98.6952C106.439 99.0436 106.096 99.5046 106.096 100.076C106.096 100.574 106.34 100.978 106.828 101.289C107.316 101.601 107.947 101.756 108.723 101.756C109.598 101.756 110.415 101.551 111.178 101.141Z" fill="#3F7B48"/>
<path d="M124.311 86.7881H126.986V88.1688C127.436 87.6462 128.149 87.2236 129.123 86.8996C130.098 86.5768 131.16 86.4142 132.31 86.4142C133.835 86.4142 135.179 86.7811 136.342 87.515C137.506 88.2489 138.405 89.2882 139.043 90.6317C139.681 91.9752 140 93.5313 140 95.2975V102.072C140 104.35 138.145 106.197 135.856 106.197H134.562V95.6331C134.562 94.3894 134.212 93.3815 133.512 92.6093C132.812 91.8382 131.887 91.4515 130.737 91.4515C129.936 91.4515 129.193 91.6884 128.505 92.161C127.816 92.6337 127.31 93.2561 126.986 94.0271V102.071C126.986 104.349 125.131 106.195 122.842 106.195H121.548V89.5344C121.548 88.0155 122.785 86.7846 124.311 86.7846V86.7881Z" fill="#3F7B48"/>
<path d="M105.506 35.4344L76.9604 63.8471C73.0637 67.7255 66.7462 67.7255 62.8507 63.8471L34.3047 35.4344C36.267 33.4813 38.8395 32.5047 41.412 32.5035C43.9845 32.5035 46.557 33.4813 48.5194 35.4344L62.8507 49.6988C66.7474 53.5773 73.0649 53.5773 76.9604 49.6988L91.2917 35.4344C95.2164 31.5281 101.581 31.5281 105.506 35.4344Z" fill="#3F7B48"/>
<path d="M91.0972 21.3513L76.9479 35.4345C73.0232 39.3408 66.6591 39.3408 62.7332 35.4345C62.7111 35.4136 62.6889 35.3915 62.6679 35.3695L48.5186 21.2863C50.4809 19.3331 53.0534 18.3565 55.6259 18.3553C58.1984 18.3553 60.7709 19.3331 62.7332 21.2863L65.8237 24.3623C68.0416 26.5698 71.6384 26.5698 73.8562 24.3623L76.8814 21.3513C80.8061 17.445 87.1702 17.445 91.0961 21.3513H91.0972Z" fill="#94B692"/>
<path d="M69.9055 0L72.7802 2.86123C75.1182 5.18831 75.1182 8.9611 72.7802 11.2882L69.9055 14.1494L67.0308 11.2882C64.6928 8.9611 64.6928 5.18831 67.0308 2.86123L69.9055 0Z" fill="#CD8C5E"/>
</g>
<defs>
<clipPath id="clip0_550_469">
<rect width="140" height="114" fill="white"/>
</clipPath>
</defs>
</svg>
