<svg width="600" height="180" viewBox="0 0 600 180" fill="none" xmlns="http://www.w3.org/2000/svg">
<g clip-path="url(#clip0_641_1199)">
<path d="M240.029 109.143V49.4014H243.354C249.239 49.4014 254.009 54.1715 254.009 60.0567V119.798H250.684C244.799 119.798 240.029 115.028 240.029 109.143Z" fill="#3F7B48"/>
<path d="M267.9 83.7972C264.79 79.0621 266.91 72.6269 272.255 70.7569C272.295 70.7419 272.335 70.7269 272.375 70.7119C276.455 69.2968 280.685 68.5918 285.055 68.5918C289.105 68.5918 292.69 69.4618 295.805 71.1969C298.92 72.9319 301.335 75.377 303.035 78.5271C304.74 81.6772 305.59 85.3123 305.59 89.4224V119.798H296.14C293.635 119.798 291.61 117.768 291.61 115.268C290.325 116.813 288.445 118.048 285.97 118.978C283.495 119.908 280.875 120.378 278.11 120.378C272.645 120.378 268.225 118.868 264.85 115.848C261.475 112.828 259.785 108.873 259.785 103.988C259.785 100.708 260.735 97.8176 262.63 95.3075C264.525 92.8025 267.195 90.8724 270.635 89.5224C274.075 88.1723 278.045 87.4973 282.545 87.4973C284.28 87.4973 285.97 87.6123 287.61 87.8373C289.25 88.0623 290.58 88.3673 291.61 88.7524C291.675 86.6323 290.95 84.9123 289.44 83.5922C287.93 82.2772 285.95 81.6172 283.51 81.6172C281.39 81.6172 279.06 82.0522 276.52 82.9172C273.98 83.7872 271.68 84.9573 269.625 86.4373L267.895 83.8022L267.9 83.7972ZM287.325 106.733C289.285 105.673 290.715 104.308 291.615 102.633V100.318C290.585 99.9327 289.38 99.6277 288 99.4027C286.615 99.1777 285.285 99.0626 284 99.0626C281.04 99.0626 278.68 99.5127 276.91 100.413C275.14 101.313 274.26 102.503 274.26 103.983C274.26 105.268 274.885 106.313 276.14 107.118C277.395 107.923 279.015 108.323 281.01 108.323C283.26 108.323 285.365 107.793 287.325 106.733Z" fill="#3F7B48"/>
<path d="M325.465 48.6313C329.13 52.7465 330.96 56.3766 330.96 59.5267C330.96 66.2118 326.845 72.062 318.615 77.0771L318.54 77.0121C315.63 74.4721 314.69 70.387 316.09 66.7919C316.555 65.6018 316.785 64.3718 316.785 63.0967C316.785 62.6167 316.72 62.1067 316.59 61.5667C315.68 57.7666 317.17 53.8015 320.485 51.7314L325.46 48.6313H325.465Z" fill="#94B692"/>
<path d="M391.708 69.6519L371.868 114.913C370.568 117.878 367.633 119.798 364.393 119.798C361.163 119.798 358.258 117.933 356.918 115.023C351.163 102.498 336.068 69.6519 336.068 69.6519H344.853C349.068 69.6519 352.888 72.1369 354.593 75.987L364.608 98.5777L374.103 76.152C375.773 72.2119 379.638 69.6519 383.918 69.6519H391.708Z" fill="#3F7B48"/>
<path d="M437.899 110.538C435.519 113.558 432.354 115.988 428.399 117.818C424.444 119.648 420.409 120.568 416.299 120.568C410.899 120.568 406.159 119.493 402.074 117.338C397.989 115.183 394.824 112.148 392.574 108.223C390.324 104.303 389.199 99.7677 389.199 94.6275C389.199 89.4874 390.274 84.9373 392.429 80.9821C394.584 77.027 397.634 73.9769 401.589 71.8219C405.544 69.6668 410.089 68.5918 415.234 68.5918C419.989 68.5918 424.169 69.5568 427.769 71.4869C431.369 73.4169 434.164 76.117 436.159 79.5871C438.149 83.0572 439.149 87.0773 439.149 91.6424C439.144 96.0976 435.494 99.7427 431.039 99.7427H403.854C404.434 102.123 405.879 104.018 408.194 105.433C410.509 106.848 413.274 107.553 416.489 107.553C419.059 107.553 421.534 107.058 423.914 106.058C423.939 106.048 423.959 106.038 423.984 106.028C427.974 104.338 432.584 105.173 435.634 108.253L437.894 110.543L437.899 110.538ZM408.199 82.9122C406.269 84.1022 404.919 85.6923 404.149 87.6873H424.689C424.174 85.6973 422.999 84.1022 421.169 82.9122C419.339 81.7222 417.199 81.1271 414.754 81.1271C412.309 81.1271 410.124 81.7222 408.199 82.9122Z" fill="#3F7B48"/>
<path d="M492.574 115.458C492.574 120.278 491.579 124.538 489.584 128.234C487.589 131.929 484.794 134.804 481.194 136.864C477.594 138.919 473.444 139.949 468.754 139.949C463.289 139.949 458.419 138.679 454.144 136.139C449.914 133.624 447.024 130.344 445.469 126.294C445.439 126.219 445.479 126.134 445.549 126.104L451.174 123.758C454.424 122.403 458.109 122.878 460.989 124.898C461.014 124.918 461.044 124.933 461.069 124.953C463.289 126.479 466.004 127.064 468.694 126.889C471.449 126.709 473.719 125.934 475.504 124.568C477.559 122.993 478.589 120.888 478.589 118.253V116.483C478.589 116.348 478.414 116.283 478.334 116.393C477.419 117.578 476.009 118.553 474.104 119.313C472.014 120.148 469.749 120.568 467.304 120.568C462.484 120.568 458.239 119.493 454.574 117.338C450.909 115.183 448.064 112.148 446.039 108.223C444.014 104.303 443.004 99.7678 443.004 94.6276C443.004 89.4875 444.014 85.0674 446.039 81.1773C448.064 77.2872 450.909 74.2821 454.574 72.162C458.239 70.042 462.479 68.9819 467.304 68.9819C469.554 68.9819 471.709 69.2219 473.764 69.707C475.694 70.157 477.224 70.767 478.364 71.527C478.459 71.592 478.589 71.527 478.589 71.407V69.802C478.589 69.722 478.654 69.6569 478.734 69.6569H485.469C489.394 69.6569 492.574 72.837 492.574 76.7621V115.463V115.458ZM475.169 106.008C476.799 104.988 477.939 103.643 478.584 101.983C478.589 101.963 478.594 101.948 478.594 101.928V85.3324C478.594 85.2974 478.579 85.2624 478.559 85.2324C477.724 84.2874 476.499 83.5123 474.884 82.9123C473.244 82.3023 471.494 81.9973 469.629 81.9973C465.964 81.9973 463.024 83.1723 460.804 85.5174C458.584 87.8675 457.479 90.9675 457.479 94.8227C457.479 98.6778 458.604 101.688 460.854 104.033C463.104 106.383 466.059 107.553 469.724 107.553C471.714 107.553 473.534 107.038 475.174 106.008H475.169Z" fill="#3F7B48"/>
<path d="M506.465 83.7972C503.355 79.0621 505.475 72.6269 510.82 70.7569C510.86 70.7419 510.9 70.7269 510.94 70.7119C515.02 69.2968 519.25 68.5918 523.62 68.5918C527.67 68.5918 531.255 69.4618 534.37 71.1969C537.485 72.9319 539.9 75.377 541.6 78.5271C543.305 81.6772 544.155 85.3123 544.155 89.4224V119.798H534.705C532.2 119.798 530.175 117.768 530.175 115.268C528.89 116.813 527.01 118.048 524.535 118.978C522.06 119.908 519.44 120.378 516.675 120.378C511.21 120.378 506.79 118.868 503.415 115.848C500.04 112.828 498.35 108.873 498.35 103.988C498.35 100.708 499.3 97.8176 501.195 95.3075C503.09 92.8025 505.76 90.8724 509.2 89.5224C512.64 88.1723 516.61 87.4973 521.11 87.4973C522.845 87.4973 524.535 87.6123 526.175 87.8373C527.815 88.0623 529.145 88.3673 530.175 88.7524C530.24 86.6323 529.515 84.9123 528.005 83.5922C526.495 82.2772 524.515 81.6172 522.075 81.6172C519.955 81.6172 517.625 82.0522 515.085 82.9172C512.545 83.7872 510.245 84.9573 508.19 86.4373L506.46 83.8022L506.465 83.7972ZM525.895 106.733C527.855 105.673 529.285 104.308 530.185 102.633V100.318C529.155 99.9327 527.95 99.6277 526.57 99.4027C525.185 99.1777 523.855 99.0626 522.57 99.0626C519.61 99.0626 517.25 99.5127 515.48 100.413C513.71 101.313 512.83 102.503 512.83 103.983C512.83 105.268 513.455 106.313 514.71 107.118C515.965 107.923 517.585 108.323 519.58 108.323C521.83 108.323 523.935 107.793 525.895 106.733Z" fill="#3F7B48"/>
<path d="M559.659 69.652H566.539V73.2221C567.694 71.8721 569.529 70.7821 572.034 69.9421C574.544 69.107 577.274 68.687 580.229 68.687C584.149 68.687 587.604 69.637 590.594 71.5321C593.584 73.4271 595.899 76.1122 597.539 79.5823C599.179 83.0524 599.999 87.0725 599.999 91.6377V109.138C599.999 115.023 595.229 119.793 589.344 119.793H586.019V92.5027C586.019 89.2876 585.119 86.6875 583.319 84.6925C581.519 82.7024 579.139 81.7024 576.184 81.7024C574.124 81.7024 572.214 82.3124 570.449 83.5324C568.679 84.7525 567.379 86.3625 566.544 88.3526V109.133C566.544 115.018 561.774 119.788 555.889 119.788H552.564V76.7472C552.564 72.8221 555.744 69.642 559.669 69.642L559.659 69.652Z" fill="#3F7B48"/>
<path d="M191.085 95.5426L114.475 172.155C104.02 182.61 87.065 182.61 76.61 172.155L0 95.5426C5.265 90.2774 12.17 87.6424 19.075 87.6424C25.98 87.6424 32.88 90.2774 38.15 95.5426L76.61 134.004C87.065 144.459 104.02 144.459 114.475 134.004L152.935 95.5426C163.47 85.0073 180.55 85.0073 191.08 95.5426H191.085Z" fill="#3F7B48"/>
<path d="M152.41 57.5716L114.44 95.5426C103.905 106.078 86.8254 106.078 76.2954 95.5426C76.2354 95.4826 76.1754 95.4276 76.1204 95.3676L38.1504 57.3966C43.4154 52.1314 50.3204 49.4963 57.2254 49.4963C64.1304 49.4963 71.0304 52.1314 76.3004 57.3966L84.5954 65.6918C90.5504 71.647 100.2 71.647 106.155 65.6918L114.275 57.5716C124.81 47.0363 141.89 47.0363 152.42 57.5716H152.41Z" fill="#94B692"/>
<path d="M95.5404 0L103.255 7.71521C109.53 13.9904 109.53 24.1607 103.255 30.4358L95.5404 38.1511L87.8254 30.4358C81.5504 24.1607 81.5504 13.9904 87.8254 7.71521L95.5404 0Z" fill="#CD8C5E"/>
</g>
<defs>
<clipPath id="clip0_641_1199">
<rect width="600" height="180" fill="white"/>
</clipPath>
</defs>
</svg>
