<svg width="80" height="115" viewBox="0 0 80 115" fill="none" xmlns="http://www.w3.org/2000/svg">
<path d="M76.0858 15.4074C78.4145 17.568 79.7386 20.4946 80.0001 23.6688V57.2167C79.7224 61.216 77.8011 64.4169 74.6054 66.7279C72.102 68.5389 68.8601 70.0757 66.1425 71.6414C62.1286 73.9547 58.1644 76.3953 54.1031 78.6299C44.2906 84.0307 32.8681 80.2905 31.5811 68.4938L31.6135 42.4957C31.7605 42.1902 32.213 42.7179 32.3716 42.866C34.1169 44.4942 35.8797 46.3643 37.5764 48.07C41.5487 52.0636 45.4468 56.1763 49.551 60.0426C49.8218 60.2984 50.0464 60.6097 50.3241 60.8585C54.9063 64.9573 61.7235 62.342 62.4712 56.3453L62.4839 7.48972C62.5406 7.34275 62.6795 7.29647 62.8207 7.3578C65.2246 8.79275 67.7119 10.0912 70.1263 11.5064C72.0198 12.6162 74.5094 13.9447 76.0858 15.4074Z" fill="white"/>
<path d="M44.2871 3.65466C46.4445 5.72261 47.8415 8.51152 48.2999 11.4694C48.5672 20.4216 48.3392 29.4017 48.4191 38.3644C48.3357 39.1999 47.6899 38.2024 47.4931 38.0114C41.823 32.5019 36.4341 26.6787 30.6575 21.2433C29.7582 20.3973 29.1945 19.6509 28.0487 19.0515C23.4838 16.6618 18.007 19.7053 17.5255 24.7682L17.5301 73.4097C17.5128 73.6191 17.5012 73.7985 17.2385 73.758C13.7535 71.6553 10.1077 69.8153 6.62385 67.7115C2.6794 65.3265 0.238426 61.8884 0 57.1576V24.0727C0.210649 20.0965 2.2419 16.4327 5.5602 14.249C8.34029 12.4195 11.5278 10.7924 14.4225 9.11443C18.4132 6.8023 22.4595 4.28766 26.5128 2.11787C32.1505 -0.900165 39.4816 -0.951082 44.2871 3.65466Z" fill="white"/>
<path d="M28.1425 89.2809C28.2189 89.3041 28.4956 90.0667 28.5465 90.2067C29.3775 92.4691 30.0731 94.7789 31.0071 96.9996C31.0789 97.1697 31.2224 97.8421 31.381 97.8409L34.5048 89.2809H37.6865C37.6923 89.2809 37.7734 89.3619 37.7734 89.3677V101.397C37.7734 101.426 37.6194 101.522 37.5639 101.526C37.2166 101.396 35.3949 101.589 35.2571 101.427C35.2294 101.394 35.2085 101.306 35.197 101.256C35.065 100.714 35.1553 99.0409 35.1692 98.3871C35.2074 96.6374 35.3995 94.8726 35.4562 93.1194C35.4585 93.0442 35.4331 92.9181 35.374 92.8672L32.2791 101.383C32.227 101.48 32.0581 101.48 31.9632 101.486C31.6495 101.508 30.7884 101.535 30.5141 101.484C30.4493 101.472 30.4053 101.454 30.3752 101.391L27.4053 93.1414C27.2872 92.9007 27.19 93.1102 27.1935 93.293C27.2166 94.4456 27.3266 95.6121 27.3625 96.7693C27.403 98.0955 27.5731 100 27.4226 101.284C27.4157 101.342 27.396 101.483 27.3324 101.483H24.9608C24.955 101.483 24.874 101.402 24.874 101.396V89.3666C24.874 89.3608 24.955 89.2798 24.9608 89.2798H28.1425V89.2809Z" fill="white"/>
<path d="M8.44819 96.9731V89.3678C8.44819 89.362 8.52921 89.281 8.535 89.281H10.9065C10.9123 89.281 10.9933 89.362 10.9933 89.3678V101.397C10.9933 101.403 10.9123 101.484 10.9065 101.484H8.535C8.42273 101.484 8.26069 101.175 8.1924 101.074C6.6681 98.8223 5.38106 96.2683 3.90073 93.9724C3.86138 93.9168 3.72249 93.7548 3.67504 93.7352C3.49679 93.6622 3.64726 93.9249 3.64726 93.9365V101.339C3.64726 101.35 3.513 101.484 3.50258 101.484H1.18892C1.14147 101.484 1.08707 101.344 1.09864 101.285C1.1241 97.4857 1.07318 93.6854 1.10443 89.8862C1.10443 89.7937 1.01184 89.2822 1.18776 89.2822H3.55929L3.75142 89.4951L8.24565 96.9152L8.44704 96.9742L8.44819 96.9731Z" fill="white"/>
<path d="M76.4115 97.1466V89.4257C76.4115 89.4199 76.4925 89.3389 76.4983 89.3389H78.7541C78.908 89.3389 78.8409 89.6201 78.8409 89.6571V101.426H76.4404C74.7703 98.8709 73.2425 96.2151 71.6372 93.6171C71.4937 93.572 71.4439 93.7004 71.4416 93.8254C71.4046 96.1815 71.6395 98.636 71.4971 100.996C71.4879 101.146 71.4578 101.28 71.437 101.427H69.0654V89.4268C69.0654 89.421 69.1464 89.34 69.1522 89.34H71.408C71.4451 89.34 71.5724 89.4465 71.6013 89.4928C73.1002 91.8778 74.4729 94.3496 76.0076 96.7115C76.1198 96.8839 76.1106 97.1466 76.4104 97.1466H76.4115Z" fill="white"/>
<path d="M21.2018 101.484C20.9413 101.409 20.483 99.512 20.3349 99.1694C20.2446 98.9611 20.1381 98.9554 19.9321 98.9357C18.6994 98.8234 17.3013 99.0283 16.0501 98.9357C15.8603 98.9229 15.8302 99.0896 15.7654 99.2296C15.4668 99.8753 15.351 100.694 15.0605 101.354C15.042 101.414 14.8754 101.484 14.8395 101.484H12.4101C12.351 101.484 12.321 101.368 12.3325 101.295C12.3661 101.08 12.7758 100.342 12.8881 100.054C14.1346 96.8469 15.1798 93.5558 16.4286 90.3491C16.4969 90.1744 16.7619 89.4441 16.8314 89.3643C16.9159 89.2682 16.9842 89.2891 17.0918 89.2775C17.5386 89.2324 18.6254 89.2266 19.0652 89.2775C19.1474 89.2868 19.218 89.2821 19.2596 89.3724L23.718 101.343C23.7295 101.391 23.6578 101.483 23.6323 101.483H21.2029L21.2018 101.484ZM18.1045 92.4645C17.9043 92.3349 17.8846 92.7515 17.8337 92.9112C17.4321 94.1737 16.983 95.4235 16.5686 96.6837C16.5166 96.8122 16.5802 96.914 16.7029 96.9615C17.5027 96.9024 18.5247 97.0807 19.2967 96.9753C19.4159 96.9591 19.498 96.9395 19.5467 96.8156L18.1045 92.4633V92.4645Z" fill="white"/>
<path d="M66.579 94.2547V96.0762C66.579 96.082 66.4979 96.163 66.4922 96.163H61.9227C61.9123 96.163 61.778 96.2972 61.778 96.3077V99.3731C61.778 99.3789 61.8591 99.4599 61.8648 99.4599H67.4181C67.4239 99.4599 67.5049 99.5409 67.5049 99.5467V101.339C67.5049 101.345 67.4239 101.426 67.4181 101.426H59.4354C59.4297 101.426 59.3486 101.345 59.3486 101.339V89.4257C59.3486 89.4199 59.4297 89.3389 59.4354 89.3389H67.3602C67.366 89.3389 67.447 89.4199 67.447 89.4257V91.2182C67.447 91.224 67.366 91.305 67.3602 91.305H61.9227C61.9123 91.305 61.778 91.4392 61.778 91.4496V94.168C61.778 94.1737 61.8591 94.2547 61.8648 94.2547H66.579Z" fill="white"/>
<path d="M49.0522 101.281C49.0129 101.527 48.7698 101.369 48.5638 101.365C47.9585 101.353 47.3346 101.339 46.7397 101.426C46.7293 101.299 46.6877 101.181 46.6795 101.052C46.4643 97.9625 46.8439 94.6216 46.6853 91.5052C46.7073 91.4312 46.5846 91.2483 46.5383 91.2483H43.0673C43.0615 91.2483 42.9805 91.1673 42.9805 91.1616V89.4847C42.9805 89.479 43.0615 89.3979 43.0673 89.3979H52.727C52.7328 89.3979 52.8138 89.479 52.8138 89.4847V91.1616C52.8138 91.1673 52.7328 91.2483 52.727 91.2483H49.1992C49.1888 91.2483 49.0546 91.3826 49.0546 91.393V101.283L49.0522 101.281Z" fill="white"/>
<path d="M57.0344 101.426C56.9777 101.408 56.9094 101.484 56.8897 101.484H54.5761C54.5703 101.484 54.4893 101.403 54.4893 101.397V89.3678C54.4893 89.362 54.5703 89.281 54.5761 89.281H56.8897C56.9001 89.281 57.0344 89.4152 57.0344 89.4257V101.426Z" fill="white"/>
<path d="M42.5738 114.901C42.5252 114.977 41.318 115.022 41.1548 114.844L38.7266 110.91C38.6803 110.888 38.583 110.977 38.583 110.996V114.9C38.3944 114.961 37.1953 115.026 37.1953 114.813V108.452C37.1953 108.446 37.2763 108.365 37.2821 108.365H38.5541C39.3747 109.475 39.9893 110.743 40.7451 111.9C40.8527 112.064 40.9974 112.372 41.1861 112.413V108.452C41.1861 108.446 41.2671 108.365 41.2729 108.365H42.3145C42.3469 108.365 42.575 108.285 42.575 108.452V114.9L42.5738 114.901Z" fill="white"/>
<path d="M66.4631 108.684C66.4631 108.598 66.3589 108.473 66.5557 108.376L67.8531 108.453C68.5684 109.658 69.3022 110.853 70.0522 112.038C70.1807 112.241 70.161 112.501 70.5129 112.473C70.5476 112.392 70.455 112.3 70.455 112.27V108.512C70.455 108.358 70.7363 108.425 70.7733 108.425H71.6992C71.705 108.425 71.786 108.506 71.786 108.512V114.815C71.786 114.821 71.705 114.902 71.6992 114.902H70.4851C69.845 113.866 69.1981 112.833 68.558 111.797C68.4492 111.62 68.0071 110.699 67.8254 110.738C67.6437 110.777 67.7953 111.026 67.7953 111.056V114.844C67.7386 114.825 67.6703 114.902 67.6506 114.902H66.5511C66.5453 114.902 66.4643 114.821 66.4643 114.815C66.4643 112.771 66.4527 110.728 66.4643 108.685L66.4631 108.684Z" fill="white"/>
<path d="M57.7863 108.453C57.8118 108.363 57.9565 108.317 58.0433 108.306C58.7724 108.207 61.0201 108.265 61.6555 108.574C62.8129 109.137 63.115 110.805 62.2296 111.74C62.0872 111.891 61.6 112.134 61.6023 112.269L62.9217 114.713C62.968 114.78 62.9078 114.96 62.8465 114.96H61.5166C61.3419 114.96 60.4333 112.843 60.1879 112.583L59.3257 112.545C59.2852 112.553 59.174 112.659 59.174 112.675V114.873C59.174 114.879 59.093 114.96 59.0872 114.96H57.9298C57.9102 114.96 57.8419 114.883 57.7852 114.902V108.454L57.7863 108.453ZM59.1752 111.43H60.6497C60.6822 111.43 61.0583 111.187 61.1069 111.135C61.5433 110.662 61.4113 109.716 60.7759 109.512C60.5271 109.431 59.3477 109.318 59.2018 109.463C59.0653 109.598 59.0896 111.377 59.174 111.43H59.1752Z" fill="white"/>
<path d="M19.3219 107.903C19.352 108.728 19.0627 109.378 18.3428 109.791C19.1067 112.117 18.5986 115.205 15.5337 114.957C12.4411 114.707 12.315 109.293 14.9122 108.439C15.6611 108.192 16.6391 108.252 17.315 108.664C17.7108 108.906 17.9446 109.437 18.3115 108.773C18.4643 108.497 18.4226 107.992 18.5372 107.896C18.6252 107.822 19.1472 107.956 19.3219 107.903ZM15.6043 109.42C14.3092 109.64 14.3127 111.965 14.6344 112.907C15.0511 114.128 16.6252 114.242 17.0951 113.049C17.5523 111.887 17.4574 109.105 15.6055 109.42H15.6043Z" fill="white"/>
<path d="M6.65527 108.424C6.90527 108.382 7.90528 108.24 7.96083 108.535L7.92611 112.619C7.96546 113.237 8.19116 113.848 8.88329 113.917C9.36361 113.965 9.83815 113.906 10.1171 113.475C10.1507 113.424 10.3 113.105 10.3 113.079V108.511C10.3 108.491 10.3763 108.423 10.3578 108.366H11.4863C11.8486 108.366 11.2872 109.575 12.0338 109.317C12.5488 109.139 12.4944 108.464 12.6113 108.044C13.234 108.013 13.4932 107.826 13.4238 108.569C13.3868 108.965 13.1495 109.526 12.8173 109.755C12.4527 110.007 11.9759 109.977 11.6391 110.196C11.499 111.509 12.0268 113.372 10.9689 114.384C10.2386 115.08 8.53143 115.145 7.67842 114.661C7.22935 114.407 6.65759 113.66 6.65759 113.137V108.424H6.65527Z" fill="white"/>
<path d="M31.4916 109.082C32.2995 108.191 33.8897 108.052 34.9002 108.664C36.8446 109.842 36.7219 114.182 34.3481 114.86C30.8689 115.854 29.4835 111.296 31.4916 109.082ZM32.4766 109.834C31.612 110.922 31.8689 114.58 33.9719 113.79C35.1467 113.348 35.134 110.411 34.2717 109.697C33.7509 109.266 32.9025 109.299 32.4766 109.834Z" fill="white"/>
<path d="M74.3286 111.026H76.8448C76.8506 111.026 76.9316 110.945 76.9316 110.94V108.511C76.9316 108.314 77.8286 108.348 78.0022 108.366C78.1631 108.383 78.2811 108.4 78.3089 108.581L78.2614 114.901H77.0184C77.0126 114.901 76.9316 114.82 76.9316 114.814V112.211C76.9316 112.016 76.6341 112.125 76.6133 112.125H74.3286C74.3471 112.181 74.2707 112.25 74.2707 112.269V114.814C74.2707 114.82 74.1897 114.901 74.1839 114.901H72.9987L72.957 108.575C72.9605 108.52 73.0554 108.366 73.0855 108.366H74.185C74.214 108.366 74.31 108.52 74.3135 108.575L74.3297 111.026H74.3286Z" fill="white"/>
<path d="M46.3909 111.488H48.8781C48.9047 111.595 48.9302 111.692 48.9383 111.803C48.9811 112.343 48.9892 113.357 48.9383 113.892C48.8804 114.514 47.6455 114.908 47.1119 114.958C44.2161 115.225 43.4128 113.491 43.6142 110.882C43.7114 109.623 44.4696 108.566 45.7415 108.324C46.6385 108.154 47.7682 108.33 48.3862 109.058C48.6061 109.317 48.9788 110.022 48.8689 110.352C48.8064 110.538 47.9001 110.415 47.6987 110.439C47.458 110.008 47.3839 109.571 46.8249 109.404C44.5263 108.718 44.4487 113.06 45.7693 113.755C46.1652 113.964 47.3075 114.01 47.5494 113.602C47.6547 113.425 47.6999 112.529 47.399 112.473C46.6003 112.324 46.1177 112.876 46.3885 111.488H46.3909Z" fill="white"/>
<path d="M29.8483 110.563H28.5763C28.5913 109.236 26.7094 108.905 26.1619 110.03C25.802 110.771 25.7985 112.555 26.1619 113.296C26.6747 114.342 28.5948 114.035 28.5763 112.762H29.8483C29.8112 114.475 28.3564 115.101 26.8124 114.959C24.4929 114.744 24.1376 111.479 24.8818 109.792C25.9096 107.461 29.824 107.886 29.8483 110.565V110.563Z" fill="white"/>
<path d="M55.068 109.464C55.0993 109.538 55.0102 109.635 55.0102 109.667V114.901H53.7671C53.7613 114.901 53.6803 114.82 53.6803 114.814V109.782C53.6803 109.745 53.7474 109.464 53.5935 109.464H51.8007C51.7949 109.464 51.7139 109.383 51.7139 109.377V108.452C51.7139 108.446 51.7949 108.365 51.8007 108.365H56.9488C56.9546 108.365 57.0356 108.446 57.0356 108.452V109.377C57.0356 109.383 56.9546 109.464 56.9488 109.464H55.0692H55.068Z" fill="white"/>
<path d="M1.73891 108.684C1.73891 108.652 1.66715 108.619 1.72154 108.499C1.83266 108.256 2.03173 108.425 2.22849 108.426C2.39168 108.426 3.01206 108.313 3.01206 108.511V113.774C3.01206 113.779 3.09307 113.86 3.09886 113.86H5.81762C5.8234 113.86 5.90442 113.941 5.90442 113.947V114.815C5.90442 114.821 5.8234 114.902 5.81762 114.902H1.82571C1.81992 114.902 1.73891 114.821 1.73891 114.815C1.73891 112.773 1.72386 110.728 1.73891 108.685V108.684Z" fill="white"/>
<path d="M21.2305 114.901C20.9701 114.975 20.7606 114.898 20.5071 114.896C20.4203 114.896 19.8428 115.018 19.8428 114.814V108.511C19.8428 108.491 19.9192 108.423 19.9006 108.366H21.1437C21.1495 108.366 21.2305 108.447 21.2305 108.453V114.901Z" fill="white"/>
<path d="M63.8018 108.51C63.8353 108.39 64.0124 108.373 64.1166 108.362C64.2798 108.346 65.1328 108.317 65.1328 108.51V114.814C65.1328 114.82 65.0518 114.901 65.046 114.901H63.8886C63.8828 114.901 63.8018 114.82 63.8018 114.814V108.51Z" fill="white"/>
<path d="M64.3436 88.3333C64.0843 88.1308 63.8297 87.8322 63.5403 87.6598C63.3123 87.6609 62.5091 88.6168 62.1954 88.6932C62.1052 88.7152 61.5843 88.6411 61.398 88.6434C61.2116 88.6457 60.4616 88.8448 60.8505 88.4421C61.1896 88.0903 62.1908 87.3265 62.6167 87.0279C63.0646 86.7132 63.729 86.8729 64.2614 86.8844L66.3181 88.5289C66.3806 88.8332 65.9744 88.6492 65.7984 88.6434C65.0137 88.618 64.9917 88.8402 64.3424 88.3344L64.3436 88.3333Z" fill="white"/>
<path d="M69.1246 85.3488L69.0702 85.6126L67.4776 87.4896C67.2461 87.6424 66.7948 87.5371 66.4915 87.544C66.2716 87.5486 66.039 87.7164 66.1478 87.3172C66.5899 86.8254 66.8422 86.0142 67.2473 85.5246C67.2855 85.4784 67.4371 85.3488 67.4765 85.3488H69.1246Z" fill="white"/>
<path d="M31.8154 107.903C31.7992 107.813 31.8247 107.769 31.871 107.698C31.908 107.641 32.7483 106.862 32.8571 106.775C33.7807 106.036 34.408 107.265 35.0863 107.727C35.1615 107.78 35.0539 107.903 35.0261 107.903H34.1002C34.0435 107.903 33.6117 107.332 33.4636 107.322C33.3571 107.322 32.8143 107.903 32.7691 107.903H31.8143H31.8154Z" fill="white"/>
<path d="M65.016 108.019H64.119C63.9547 108.019 63.0901 106.875 62.876 106.717C62.9234 106.455 63.222 106.643 63.4246 106.637C63.7001 106.628 64.0704 106.456 64.2892 106.693C64.3332 106.74 64.9582 107.728 64.9836 107.791C65.0149 107.868 65.0253 107.937 65.0149 108.02L65.016 108.019Z" fill="white"/>
<path d="M15.418 108.019C15.3798 108.008 15.3277 107.935 15.3358 107.881C15.3474 107.809 16.0858 106.709 16.1448 106.665C16.3879 106.485 17.1066 106.749 17.4411 106.572C17.5823 106.579 17.3103 106.909 17.286 106.94C17.1819 107.074 16.359 108.019 16.2849 108.019C16.0835 108.019 15.5627 108.059 15.4168 108.019H15.418Z" fill="white"/>
</svg>
