<svg width="120" height="146" viewBox="0 0 120 146" fill="none" xmlns="http://www.w3.org/2000/svg">
<g clip-path="url(#clip0_550_316)">
<path d="M21.9708 117.259C19.0145 117.259 21.6708 114.608 14.987 101.097C14.4301 99.9424 10.6597 92.7592 9.28867 92.7592C8.21755 92.7592 8.51746 97.4197 8.51746 98.2749C8.51746 110.332 10.2741 114.693 10.2741 116.874C10.2741 117.43 9.46005 117.259 9.07444 117.259H5.08987C4.01875 117.259 2.7334 118.071 2.7334 102.037C2.7334 80.9156 4.96133 81.6853 5.6897 81.6853H9.07444C10.7026 81.6853 13.9588 85.1058 21.9708 99.8996C22.0993 100.113 22.3135 100.669 22.6991 100.669C23.1276 100.669 23.0419 98.8307 23.0419 98.2321C23.0419 90.2366 20.8568 83.139 20.8568 82.1556C20.8568 81.557 21.7994 81.6853 22.6134 81.6853H25.8696C26.8122 81.6853 28.8259 80.9156 28.8259 102.037C28.8259 118.071 27.5406 117.259 26.4695 117.259H21.9708Z" fill="#397624"/>
<path d="M44.0785 117.9C35.4238 117.9 32.0391 111.701 32.0391 104.304C32.0391 93.3151 38.2087 81.0439 46.2207 81.0439C54.2327 81.0439 60.4024 93.3151 60.4024 104.304C60.4024 111.701 57.0176 117.9 48.363 117.9H44.0785ZM53.4615 103.363C53.4615 93.9137 49.0913 87.9705 46.2207 87.9705C43.3501 87.9705 38.9799 93.9137 38.9799 103.363C38.9799 108.365 41.6792 110.29 46.2207 110.29C50.7623 110.29 53.4615 108.365 53.4615 103.363Z" fill="#397624"/>
<path d="M85.8525 81.6852C86.838 81.6852 88.3375 85.1058 88.3375 92.9303C88.3375 107.681 77.7548 118.285 75.1842 118.285C74.3273 118.285 62.2021 111.529 62.2021 92.0751C62.2021 81.899 63.7446 81.6852 64.5158 81.6852H69.4001C69.9142 81.6852 71.4138 81.557 71.4138 82.3694C71.4138 83.481 69.143 86.0464 69.143 95.0681C69.143 102.722 74.1559 109.007 75.1842 109.007C77.4121 109.007 82.0822 102.722 82.0822 95.0681C82.0822 86.0464 79.2544 83.481 79.2544 82.3694C79.2544 81.557 80.3684 81.6852 80.8825 81.6852H85.8525Z" fill="#397624"/>
<path d="M109.631 117.259C109.246 117.259 108.003 117.387 108.003 116.746C108.003 115.549 111.302 111.273 111.302 106.399C111.302 104.475 109.46 103.748 107.532 103.748C103.633 103.748 97.4204 104.432 97.4204 109.306C97.4204 112.684 100.205 116.318 100.205 116.96C100.205 117.216 99.9482 117.259 99.3912 117.259H93.2644C91.0793 117.259 90.4795 113.411 90.4795 107.852C90.4795 89.5525 103.204 81.0439 105.09 81.0439C106.503 81.0439 117.557 87.1582 117.557 106.997C117.557 118.413 115.715 117.259 114.43 117.259H109.631ZM98.363 98.2749C98.363 98.788 98.6629 99.0873 99.177 99.0873C99.9482 99.0873 104.104 97.9756 107.875 97.9756C109.374 97.9756 110.06 97.7618 110.06 96.5646C110.06 93.9137 106.889 88.3553 105.261 88.3553C102.947 88.3553 98.363 95.1537 98.363 98.2749Z" fill="#397624"/>
<path d="M11.1825 145.615C10.9255 145.615 10.2314 145.641 10.2314 145.23C10.2314 145.102 10.2571 144.974 10.3085 144.871C11.2082 142.511 11.9537 140.1 11.9537 137.56C11.9537 135.815 11.2596 135.225 9.53727 135.225C6.94087 135.225 4.16452 136.457 4.16452 139.433C4.16452 141.28 4.49871 143.281 5.21851 144.974C5.26992 145.076 5.32134 145.256 5.32134 145.359C5.32134 145.718 4.70437 145.615 4.49871 145.615H0.719794C0 145.615 0 138.227 0 137.124C0 135.251 0.514139 124.271 1.74807 124.271H5.24422C5.39846 124.271 6.01542 124.194 6.01542 124.502C6.01542 124.835 4.26735 128.555 4.26735 131.275C4.26735 131.916 4.49871 132.532 4.88432 132.532C5.68123 132.532 5.68123 131.762 9.17738 131.762C10.437 131.762 11.4396 132.044 11.4396 130.967C11.4396 128.53 9.17738 124.861 9.17738 124.528C9.17738 124.194 9.94859 124.271 10.1028 124.271H13.4704C14.4473 124.271 15.7069 131.659 15.7069 137.124C15.7069 138.355 15.7069 145.615 14.8843 145.615H11.1825Z" fill="#397624"/>
<path d="M29.3318 145.615C29.1005 145.615 28.355 145.692 28.355 145.307C28.355 144.589 30.3344 142.024 30.3344 139.099C30.3344 137.945 29.229 137.509 28.0722 137.509C25.7329 137.509 22.0053 137.919 22.0053 140.844C22.0053 142.87 23.6763 145.051 23.6763 145.436C23.6763 145.59 23.5221 145.615 23.1879 145.615H19.5118C18.2007 145.615 17.8408 143.306 17.8408 139.971C17.8408 128.991 25.4758 123.886 26.6069 123.886C27.4552 123.886 34.0876 127.555 34.0876 139.458C34.0876 146.308 32.9822 145.615 32.211 145.615H29.3318ZM22.5709 134.225C22.5709 134.533 22.7508 134.712 23.0593 134.712C23.5221 134.712 26.0156 134.045 28.2778 134.045C29.1776 134.045 29.5889 133.917 29.5889 133.199C29.5889 131.608 27.6866 128.273 26.7097 128.273C25.3215 128.273 22.5709 132.352 22.5709 134.225Z" fill="#397624"/>
<path d="M43.0332 136.175C43.0332 130.12 46.4008 123.886 52.5448 123.886C54.7813 123.886 58.226 124.835 58.226 127.606C58.226 129.094 57.1977 129.941 55.5782 129.941C54.5242 129.941 55.9381 127.529 52.6733 127.529C48.6116 127.529 47.1977 132.121 47.1977 135.687C47.1977 138.483 47.9946 141.434 51.3623 141.434C52.9561 141.434 54.6784 140.767 54.6784 138.971C54.6784 136.893 52.6476 136.713 52.6476 136.046C52.6476 135.713 57.0692 134.122 57.3777 134.122C57.8918 134.122 58.4831 140.382 58.4831 141.151C58.4831 144.512 55.1412 146 51.9535 146C45.9895 146 43.0332 141.895 43.0332 136.175Z" fill="#397624"/>
<path d="M62.3397 145.615C61.697 145.615 60.9258 146.103 60.9258 136.482C60.9258 123.809 62.2625 124.271 62.6996 124.271H65.4759C65.8101 124.271 66.4528 124.194 66.4528 124.681C66.4528 124.938 65.0903 129.222 65.0903 134.173C65.0903 140.741 66.3757 144.974 66.3757 145.333C66.3757 145.59 66.2214 145.615 65.99 145.615H62.3397Z" fill="#397624"/>
<path d="M80.0769 145.615C79.8456 145.615 79.1001 145.692 79.1001 145.307C79.1001 144.589 81.0795 142.024 81.0795 139.099C81.0795 137.945 79.9741 137.509 78.8173 137.509C76.478 137.509 72.7505 137.919 72.7505 140.844C72.7505 142.87 74.4214 145.051 74.4214 145.436C74.4214 145.59 74.2672 145.615 73.933 145.615H70.2569C68.9458 145.615 68.5859 143.306 68.5859 139.971C68.5859 128.991 76.2209 123.886 77.352 123.886C78.2003 123.886 84.8327 127.555 84.8327 139.458C84.8327 146.308 83.7273 145.615 82.9561 145.615H80.0769ZM73.316 134.225C73.316 134.533 73.496 134.712 73.8045 134.712C74.2672 134.712 76.7607 134.045 79.023 134.045C79.9227 134.045 80.334 133.917 80.334 133.199C80.334 131.608 78.4317 128.273 77.4548 128.273C76.0667 128.273 73.316 132.352 73.316 134.225Z" fill="#397624"/>
<path d="M98.5092 145.615C96.7354 145.615 98.3293 144.025 94.319 135.918C93.9848 135.225 91.7226 130.915 90.9 130.915C90.2573 130.915 90.4372 133.712 90.4372 134.225C90.4372 141.459 91.4912 144.076 91.4912 145.384C91.4912 145.718 91.0028 145.615 90.7714 145.615H88.3807C87.738 145.615 86.9668 146.103 86.9668 136.482C86.9668 123.809 88.3036 124.271 88.7406 124.271H90.7714C91.7483 124.271 93.702 126.323 98.5092 135.2C98.5863 135.328 98.7149 135.661 98.9462 135.661C99.2033 135.661 99.1519 134.558 99.1519 134.199C99.1519 129.402 97.8408 125.143 97.8408 124.553C97.8408 124.194 98.4064 124.271 98.8948 124.271H100.849C101.414 124.271 102.622 123.809 102.622 136.482C102.622 146.103 101.851 145.615 101.208 145.615H98.5092Z" fill="#397624"/>
<path d="M104.55 136.175C104.55 130.12 107.917 123.886 114.061 123.886C116.298 123.886 119.743 124.835 119.743 127.606C119.743 129.094 118.714 129.941 117.095 129.941C116.041 129.941 117.455 127.529 114.19 127.529C110.128 127.529 108.714 132.121 108.714 135.687C108.714 138.483 109.511 141.434 112.879 141.434C114.473 141.434 116.195 140.767 116.195 138.971C116.195 136.893 114.164 136.713 114.164 136.046C114.164 135.713 118.586 134.122 118.894 134.122C119.408 134.122 120 140.382 120 141.151C120 144.512 116.658 146 113.47 146C107.506 146 104.55 141.895 104.55 136.175Z" fill="#397624"/>
<path d="M96.6756 40.4079C94.759 38.4953 92.1141 37.3152 89.1921 37.3152C86.27 37.3152 83.6251 38.4981 81.7085 40.4079C79.7919 42.3206 78.6094 44.9601 78.6094 47.8761C78.6094 48.6799 78.6979 49.4609 78.8693 50.2106C79.3177 52.1888 80.3203 53.959 81.7085 55.3443C83.0967 56.7296 84.8704 57.733 86.8527 58.1776C87.604 58.3486 88.3866 58.437 89.1921 58.437C92.1141 58.437 94.759 57.2541 96.6756 55.3443C98.5922 53.4316 99.7748 50.7921 99.7748 47.8761C99.7748 44.9601 98.5894 42.3206 96.6756 40.4079ZM93.7936 52.471C92.6139 53.6483 90.9858 54.3751 89.1892 54.3751C87.3926 54.3751 85.7673 53.6454 84.5848 52.471C83.4052 51.2938 82.6768 49.669 82.6768 47.8761C82.6768 46.0832 83.408 44.4613 84.5848 43.2812C85.7645 42.1039 87.3926 41.3771 89.1892 41.3771C90.9858 41.3771 92.6111 42.1068 93.7936 43.2812C94.9733 44.4584 95.7016 46.0832 95.7016 47.8761C95.7016 49.669 94.9704 51.2909 93.7936 52.471Z" fill="#9FC55A"/>
<path d="M40.6945 45.5444C40.2489 43.5662 39.2435 41.7961 37.8553 40.4079C36.4672 39.0198 34.6934 38.0192 32.7082 37.5746C31.957 37.4036 31.1744 37.3152 30.3718 37.3152C27.4497 37.3152 24.8048 38.4981 22.8882 40.4079C20.9716 42.3206 19.7891 44.9601 19.7891 47.8761C19.7891 50.7921 20.9744 53.4316 22.8882 55.3443C24.8048 57.2569 27.4497 58.437 30.3718 58.437C31.1772 58.437 31.9599 58.3486 32.7111 58.1776C34.6934 57.7301 36.4672 56.7296 37.8553 55.3443C39.2435 53.959 40.2489 52.1888 40.6945 50.2106C40.8659 49.4609 40.9544 48.6799 40.9544 47.8761C40.9544 47.0723 40.8659 46.2941 40.6945 45.5444ZM34.9762 52.471C33.7965 53.6483 32.1684 54.3751 30.3718 54.3751C28.5751 54.3751 26.9499 53.6454 25.7674 52.471C24.5877 51.2938 23.8593 49.669 23.8593 47.8761C23.8593 46.0832 24.5905 44.4613 25.7674 43.2812C26.947 42.1039 28.5751 41.3771 30.3718 41.3771C32.1684 41.3771 33.7936 42.1068 34.9762 43.2812C36.1558 44.4584 36.8842 46.0832 36.8842 47.8761C36.8842 49.669 36.153 51.2909 34.9762 52.471Z" fill="#9FC55A"/>
<path d="M106.632 30.4713C102.171 26.016 96.004 23.2596 89.1916 23.2596C82.3793 23.2596 76.2125 26.016 71.7509 30.4713L66.1125 24.8445L59.78 18.525L53.4475 24.8445L47.8091 30.4713C43.3476 26.016 37.1808 23.2596 30.3684 23.2596C26.838 23.2596 23.4818 24.0007 20.4455 25.3376C17.6235 26.5747 15.0785 28.3249 12.9277 30.4713C8.46324 34.9237 5.70117 41.0778 5.70117 47.8761C5.70117 54.6744 8.46324 60.8285 12.9277 65.2809C17.3893 69.7362 23.5561 72.4926 30.3684 72.4926C37.1808 72.4926 43.3476 69.7362 47.8091 65.2809C49.96 63.1346 51.7137 60.5977 52.9562 57.7814L45.3698 50.2106C44.8643 53.4573 43.3276 56.3619 41.0996 58.5824C38.3518 61.3274 34.5586 63.0234 30.3713 63.0234C29.5772 63.0234 28.7974 62.9635 28.0348 62.8467C24.7814 62.3421 21.8708 60.8057 19.6458 58.5824C16.8951 55.8403 15.1956 52.0549 15.1956 47.8761C15.1956 43.6973 16.898 39.9119 19.6458 37.1698C21.8708 34.9465 24.7843 33.4101 28.0348 32.9084C28.7974 32.7887 29.5772 32.7288 30.3713 32.7288C34.5558 32.7288 38.3518 34.4277 41.0996 37.1698L47.6977 43.2213L54.9557 49.88L71.7509 65.2809C76.2125 69.7362 82.3793 72.4926 89.1916 72.4926C92.722 72.4926 96.0782 71.7515 99.1174 70.4203C101.939 69.1804 104.484 67.4273 106.632 65.2838C111.097 60.8314 113.859 54.6773 113.859 47.879C113.859 41.0806 111.097 34.9265 106.632 30.4741V30.4713ZM99.92 58.5824C97.6949 60.8057 94.7814 62.3421 91.5309 62.8467C90.7683 62.9635 89.9885 63.0234 89.1945 63.0234C85.0099 63.0234 81.2139 61.3245 78.4661 58.5824L64.6101 45.8722L54.4158 36.5228L59.7857 31.1639L74.1959 45.5444C74.7015 42.2978 76.241 39.3932 78.469 37.1727C81.2168 34.4277 85.0099 32.7317 89.1973 32.7317C93.3847 32.7317 97.1779 34.4305 99.9257 37.1727C102.676 39.9148 104.376 43.7002 104.376 47.879C104.376 52.0577 102.673 55.8431 99.9257 58.5852L99.92 58.5824Z" fill="#9FC55A"/>
<path d="M73.253 19.9531C78.7743 19.9531 83.2501 15.4865 83.2501 9.97657C83.2501 4.46666 78.7743 0 73.253 0C67.7317 0 63.2559 4.46666 63.2559 9.97657C63.2559 15.4865 67.7317 19.9531 73.253 19.9531Z" fill="#9FC55A"/>
</g>
<defs>
<clipPath id="clip0_550_316">
<rect width="120" height="146" fill="white"/>
</clipPath>
</defs>
</svg>
