<svg width="200" height="58" viewBox="0 0 200 58" fill="none" xmlns="http://www.w3.org/2000/svg">
<g clip-path="url(#clip0_447_642)">
<path d="M66.3335 49.2582C65.4092 48.7665 64.6448 48.0158 64.1318 47.0959C63.5907 46.1149 63.3153 45.0069 63.3335 43.8837V37.793C63.3096 36.6741 63.5805 35.569 64.1185 34.5909C64.6385 33.6757 65.4072 32.9305 66.3335 32.4438C67.354 31.9393 68.475 31.677 69.611 31.677C70.747 31.677 71.868 31.9393 72.8885 32.4438C73.8103 32.9335 74.5743 33.6797 75.0902 34.5943C75.6281 35.5723 75.899 36.6775 75.8751 37.7964V43.8871C75.8974 45.009 75.6266 46.117 75.0902 47.0993C74.5772 48.0192 73.8127 48.7699 72.8885 49.2616C71.868 49.7661 70.747 50.0284 69.611 50.0284C68.475 50.0284 67.354 49.7661 66.3335 49.2616V49.2582ZM72.3818 46.8263C73.0907 46.1106 73.4452 45.164 73.4452 43.9865V37.7677C73.4452 36.5723 73.0907 35.6128 72.3818 34.8892C71.6729 34.1657 70.7451 33.8028 69.5985 33.8005C68.4496 33.8005 67.5257 34.1634 66.8268 34.8892C66.1279 35.615 65.7779 36.5745 65.7768 37.7677V43.9865C65.7768 45.1629 66.1268 46.1095 66.8268 46.8263C67.5268 47.5431 68.4507 47.9015 69.5985 47.9015C70.7396 47.9015 71.6646 47.5431 72.3735 46.8263H72.3818Z" fill="white"/>
<path d="M82.0287 49.2972C81.1189 48.8355 80.3624 48.115 79.8521 47.2243C79.3263 46.2847 79.0598 45.2196 79.0804 44.1402V37.5119C79.058 36.4403 79.3248 35.3828 79.8521 34.453C80.368 33.5736 81.1237 32.8632 82.0287 32.407C83.0312 31.9074 84.138 31.6594 85.2554 31.684C86.3667 31.6609 87.4678 31.9016 88.4704 32.3868C89.3651 32.8254 90.1169 33.5137 90.6371 34.3704C91.1633 35.268 91.4306 36.2967 91.4087 37.34V37.3652C91.4107 37.4028 91.4049 37.4403 91.3917 37.4754C91.3785 37.5105 91.3582 37.5424 91.3321 37.5692C91.3096 37.5938 91.2822 37.6134 91.2518 37.6268C91.2214 37.6401 91.1886 37.6469 91.1554 37.6467L89.2321 37.7495C89.0654 37.7495 88.9787 37.672 88.9787 37.5186V37.4411C88.9787 36.3512 88.6415 35.4726 87.9671 34.8052C87.2926 34.1379 86.3898 33.8053 85.2587 33.8075C84.1287 33.8075 83.2221 34.1401 82.5387 34.8052C81.8554 35.4704 81.5137 36.349 81.5137 37.4411V44.2497C81.5137 45.3418 81.8554 46.2204 82.5387 46.8856C83.2221 47.5507 84.1287 47.8833 85.2587 47.8833C86.3887 47.8833 87.2915 47.5507 87.9671 46.8856C88.6426 46.2204 88.9798 45.3418 88.9787 44.2497V44.1975C88.9787 44.0441 89.0637 43.9683 89.2321 43.9683L91.1554 44.0694C91.1898 44.0647 91.2248 44.068 91.2576 44.0792C91.2905 44.0904 91.3204 44.1092 91.3449 44.134C91.3694 44.1588 91.3879 44.189 91.399 44.2222C91.4101 44.2554 91.4134 44.2908 91.4087 44.3256C91.4297 45.3725 91.1626 46.4046 90.6371 47.3069C90.1185 48.1713 89.3669 48.8682 88.4704 49.3158C87.461 49.7896 86.3612 50.0341 85.2483 50.032C84.1354 50.03 83.0365 49.7815 82.0287 49.304V49.2972Z" fill="white"/>
<path d="M106.438 34.0062H97.4532C97.4395 34.004 97.4255 34.005 97.4122 34.0092C97.399 34.0135 97.3869 34.0208 97.377 34.0307C97.3671 34.0405 97.3596 34.0526 97.3552 34.0659C97.3508 34.0793 97.3495 34.0934 97.3516 34.1073V39.6048C97.3496 39.6188 97.3509 39.633 97.3553 39.6464C97.3597 39.6598 97.3672 39.6719 97.377 39.6819C97.3869 39.6918 97.3989 39.6993 97.4121 39.7038C97.4254 39.7083 97.4394 39.7096 97.4532 39.7076H103.62C103.654 39.7029 103.689 39.7063 103.722 39.7175C103.755 39.7287 103.785 39.7474 103.809 39.7722C103.834 39.797 103.852 39.8272 103.864 39.8604C103.875 39.8937 103.878 39.929 103.873 39.9638V41.575C103.878 41.6098 103.875 41.6453 103.864 41.6787C103.853 41.7121 103.835 41.7425 103.81 41.7674C103.786 41.7922 103.756 41.811 103.722 41.822C103.689 41.8331 103.654 41.8362 103.62 41.8311H97.4532C97.4394 41.8292 97.4254 41.8305 97.4121 41.8349C97.3989 41.8394 97.3869 41.8469 97.377 41.8569C97.3672 41.8669 97.3597 41.879 97.3553 41.8924C97.3509 41.9057 97.3496 41.92 97.3516 41.9339V47.5646C97.3495 47.5785 97.3508 47.5926 97.3552 47.606C97.3596 47.6193 97.3671 47.6314 97.377 47.6412C97.3869 47.6511 97.399 47.6584 97.4122 47.6627C97.4255 47.6669 97.4395 47.6679 97.4532 47.6657H106.438C106.473 47.6609 106.507 47.6642 106.54 47.6754C106.573 47.6866 106.603 47.7054 106.627 47.7302C106.652 47.7551 106.67 47.7853 106.681 47.8186C106.692 47.8518 106.695 47.8872 106.69 47.9218V49.5482C106.695 49.5828 106.692 49.6182 106.681 49.6514C106.67 49.6847 106.652 49.715 106.627 49.7398C106.603 49.7646 106.573 49.7834 106.54 49.7946C106.507 49.8058 106.473 49.8091 106.438 49.8043H95.1749C95.1406 49.8091 95.1056 49.8058 95.0728 49.7946C95.04 49.7834 95.0102 49.7646 94.9858 49.7398C94.9614 49.715 94.943 49.6847 94.9322 49.6514C94.9213 49.6182 94.9182 49.5828 94.9232 49.5482V32.1372C94.9182 32.1026 94.9213 32.0672 94.9322 32.0339C94.943 32.0007 94.9614 31.9704 94.9858 31.9456C95.0102 31.9207 95.04 31.902 95.0728 31.8908C95.1056 31.8796 95.1406 31.8762 95.1749 31.881H106.438C106.473 31.8762 106.507 31.8796 106.54 31.8908C106.573 31.902 106.603 31.9207 106.627 31.9456C106.652 31.9704 106.67 32.0007 106.681 32.0339C106.692 32.0672 106.695 32.1026 106.69 32.1372V33.7501C106.695 33.7847 106.692 33.8201 106.681 33.8533C106.67 33.8866 106.652 33.9168 106.627 33.9417C106.603 33.9665 106.573 33.9853 106.54 33.9965C106.507 34.0077 106.473 34.011 106.438 34.0062Z" fill="white"/>
<path d="M120.508 49.5905L119.599 46.5974C119.594 46.5741 119.582 46.5532 119.564 46.5381C119.546 46.523 119.524 46.5148 119.5 46.5148H112.385C112.362 46.5137 112.339 46.5209 112.321 46.5351C112.302 46.5492 112.289 46.5694 112.284 46.5923L111.372 49.5854C111.351 49.6491 111.31 49.7041 111.255 49.7414C111.2 49.7787 111.135 49.7962 111.068 49.791H109.018C108.833 49.791 108.767 49.6966 108.817 49.5096L114.359 32.0818C114.379 32.0179 114.421 31.9629 114.476 31.9256C114.531 31.8883 114.597 31.8709 114.663 31.8762H117.193C117.26 31.871 117.325 31.8885 117.38 31.9258C117.435 31.9631 117.476 32.018 117.497 32.0818L123.09 49.5146L123.115 49.6157C123.115 49.7354 123.04 49.7961 122.889 49.7961H120.812C120.746 49.8009 120.68 49.7833 120.625 49.7461C120.57 49.7088 120.529 49.654 120.508 49.5905ZM112.929 44.5345C112.94 44.5467 112.954 44.5564 112.97 44.563C112.985 44.5697 113.002 44.5732 113.018 44.5733H118.833C118.85 44.5732 118.866 44.5696 118.882 44.563C118.897 44.5563 118.91 44.5467 118.922 44.5345C118.934 44.5235 118.942 44.5086 118.944 44.4923C118.947 44.476 118.944 44.4593 118.935 44.4452L116 34.9535C115.994 34.9382 115.984 34.9251 115.97 34.9158C115.957 34.9066 115.941 34.9016 115.924 34.9016C115.908 34.9016 115.892 34.9066 115.879 34.9158C115.865 34.9251 115.855 34.9382 115.849 34.9535L112.917 44.4469C112.908 44.4608 112.905 44.4774 112.907 44.4937C112.909 44.51 112.917 44.525 112.929 44.5362V44.5345Z" fill="white"/>
<path d="M136.68 31.8812H138.604C138.638 31.8765 138.673 31.8799 138.706 31.8911C138.739 31.9023 138.769 31.921 138.793 31.9458C138.818 31.9706 138.836 32.0008 138.847 32.034C138.858 32.0673 138.862 32.1027 138.857 32.1374V49.5484C138.862 49.5831 138.858 49.6185 138.847 49.6517C138.836 49.685 138.818 49.7152 138.793 49.74C138.769 49.7648 138.739 49.7835 138.706 49.7947C138.673 49.8059 138.638 49.8093 138.604 49.8045H136.757C136.696 49.8026 136.636 49.7851 136.583 49.7536C136.53 49.722 136.485 49.6776 136.454 49.6242L128.532 36.5479C128.514 36.4973 128.489 36.4754 128.455 36.4838C128.422 36.4922 128.405 36.5226 128.405 36.5731L128.43 49.55C128.435 49.5848 128.432 49.6202 128.421 49.6534C128.41 49.6867 128.391 49.7169 128.367 49.7417C128.342 49.7665 128.312 49.7852 128.279 49.7964C128.246 49.8076 128.211 49.811 128.177 49.8062H126.254C126.219 49.811 126.184 49.8076 126.151 49.7963C126.118 49.7851 126.088 49.7662 126.063 49.7412C126.039 49.7162 126.02 49.6857 126.009 49.6523C125.998 49.6188 125.995 49.5832 126 49.5484V32.1374C125.996 32.1027 125.999 32.0673 126.01 32.034C126.021 32.0008 126.04 31.9706 126.064 31.9458C126.089 31.921 126.119 31.9023 126.151 31.8911C126.184 31.8799 126.219 31.8765 126.254 31.8812H128.127C128.188 31.8835 128.248 31.9011 128.301 31.9326C128.354 31.9641 128.399 32.0084 128.43 32.0616L136.334 45.1379C136.35 45.1885 136.375 45.2104 136.409 45.2019C136.442 45.1935 136.46 45.1632 136.46 45.1126L136.434 32.1357C136.429 32.1017 136.433 32.0672 136.444 32.0348C136.455 32.0023 136.473 31.9727 136.496 31.9483C136.52 31.9238 136.549 31.9051 136.581 31.8935C136.613 31.8819 136.647 31.8777 136.68 31.8812Z" fill="white"/>
<path d="M152.408 32.5081C153.178 32.9278 153.811 33.5634 154.232 34.3383C154.674 35.1717 154.896 36.1062 154.877 37.0517C154.895 37.9912 154.665 38.9185 154.21 39.738C153.774 40.5042 153.128 41.1264 152.35 41.5295C151.492 41.9696 150.54 42.1896 149.578 42.17H145.133C145.12 42.1677 145.106 42.1687 145.092 42.173C145.079 42.1772 145.067 42.1846 145.057 42.1944C145.047 42.2043 145.04 42.2163 145.035 42.2297C145.031 42.243 145.03 42.2572 145.032 42.2711V49.5482C145.036 49.583 145.033 49.6184 145.022 49.6516C145.011 49.6849 144.992 49.7151 144.968 49.7399C144.943 49.7647 144.913 49.7834 144.881 49.7946C144.848 49.8058 144.813 49.8091 144.778 49.8044H142.855C142.821 49.8091 142.786 49.8058 142.753 49.7946C142.72 49.7834 142.69 49.7647 142.666 49.7399C142.641 49.7151 142.622 49.6849 142.611 49.6516C142.6 49.6184 142.597 49.583 142.602 49.5482V32.112C142.597 32.0773 142.6 32.0419 142.611 32.0086C142.622 31.9754 142.641 31.9452 142.666 31.9204C142.69 31.8956 142.72 31.8769 142.753 31.8657C142.786 31.8545 142.821 31.8511 142.855 31.8558H149.688C150.635 31.8358 151.571 32.0602 152.408 32.5081ZM151.6 39.3285C152.164 38.7667 152.447 38.0246 152.447 37.1022C152.447 36.1641 152.164 35.409 151.6 34.8372C151.036 34.2653 150.289 33.9793 149.36 33.9793H145.133C145.12 33.9774 145.105 33.9787 145.092 33.9831C145.079 33.9876 145.067 33.9951 145.057 34.0051C145.047 34.0151 145.04 34.0272 145.035 34.0406C145.031 34.054 145.03 34.0682 145.032 34.0821V40.0701C145.03 40.084 145.031 40.0982 145.035 40.1116C145.04 40.125 145.047 40.1371 145.057 40.1471C145.067 40.1571 145.079 40.1646 145.092 40.169C145.105 40.1735 145.12 40.1748 145.133 40.1729H149.36C150.287 40.1729 151.033 39.8914 151.6 39.3285Z" fill="white"/>
<path d="M157.761 49.5482V32.1372C157.756 32.1024 157.759 32.0669 157.77 32.0335C157.781 32 157.8 31.9697 157.824 31.9448C157.849 31.9199 157.879 31.9012 157.912 31.8901C157.945 31.8791 157.98 31.8759 158.015 31.881H159.938C159.972 31.8763 160.007 31.8797 160.04 31.8909C160.073 31.9021 160.103 31.9208 160.128 31.9456C160.152 31.9704 160.171 32.0006 160.182 32.0338C160.193 32.0671 160.196 32.1025 160.191 32.1372V47.5696C160.189 47.5834 160.191 47.5974 160.195 47.6105C160.199 47.6237 160.207 47.6357 160.216 47.6455C160.226 47.6553 160.238 47.6627 160.251 47.6671C160.264 47.6715 160.278 47.6727 160.291 47.6707H169.023C169.057 47.666 169.092 47.6694 169.125 47.6806C169.158 47.6918 169.188 47.7105 169.213 47.7353C169.237 47.7601 169.256 47.7903 169.267 47.8235C169.278 47.8568 169.281 47.8921 169.276 47.9269V49.5482C169.281 49.5829 169.278 49.6183 169.267 49.6515C169.256 49.6848 169.237 49.715 169.213 49.7398C169.188 49.7646 169.158 49.7833 169.125 49.7945C169.092 49.8057 169.057 49.8091 169.023 49.8043H158.023C157.988 49.8109 157.952 49.809 157.918 49.7986C157.884 49.7882 157.852 49.7697 157.827 49.7446C157.801 49.7195 157.782 49.6886 157.77 49.6544C157.759 49.6202 157.756 49.5838 157.761 49.5482Z" fill="white"/>
<path d="M174.983 49.2701C174.071 48.8075 173.31 48.0875 172.793 47.1972C172.261 46.2605 171.99 45.195 172.01 44.1147V32.1372C172.005 32.1024 172.008 32.0669 172.019 32.0335C172.03 32 172.049 31.9697 172.073 31.9448C172.098 31.9199 172.128 31.9012 172.161 31.8901C172.194 31.8791 172.229 31.8759 172.263 31.881H174.187C174.221 31.8763 174.256 31.8797 174.289 31.8909C174.322 31.9021 174.352 31.9208 174.376 31.9456C174.401 31.9704 174.419 32.0006 174.43 32.0338C174.442 32.0671 174.445 32.1025 174.44 32.1372V44.1653C174.44 45.2742 174.79 46.1697 175.49 46.8517C176.19 47.5337 177.105 47.8752 178.235 47.8763C179.365 47.8763 180.276 47.5348 180.969 46.8517C181.661 46.1686 182.007 45.2731 182.007 44.1653V32.1372C182.002 32.1024 182.005 32.0669 182.016 32.0335C182.027 32 182.045 31.9697 182.07 31.9448C182.094 31.9199 182.125 31.9012 182.158 31.8901C182.191 31.8791 182.226 31.8759 182.26 31.881H184.183C184.218 31.8762 184.253 31.8796 184.286 31.8908C184.318 31.902 184.348 31.9207 184.373 31.9456C184.397 31.9704 184.415 32.0007 184.426 32.0339C184.437 32.0672 184.44 32.1026 184.435 32.1372V44.1147C184.456 45.1936 184.189 46.2582 183.663 47.1972C183.154 48.0887 182.397 48.8094 181.487 49.2701C180.469 49.7502 179.36 49.999 178.237 49.999C177.114 49.999 176.005 49.7502 174.987 49.2701H174.983Z" fill="white"/>
<path d="M190.5 49.3797C189.616 49.0255 188.852 48.421 188.298 47.6388C187.776 46.8628 187.506 45.9414 187.527 45.003V44.2614C187.522 44.2266 187.525 44.1911 187.536 44.1577C187.547 44.1243 187.565 44.0939 187.59 44.069C187.614 44.0441 187.644 44.0254 187.677 44.0143C187.711 44.0033 187.746 44.0001 187.78 44.0052H189.627C189.661 44.0005 189.696 44.0039 189.729 44.0151C189.762 44.0263 189.792 44.045 189.816 44.0698C189.841 44.0946 189.859 44.1248 189.87 44.158C189.881 44.1913 189.885 44.2267 189.88 44.2614V44.8749C189.88 45.7445 190.251 46.4613 190.993 47.0253C191.736 47.5893 192.757 47.8702 194.057 47.868C195.22 47.868 196.097 47.6202 196.688 47.1248C196.975 46.8918 197.203 46.5949 197.357 46.2575C197.51 45.92 197.585 45.5512 197.573 45.1799C197.584 44.6902 197.423 44.2125 197.118 43.8317C196.745 43.4014 196.292 43.0493 195.785 42.7952C194.959 42.368 194.11 41.9877 193.242 41.6559C192.241 41.2829 191.265 40.8466 190.318 40.3498C189.618 39.973 189.009 39.4448 188.533 38.8027C188.062 38.1623 187.826 37.3561 187.825 36.3843C187.825 34.9158 188.344 33.7642 189.382 32.9294C190.42 32.0946 191.824 31.6766 193.595 31.6755C194.724 31.6523 195.845 31.8699 196.885 32.3142C197.768 32.6906 198.527 33.3116 199.075 34.1057C199.595 34.893 199.864 35.8221 199.847 36.7685V37.2741C199.852 37.3089 199.849 37.3445 199.838 37.3779C199.827 37.4113 199.808 37.4416 199.784 37.4665C199.759 37.4914 199.729 37.5101 199.696 37.5212C199.663 37.5323 199.628 37.5354 199.593 37.5303H197.695C197.661 37.5354 197.626 37.5323 197.592 37.5212C197.559 37.5101 197.529 37.4914 197.505 37.4665C197.48 37.4416 197.462 37.4113 197.451 37.3779C197.44 37.3445 197.437 37.3089 197.442 37.2741V36.8899C197.447 36.4641 197.355 36.0428 197.173 35.659C196.991 35.2751 196.724 34.939 196.392 34.677C195.692 34.0883 194.726 33.7939 193.493 33.7939C192.449 33.7939 191.64 34.0113 191.065 34.4462C190.49 34.8827 190.205 35.5096 190.205 36.327C190.183 36.8244 190.335 37.3138 190.635 37.7089C190.987 38.1184 191.423 38.4461 191.912 38.6695C192.476 38.9504 193.341 39.3128 194.507 39.7566C195.5 40.1411 196.472 40.5811 197.417 41.0745C198.141 41.4601 198.772 42.0021 199.265 42.6621C199.753 43.3193 199.997 44.1339 199.998 45.1058C199.998 46.6068 199.455 47.7966 198.367 48.6752C197.279 49.5539 195.779 49.9932 193.867 49.9932C192.715 50.0187 191.57 49.8101 190.5 49.3797Z" fill="white"/>
<path d="M28.6812 33.9521C29.9801 33.9503 31.2253 33.4277 32.1435 32.4988C33.0618 31.57 33.5783 30.3107 33.5796 28.9973H31.7079C31.6894 29.7968 31.3623 30.5572 30.7965 31.116C30.2308 31.6748 29.4713 31.9877 28.6804 31.9877C27.8896 31.9877 27.1301 31.6748 26.5643 31.116C25.9986 30.5572 25.6715 29.7968 25.6529 28.9973H23.7812C23.7826 30.311 24.2992 31.5705 25.2179 32.4994C26.1365 33.4283 27.3821 33.9508 28.6812 33.9521Z" fill="white"/>
<path d="M28.6818 41.9506C32.0788 41.9466 35.3356 40.5809 37.7384 38.1528C40.1412 35.7247 41.4939 32.4323 41.5001 28.9973H39.6201C39.6201 31.9308 38.4677 34.7441 36.4164 36.8184C34.365 38.8927 31.5828 40.058 28.6818 40.058C25.7808 40.058 22.9985 38.8927 20.9472 36.8184C18.8959 34.7441 17.7435 31.9308 17.7435 28.9973H15.8701C15.8763 32.4311 17.2281 35.7225 19.6295 38.1504C22.0308 40.5783 25.286 41.9448 28.6818 41.9506Z" fill="white"/>
<path d="M14.0284 43.818C16.9263 46.7481 20.6185 48.7435 24.6379 49.5518C28.6573 50.3602 32.8235 49.9453 36.6097 48.3595C40.3959 46.7737 43.632 44.0883 45.909 40.6428C48.1859 37.1973 49.4014 33.1464 49.4017 29.0024H47.53C47.4833 34.0264 45.4769 38.8286 41.947 42.3645C38.4172 45.9004 33.6495 47.8841 28.6809 47.8841C23.7122 47.8841 18.9446 45.9004 15.4147 42.3645C11.8849 38.8286 9.87843 34.0264 9.83171 29.0024H7.96004C7.95253 31.755 8.485 34.4818 9.52663 37.0249C10.5683 39.568 12.0984 41.8769 14.0284 43.818Z" fill="white"/>
<path d="M2.25341 40.2789C4.8269 46.4479 9.43192 51.5265 15.287 54.653C21.1422 57.7794 27.8867 58.7611 34.3761 57.4314C40.8656 56.1018 46.7002 52.5426 50.8898 47.358C55.0795 42.1734 57.3661 35.6827 57.3617 28.9873H55.4901C55.4901 43.9343 43.4634 56.0955 28.6817 56.0955C14.2017 56.0955 2.36674 44.4281 1.88674 29.9041C1.87896 29.6585 1.77708 29.4256 1.60261 29.2545C1.42815 29.0834 1.19476 28.9876 0.951744 28.9873C0.826318 28.9872 0.702158 29.0127 0.58663 29.062C0.471101 29.1114 0.366557 29.1838 0.279198 29.2748C0.19184 29.3658 0.123447 29.4736 0.0780769 29.5918C0.0327066 29.7101 0.0112831 29.8363 0.0150771 29.9631C0.126172 33.5118 0.885033 37.0091 2.25341 40.2789Z" fill="white"/>
<path d="M36.5982 24.0479C35.2991 24.0492 34.0535 24.5716 33.1349 25.5006C32.2162 26.4295 31.6996 27.689 31.6982 29.0027C31.6982 30.4133 33.5699 30.4133 33.5699 29.0027C33.5699 28.1905 33.889 27.4116 34.4569 26.8374C35.0248 26.2631 35.7951 25.9405 36.5982 25.9405C37.4014 25.9405 38.1717 26.2631 38.7396 26.8374C39.3075 27.4116 39.6266 28.1905 39.6266 29.0027H41.4999C41.4986 27.6887 40.9817 26.4289 40.0627 25.5C39.1437 24.571 37.8977 24.0487 36.5982 24.0479Z" fill="white"/>
<path d="M36.5981 16.0476C33.2023 16.0538 29.9473 17.4208 27.5463 19.849C25.1452 22.2773 23.7938 25.5688 23.7881 29.0026H25.6664C25.6664 26.0691 26.8188 23.2558 28.8702 21.1815C30.9215 19.1072 33.7037 17.9419 36.6048 17.9419C39.5058 17.9419 42.288 19.1072 44.3393 21.1815C46.3907 23.2558 47.5431 26.0691 47.5431 29.0026H49.4148C49.409 25.5676 48.0567 22.2751 45.6542 19.8467C43.2517 17.4182 39.9951 16.0521 36.5981 16.0476Z" fill="white"/>
<path d="M51.2493 14.1854C48.3512 11.2553 44.659 9.25984 40.6394 8.45153C36.6198 7.64322 32.4535 8.05831 28.6672 9.64431C24.881 11.2303 21.6448 13.916 19.368 17.3617C17.0912 20.8075 15.8759 24.8586 15.876 29.0027H17.7493C17.7493 23.9479 19.7351 19.1001 23.2699 15.5258C26.8046 11.9515 31.5988 9.94351 36.5976 9.94351C41.5965 9.94351 46.3907 11.9515 49.9254 15.5258C53.4602 19.1001 55.446 23.9479 55.446 29.0027H57.3193C57.3269 26.2497 56.7943 23.5225 55.7524 20.9791C54.7105 18.4357 53.1799 16.1266 51.2493 14.1854Z" fill="white"/>
<path d="M63.0244 17.7127C60.4509 11.5437 55.8458 6.46506 49.9907 3.33861C44.1356 0.212157 37.3911 -0.769525 30.9016 0.560149C24.4122 1.88982 18.5776 5.44894 14.3879 10.6335C10.1983 15.8182 7.91162 22.3089 7.91602 29.0043H9.78936C9.78936 14.0556 21.816 1.89435 36.5977 1.89435C51.076 1.89435 62.911 13.5618 63.391 28.0875C63.3988 28.3331 63.5007 28.566 63.6752 28.7371C63.8496 28.9082 64.083 29.004 64.326 29.0043C64.4514 29.0043 64.5756 28.9789 64.6911 28.9295C64.8067 28.8802 64.9112 28.8078 64.9986 28.7168C65.0859 28.6258 65.1543 28.518 65.1997 28.3997C65.2451 28.2815 65.2665 28.1553 65.2627 28.0285C65.153 24.4796 64.3941 20.982 63.0244 17.7127Z" fill="white"/>
</g>
<defs>
<clipPath id="clip0_447_642">
<rect width="200" height="58" fill="white"/>
</clipPath>
</defs>
</svg>
