<svg width="169" height="40" viewBox="0 0 169 40" fill="none" xmlns="http://www.w3.org/2000/svg">
<g clip-path="url(#clip0_2415_11249)">
<path d="M59 20.3886C59 25.2694 57.8029 29.873 55.6838 33.9214C55.4996 33.8938 55.3099 33.8651 55.1157 33.8364C54.9837 33.8176 54.8528 33.7989 54.7174 33.7801C53.9752 33.6763 53.1597 33.5759 52.2876 33.4931C52.129 33.4776 51.9681 33.4643 51.8061 33.4511C51.6386 33.4379 51.4677 33.4235 51.2969 33.4103C51.136 33.3981 50.974 33.3882 50.8098 33.3782C50.4703 33.3562 50.1253 33.3374 49.7735 33.3241C49.5971 33.3175 49.4218 33.312 49.2421 33.3076C49.0624 33.3021 48.8815 33.2987 48.7007 33.2954C48.5198 33.2932 48.3368 33.2921 48.1526 33.2921C47.1419 33.2921 46.0912 33.3308 45.0194 33.4224C44.833 33.439 44.6466 33.4566 44.4614 33.4754C42.6085 33.6675 40.6913 34.023 38.7808 34.6169C38.5789 34.6798 38.3781 34.7439 38.1784 34.8123C36.1669 35.4924 34.1709 36.4451 32.2704 37.7545C32.0795 37.8859 31.8909 38.0194 31.7023 38.1585C31.233 38.5052 30.7681 38.8739 30.3121 39.2658C30.0392 39.5021 29.7674 39.7472 29.4989 40C29.2304 39.7472 28.9597 39.5021 28.6856 39.2658C28.2296 38.8728 27.7648 38.5052 27.2955 38.1585C27.1057 38.0194 26.9182 37.8847 26.7274 37.7545C24.8269 36.444 22.8309 35.4913 20.8194 34.8123C20.6197 34.7439 20.4178 34.6798 20.217 34.6169C18.3064 34.0219 16.3893 33.6675 14.5364 33.4754C14.35 33.4566 14.1647 33.4401 13.9784 33.4224C12.9066 33.3308 11.8559 33.2921 10.8452 33.2921C10.661 33.2921 10.4779 33.2943 10.2971 33.2954C10.1163 33.2987 9.93541 33.3021 9.75567 33.3076C9.57593 33.3131 9.40064 33.3175 9.22423 33.3241C8.87252 33.3374 8.52747 33.3562 8.18797 33.3782C8.02377 33.3882 7.86178 33.3981 7.70091 33.4103C7.53005 33.4235 7.35919 33.4379 7.19166 33.4511C7.02967 33.4643 6.8688 33.4787 6.71014 33.4931C5.83809 33.5759 5.02262 33.6763 4.28038 33.7801C4.14502 33.7989 4.0141 33.8176 3.88208 33.8364C3.68792 33.8651 3.49819 33.8938 3.31402 33.9214C1.19713 29.8719 0 25.2694 0 20.3886C5.52855 20.3886 22.7654 20.7805 29.5 28.7933C36.2346 20.7805 53.4715 20.3886 59 20.3886Z" fill="white"/>
<path d="M29.5 20.3886C35.1581 20.3886 39.7449 15.8245 39.7449 10.1943C39.7449 4.56414 35.1581 0 29.5 0C23.8418 0 19.255 4.56414 19.255 10.1943C19.255 15.8245 23.8418 20.3886 29.5 20.3886Z" fill="white"/>
</g>
<path d="M77.484 6.088V8.552H74.852V16H71.744V8.552H69.14V6.088H77.484ZM83.311 16L81.449 12.444H81.435V16H78.327V6.088H82.947C83.7496 6.088 84.4356 6.23267 85.005 6.522C85.5743 6.802 85.999 7.18933 86.279 7.684C86.5683 8.16933 86.713 8.72 86.713 9.336C86.713 9.99867 86.5263 10.5867 86.153 11.1C85.789 11.6133 85.2616 11.982 84.571 12.206L86.727 16H83.311ZM81.435 10.372H82.667C82.9656 10.372 83.1896 10.3067 83.339 10.176C83.4883 10.036 83.563 9.82133 83.563 9.532C83.563 9.27067 83.4836 9.06533 83.325 8.916C83.1756 8.76667 82.9563 8.692 82.667 8.692H81.435V10.372ZM92.8299 0.18L94.2999 1.384L92.4239 3.26L91.3179 2.462L92.8299 0.18ZM89.9739 3.26H91.5279C91.5465 3.53067 91.6305 3.71267 91.7799 3.806C91.9292 3.89933 92.1532 3.946 92.4519 3.946C92.7505 3.946 92.9745 3.89933 93.1239 3.806C93.2732 3.71267 93.3572 3.53067 93.3759 3.26H94.9299C94.9205 3.57733 94.8739 3.87133 94.7899 4.142C94.7059 4.41267 94.5659 4.65067 94.3699 4.856C94.1832 5.06133 93.9359 5.22467 93.6279 5.346C93.3292 5.458 92.9465 5.514 92.4799 5.514H92.4239C91.9665 5.514 91.5839 5.458 91.2759 5.346C90.9679 5.22467 90.7159 5.06133 90.5199 4.856C90.3332 4.65067 90.1979 4.41267 90.1139 4.142C90.0392 3.87133 89.9925 3.57733 89.9739 3.26ZM94.0619 14.502H90.7579L90.2679 16H87.0059L90.6319 6.088H94.2159L97.8279 16H94.5519L94.0619 14.502ZM93.3059 12.164L92.4099 9.406L91.5139 12.164H93.3059ZM98.254 11.03C98.254 10.05 98.45 9.17733 98.842 8.412C99.2433 7.64667 99.8127 7.054 100.55 6.634C101.287 6.20467 102.155 5.99 103.154 5.99C104.013 5.99 104.778 6.15333 105.45 6.48C106.131 6.79733 106.682 7.25 107.102 7.838C107.531 8.426 107.816 9.112 107.956 9.896H104.68C104.531 9.56933 104.316 9.31733 104.036 9.14C103.765 8.95333 103.453 8.86 103.098 8.86C102.575 8.86 102.16 9.056 101.852 9.448C101.553 9.84 101.404 10.3673 101.404 11.03C101.404 11.6927 101.553 12.22 101.852 12.612C102.16 13.004 102.575 13.2 103.098 13.2C103.453 13.2 103.765 13.1113 104.036 12.934C104.316 12.7473 104.531 12.4907 104.68 12.164H107.956C107.816 12.948 107.531 13.634 107.102 14.222C106.682 14.81 106.131 15.2673 105.45 15.594C104.778 15.9113 104.013 16.07 103.154 16.07C102.155 16.07 101.287 15.86 100.55 15.44C99.8127 15.0107 99.2433 14.4133 98.842 13.648C98.45 12.8827 98.254 12.01 98.254 11.03ZM120.96 16H117.852L114.562 11.016V16H111.454V6.088H114.562L117.852 11.156V6.088H120.96V16ZM128.44 9.476C128.319 9.28 128.146 9.13067 127.922 9.028C127.698 8.916 127.427 8.86 127.11 8.86C126.513 8.86 126.051 9.056 125.724 9.448C125.397 9.83067 125.234 10.358 125.234 11.03C125.234 11.8047 125.416 12.3833 125.78 12.766C126.144 13.1487 126.704 13.34 127.46 13.34C128.179 13.34 128.757 13.0507 129.196 12.472H126.718V10.274H131.772V13.382C131.343 14.1193 130.75 14.754 129.994 15.286C129.238 15.8087 128.281 16.07 127.124 16.07C126.097 16.07 125.201 15.86 124.436 15.44C123.68 15.0107 123.097 14.4133 122.686 13.648C122.285 12.8827 122.084 12.01 122.084 11.03C122.084 10.05 122.285 9.17733 122.686 8.412C123.097 7.64667 123.68 7.054 124.436 6.634C125.192 6.20467 126.079 5.99 127.096 5.99C128.393 5.99 129.448 6.30267 130.26 6.928C131.081 7.55333 131.567 8.40267 131.716 9.476H128.44ZM142.061 6.088V16H138.953V12.136H135.999V16H132.891V6.088H135.999V9.658H138.953V6.088H142.061ZM146.568 6.088V16H143.46V6.088H146.568ZM151.079 8.566V9.784H154.159V12.122H151.079V13.522H154.579V16H147.971V6.088H154.579V8.566H151.079ZM151.149 19.108C150.813 19.108 150.529 18.9913 150.295 18.758C150.071 18.534 149.959 18.254 149.959 17.918C149.959 17.5727 150.071 17.2833 150.295 17.05C150.529 16.8167 150.813 16.7 151.149 16.7C151.504 16.7 151.793 16.812 152.017 17.036C152.251 17.2693 152.367 17.5633 152.367 17.918C152.367 18.254 152.251 18.534 152.017 18.758C151.784 18.9913 151.495 19.108 151.149 19.108ZM148.979 5.514L148.643 4.1L151.023 2.532H151.303L153.683 4.1L153.347 5.514L151.163 4.618L148.979 5.514ZM167.665 6.088V16H164.571V11.058L163.045 16H160.385L158.859 11.058V16H155.751V6.088H159.559L161.743 12.038L163.871 6.088H167.665ZM77.484 23.088V25.552H74.852V33H71.744V25.552H69.14V23.088H77.484ZM87.497 23.088V33H84.389V29.136H81.435V33H78.327V23.088H81.435V26.658H84.389V23.088H87.497ZM93.7253 33.098C92.792 33.098 91.9333 32.8787 91.1493 32.44C90.3746 32.0013 89.7586 31.3947 89.3013 30.62C88.844 29.8453 88.6153 28.9727 88.6153 28.002C88.6153 27.0313 88.844 26.1587 89.3013 25.384C89.7586 24.6093 90.3746 24.0073 91.1493 23.578C91.9333 23.1393 92.792 22.92 93.7253 22.92C94.6586 22.92 95.5126 23.1393 96.2873 23.578C97.062 24.0073 97.6733 24.6093 98.1213 25.384C98.5786 26.1587 98.8073 27.0313 98.8073 28.002C98.8073 28.9727 98.5786 29.8453 98.1213 30.62C97.6733 31.3947 97.0573 32.0013 96.2733 32.44C95.4986 32.8787 94.6493 33.098 93.7253 33.098ZM93.7253 30.2C94.3413 30.2 94.8173 30.004 95.1533 29.612C95.4893 29.2107 95.6573 28.674 95.6573 28.002C95.6573 27.3207 95.4893 26.784 95.1533 26.392C94.8173 25.9907 94.3413 25.79 93.7253 25.79C93.1 25.79 92.6193 25.9907 92.2833 26.392C91.9473 26.784 91.7793 27.3207 91.7793 28.002C91.7793 28.674 91.9473 29.2107 92.2833 29.612C92.6193 30.004 93.1 30.2 93.7253 30.2ZM91.5273 22.514L91.1913 21.1L93.5713 19.532H93.8513L96.2313 21.1L95.8953 22.514L93.7113 21.618L91.5273 22.514ZM109.435 33H106.327L103.037 28.016V33H99.9285V23.088H103.037L106.327 28.156V23.088H109.435V33ZM116.915 26.476C116.793 26.28 116.621 26.1307 116.397 26.028C116.173 25.916 115.902 25.86 115.585 25.86C114.987 25.86 114.525 26.056 114.199 26.448C113.872 26.8307 113.709 27.358 113.709 28.03C113.709 28.8047 113.891 29.3833 114.255 29.766C114.619 30.1487 115.179 30.34 115.935 30.34C116.653 30.34 117.232 30.0507 117.671 29.472H115.193V27.274H120.247V30.382C119.817 31.1193 119.225 31.754 118.469 32.286C117.713 32.8087 116.756 33.07 115.599 33.07C114.572 33.07 113.676 32.86 112.911 32.44C112.155 32.0107 111.571 31.4133 111.161 30.648C110.759 29.8827 110.559 29.01 110.559 28.03C110.559 27.05 110.759 26.1773 111.161 25.412C111.571 24.6467 112.155 24.054 112.911 23.634C113.667 23.2047 114.553 22.99 115.571 22.99C116.868 22.99 117.923 23.3027 118.735 23.928C119.556 24.5533 120.041 25.4027 120.191 26.476H116.915ZM135.659 23.088V33H132.565V28.058L131.039 33H128.379L126.853 28.058V33H123.745V23.088H127.553L129.737 29.038L131.865 23.088H135.659ZM140.169 23.088V33H137.061V23.088H140.169ZM151.079 33H147.971L144.681 28.016V33H141.573V23.088H144.681L147.971 28.156V23.088H151.079V33ZM161.653 23.088V33H158.545V29.136H155.591V33H152.483V23.088H155.591V26.658H158.545V23.088H161.653Z" fill="white"/>
<defs>
<clipPath id="clip0_2415_11249">
<rect width="59" height="40" fill="white"/>
</clipPath>
</defs>
</svg>
