<svg width="120" height="112" viewBox="0 0 120 112" fill="none" xmlns="http://www.w3.org/2000/svg">
<g clip-path="url(#clip0_550_261)">
<path d="M9.68586 77.4016C10.2089 77.4016 10.4614 77.6532 10.4614 78.1565V79.7741C10.4614 80.2953 10.2089 80.5469 9.68586 80.5469H7.01638V89.4077C7.01638 89.911 6.76387 90.1626 6.24079 90.1626H4.20262C3.69758 90.1626 3.44506 89.911 3.44506 89.4077V80.5469H0.757553C0.252518 80.5469 0 80.2953 0 79.7741V78.1565C0 77.6532 0.252518 77.4016 0.757553 77.4016H9.68586Z" fill="#121212"/>
<path d="M17.4777 77.4016C18.8665 77.4016 19.9487 77.7791 20.7423 78.516C21.554 79.2888 21.9689 80.3492 21.9689 81.7332C21.9689 83.4766 21.3195 84.7167 20.0209 85.4356C20.2193 85.6693 20.3816 85.9389 20.5079 86.2085L22.1312 89.2819C22.2575 89.5335 22.2935 89.7492 22.2214 89.911C22.1312 90.0727 21.9508 90.1626 21.6622 90.1626H19.7142C18.8665 90.1626 18.3254 89.875 18.0548 89.2999L16.9005 86.8375C16.5938 86.2265 16.1429 85.9209 15.5477 85.9209H15.1328V89.4077C15.1328 89.911 14.8803 90.1626 14.3753 90.1626H12.3371C11.814 90.1626 11.5615 89.911 11.5615 89.4077V78.1565C11.5615 77.6532 11.814 77.4016 12.3371 77.4016H17.4777ZM17.0808 80.5469H15.1328V82.9194H17.0808C17.8745 82.9194 18.2713 82.524 18.2713 81.7152C18.2713 80.9064 17.8745 80.5469 17.0808 80.5469Z" fill="#121212"/>
<path d="M34.8837 89.4257C35.0641 89.911 34.8837 90.1626 34.3607 90.1626H32.4127C31.6371 90.1626 31.1862 89.911 31.0599 89.4077L30.645 88.1137H26.7491L26.3342 89.4077C26.244 89.6953 26.1178 89.893 25.9554 90.0009C25.757 90.1087 25.4504 90.1626 25.0175 90.1626H23.1236C22.6186 90.1626 22.4563 89.911 22.6366 89.4257L26.7851 78.0307C26.9294 77.6173 27.2361 77.4016 27.7231 77.4016H29.7793C30.2482 77.4016 30.5549 77.5993 30.7172 77.9948L34.8837 89.4257ZM28.7331 76.5749C27.0918 76.5749 26.0456 75.9458 25.5586 74.6697C25.4504 74.3821 25.5586 74.1665 25.8652 74.0407L27.0557 73.5913C27.3623 73.4835 27.5788 73.5554 27.7411 73.807C27.9395 74.2024 28.2822 74.4001 28.7331 74.4001C29.148 74.4001 29.4726 74.2024 29.7071 73.807C29.8695 73.5733 30.0859 73.5015 30.3565 73.5913L31.619 74.0407C31.9437 74.1665 32.0519 74.3821 31.9257 74.6697C31.4387 75.9458 30.3745 76.5749 28.7331 76.5749ZM30.1941 70.3741C30.6811 70.0686 31.0779 70.0865 31.3846 70.4101L32.3405 71.4166C32.6472 71.7581 32.6291 72.0097 32.2503 72.1355L29.0037 73.2139C28.5888 73.3577 28.3002 73.3397 28.174 73.16L27.6509 72.5669C27.4164 72.2613 27.4164 72.0456 27.687 71.8839L30.1941 70.3741ZM29.166 83.189C28.9315 82.3802 28.7872 81.5355 28.7692 80.6728H28.5888C28.6069 81.5355 28.4806 82.3622 28.2461 83.171L27.5788 85.2919H29.8334L29.166 83.189Z" fill="#121212"/>
<path d="M35.5869 82.1646C35.5869 80.6009 36.0739 79.3608 37.0299 78.4801C38.0039 77.5814 39.3747 77.1321 41.1423 77.1321C43.8659 77.1321 45.6155 78.1745 46.4091 80.2774C46.5714 80.7627 46.4091 81.0862 45.9221 81.2479L43.9921 81.9309C43.7036 82.0208 43.5051 82.0208 43.3789 81.9489C43.2346 81.895 43.1083 81.7152 43.0181 81.4456C42.7115 80.6728 42.0802 80.2774 41.1423 80.2774C39.8256 80.2774 39.1582 80.9065 39.1582 82.1466V85.4177C39.1582 86.6579 39.8256 87.2869 41.1423 87.2869C42.0983 87.2869 42.7296 86.8915 43.0181 86.1187C43.1264 85.8311 43.2526 85.6514 43.3789 85.5975C43.5232 85.5256 43.7216 85.5435 43.9921 85.6334L45.9221 86.3164C46.4091 86.4781 46.5714 86.8017 46.4091 87.2869C45.6155 89.3898 43.8659 90.4322 41.1423 90.4322C39.3747 90.4322 38.0039 89.9829 37.0299 89.0843C36.0739 88.2036 35.5869 86.9634 35.5869 85.3998V82.1646Z" fill="#121212"/>
<path d="M63.7062 77.4016C64.2113 77.4016 64.4638 77.6532 64.4638 78.1565V89.4077C64.4638 89.911 64.2113 90.1626 63.7062 90.1626H61.6681C61.3254 90.1626 61.0909 90.0368 60.9285 89.8031L58.1508 85.5435C57.5556 84.6089 57.0326 83.3687 56.5636 81.841H56.4193C56.8161 83.6563 57.0145 85.202 57.0145 86.4781V89.4077C57.0145 89.911 56.762 90.1626 56.2389 90.1626H54.4172C53.8941 90.1626 53.6416 89.911 53.6416 89.4077V78.1565C53.6416 77.6532 53.8941 77.4016 54.4172 77.4016H56.5456C56.8883 77.4016 57.1408 77.5274 57.3031 77.7611L60.2612 82.3622C60.4957 82.7397 61.0007 83.836 61.7763 85.6513H61.9206C61.3795 83.9079 61.1089 82.3982 61.1089 81.1041V78.1565C61.1089 77.6532 61.3614 77.4016 61.8665 77.4016H63.7062Z" fill="#121212"/>
<path d="M76.2961 82.8296C76.8012 82.8296 77.0537 83.0812 77.0537 83.6024V85.9749C77.0537 87.2869 76.5667 88.3474 75.6107 89.1561C74.6187 90.0009 73.2479 90.4322 71.5163 90.4322C69.7848 90.4322 68.3779 89.9829 67.4039 89.0843C66.4479 88.2036 65.9609 86.9634 65.9609 85.3998V82.1646C65.9609 80.6009 66.4479 79.3608 67.4039 78.4801C68.3779 77.5814 69.7487 77.1321 71.5163 77.1321C74.2399 77.1321 75.9895 78.1745 76.7831 80.2774C76.9455 80.7627 76.7831 81.0862 76.2961 81.2479L74.3662 81.9309C74.0956 82.0208 73.8792 82.0208 73.7529 81.9669C73.6086 81.895 73.4824 81.7152 73.3922 81.4456C73.0855 80.6728 72.4542 80.2774 71.5163 80.2774C70.1996 80.2774 69.5323 80.9065 69.5323 82.1466V85.4177C69.5323 86.6579 70.1996 87.2869 71.5163 87.2869C72.833 87.2869 73.4643 86.8736 73.4643 86.0648V85.7053H71.7328C71.2277 85.7053 70.9752 85.4537 70.9752 84.9504V83.6024C70.9752 83.0812 71.2277 82.8296 71.7328 82.8296H76.2961Z" fill="#121212"/>
<path d="M88.3628 77.3837C88.8678 77.3837 89.1203 77.6353 89.1203 78.1565V89.4077C89.1203 89.911 88.8678 90.1626 88.3628 90.1626H86.3066C85.8015 90.1626 85.549 89.911 85.549 89.4077V85.2739H82.0498V89.4077C82.0498 89.911 81.7973 90.1626 81.2923 90.1626H79.2541C78.731 90.1626 78.4785 89.911 78.4785 89.4077V78.1565C78.4785 77.6353 78.731 77.3837 79.2541 77.3837H81.2923C81.7973 77.3837 82.0498 77.6353 82.0498 78.1565V82.1286H85.549V78.1565C85.549 77.6353 85.8015 77.3837 86.3066 77.3837H88.3628Z" fill="#121212"/>
<path d="M90.9229 78.1205C90.9229 77.6353 91.1573 77.4016 91.6443 77.4016H93.7727C94.2597 77.4016 94.4942 77.6353 94.4942 78.1205V89.4437C94.4942 89.9289 94.2597 90.1626 93.7727 90.1626H91.6443C91.1573 90.1626 90.9229 89.9289 90.9229 89.4437V78.1205Z" fill="#121212"/>
<path d="M104.65 77.4016C105.174 77.4016 105.426 77.6532 105.426 78.1565V79.7741C105.426 80.2953 105.174 80.5469 104.65 80.5469H99.8887V82.1465H103.695C104.218 82.1465 104.47 82.3981 104.47 82.9014V84.519C104.47 85.0402 104.218 85.2918 103.695 85.2918H99.8887V87.0173H104.813C105.318 87.0173 105.57 87.2689 105.57 87.7721V89.4077C105.57 89.9109 105.318 90.1626 104.813 90.1626H97.093C96.5699 90.1626 96.3174 89.9109 96.3174 89.4077V78.1565C96.3174 77.6532 96.5699 77.4016 97.093 77.4016H104.65ZM101.186 73.6093C101.673 73.6093 102.105 73.789 102.466 74.1484L104.306 75.9817C104.468 76.1435 104.522 76.2693 104.504 76.3951C104.468 76.5209 104.306 76.5928 104.035 76.5928H102.52C101.925 76.5928 101.528 76.467 101.33 76.2154L100.807 75.5683L100.248 76.1974C100.013 76.467 99.6344 76.5928 99.0752 76.5928H97.7405C97.4699 76.5928 97.3076 76.5209 97.2715 76.3951C97.2535 76.2693 97.3076 76.1435 97.4699 75.9817L99.3097 74.1484C99.6524 73.789 100.121 73.6093 100.681 73.6093H101.186ZM101.222 91.5106C101.636 91.5106 101.925 91.6004 102.087 91.7622C102.25 91.9239 102.322 92.2115 102.322 92.6249V93.2C102.322 93.6134 102.25 93.883 102.087 94.0448C101.925 94.2065 101.636 94.2784 101.222 94.2784H100.699C100.284 94.2784 99.9771 94.2065 99.8148 94.0448C99.6524 93.883 99.5803 93.6134 99.5803 93.2V92.6249C99.5803 92.2115 99.6524 91.9239 99.8148 91.7622C99.9771 91.6004 100.284 91.5106 100.699 91.5106H101.222Z" fill="#121212"/>
<path d="M119.224 77.3837C119.747 77.3837 120 77.6353 120 78.1385V89.4257C120 89.911 119.747 90.1626 119.224 90.1626H117.258C116.753 90.1626 116.5 89.911 116.5 89.4257V86.8555C116.5 85.5615 116.771 83.9978 117.294 82.1466H117.096C116.789 83.1531 116.392 84.1416 115.887 85.1121L114.877 87.1431C114.679 87.4846 114.39 87.6643 114.011 87.6643H112.803C112.406 87.6643 112.117 87.4846 111.937 87.1431L110.873 85.1121C110.494 84.4471 110.133 83.4586 109.755 82.1466H109.574C110.061 84.1056 110.314 85.6873 110.314 86.8735V89.4257C110.314 89.911 110.061 90.1626 109.538 90.1626H107.698C107.175 90.1626 106.923 89.911 106.923 89.4257V78.1385C106.923 77.6353 107.175 77.3837 107.698 77.3837H109.394C109.899 77.3837 110.26 77.5634 110.458 77.9408L113.434 83.7642L116.41 77.9588C116.609 77.5814 116.951 77.3837 117.42 77.3837H119.224Z" fill="#121212"/>
<path d="M14.3392 98.9695C14.8622 98.9695 15.1148 99.2211 15.1148 99.7243V101.342C15.1148 101.863 14.8622 102.115 14.3392 102.115H11.6697V110.976C11.6697 111.479 11.4172 111.73 10.8941 111.73H8.85594C8.3509 111.73 8.09838 111.479 8.09838 110.976V102.115H5.41087C4.90584 102.115 4.65332 101.863 4.65332 101.342V99.7243C4.65332 99.2211 4.90584 98.9695 5.41087 98.9695H14.3392Z" fill="#121212"/>
<path d="M26.0991 98.9515C26.6041 98.9515 26.8567 99.2032 26.8567 99.7244V110.976C26.8567 111.479 26.6041 111.73 26.0991 111.73H24.0429C23.5379 111.73 23.2853 111.479 23.2853 110.976V106.842H19.7862V110.976C19.7862 111.479 19.5336 111.73 19.0286 111.73H16.9904C16.4674 111.73 16.2148 111.479 16.2148 110.976V99.7244C16.2148 99.2032 16.4674 98.9515 16.9904 98.9515H19.0286C19.5336 98.9515 19.7862 99.2032 19.7862 99.7244V103.696H23.2853V99.7244C23.2853 99.2032 23.5379 98.9515 24.0429 98.9515H26.0991Z" fill="#121212"/>
<path d="M28.3545 103.732C28.3545 102.169 28.8415 100.929 29.7975 100.048C30.7714 99.1492 32.1423 98.6999 33.9099 98.6999C35.6775 98.6999 37.0303 99.1492 38.0043 100.048C38.9602 100.929 39.4472 102.169 39.4472 103.732V106.968C39.4472 108.531 38.9602 109.771 38.0043 110.652C37.0303 111.551 35.6595 112 33.9099 112C32.1603 112 30.7714 111.551 29.7975 110.652C28.8415 109.771 28.3545 108.531 28.3545 106.968V103.732ZM34.2706 95.0154C34.7576 95.0154 35.1905 95.1951 35.5693 95.5546L37.4091 97.3878C37.5714 97.5496 37.6255 97.6754 37.6075 97.8012C37.5714 97.927 37.4091 97.9989 37.1385 97.9989H35.6234C35.0101 97.9989 34.6133 97.8731 34.433 97.6215L33.9099 96.9745L33.3507 97.6035C33.1163 97.8731 32.7194 97.9989 32.1603 97.9989H30.7534C30.4829 97.9989 30.3205 97.927 30.2844 97.8012C30.2664 97.6754 30.3205 97.5496 30.4829 97.3878L32.3226 95.5546C32.6653 95.1951 33.1343 95.0154 33.6934 95.0154H34.2706ZM35.8759 103.571C35.8759 102.42 35.2266 101.845 33.9099 101.845C32.5932 101.845 31.9258 102.42 31.9258 103.571V107.129C31.9258 108.28 32.5932 108.855 33.9099 108.855C35.2266 108.855 35.8759 108.28 35.8759 107.129V103.571Z" fill="#121212"/>
<path d="M51.0265 98.9695C51.5316 98.9695 51.7841 99.2211 51.7841 99.7243V110.976C51.7841 111.479 51.5316 111.73 51.0265 111.73H48.9884C48.6457 111.73 48.4112 111.605 48.2489 111.371L45.4712 107.111C44.8759 106.177 44.3529 104.937 43.8839 103.409H43.7396C44.1364 105.224 44.3348 106.77 44.3348 108.046V110.976C44.3348 111.479 44.0823 111.73 43.5592 111.73H41.7375C41.2144 111.73 40.9619 111.479 40.9619 110.976V99.7243C40.9619 99.2211 41.2144 98.9695 41.7375 98.9695H43.8659C44.2086 98.9695 44.4611 99.0953 44.6234 99.3289L47.5815 103.93C47.816 104.308 48.321 105.404 49.0966 107.219H49.2409C48.6998 105.476 48.4292 103.966 48.4292 102.672V99.7243C48.4292 99.2211 48.6817 98.9695 49.1868 98.9695H51.0265Z" fill="#121212"/>
<path d="M63.6164 104.397C64.1215 104.397 64.374 104.649 64.374 105.17V107.543C64.374 108.855 63.887 109.915 62.931 110.724C61.939 111.569 60.5682 112 58.8366 112C57.1051 112 55.6982 111.551 54.7242 110.652C53.7682 109.771 53.2812 108.531 53.2812 106.968V103.732C53.2812 102.169 53.7682 100.929 54.7242 100.048C55.6982 99.1492 57.069 98.6998 58.8366 98.6998C61.5602 98.6998 63.3098 99.7423 64.1034 101.845C64.2658 102.33 64.1034 102.654 63.6164 102.816L61.6865 103.499C61.4159 103.589 61.1995 103.589 61.0732 103.535C60.9289 103.463 60.8027 103.283 60.7125 103.013C60.4059 102.241 59.7746 101.845 58.8366 101.845C57.5199 101.845 56.8526 102.474 56.8526 103.714V106.985C56.8526 108.226 57.5199 108.855 58.8366 108.855C60.1533 108.855 60.7846 108.441 60.7846 107.633V107.273H59.0531C58.548 107.273 58.2955 107.021 58.2955 106.518V105.17C58.2955 104.649 58.548 104.397 59.0531 104.397H63.6164Z" fill="#121212"/>
<path d="M84.1069 98.9515C84.63 98.9515 84.8825 99.2032 84.8825 99.7064V110.994C84.8825 111.479 84.63 111.73 84.1069 111.73H82.1408C81.6358 111.73 81.3833 111.479 81.3833 110.994V108.423C81.3833 107.129 81.6539 105.566 82.1769 103.714H81.9785C81.6719 104.721 81.2751 105.709 80.77 106.68L79.76 108.711C79.5616 109.052 79.273 109.232 78.8942 109.232H77.6857C77.2889 109.232 77.0003 109.052 76.8199 108.711L75.7558 106.68C75.377 106.015 75.0162 105.026 74.6375 103.714H74.4571C74.9441 105.674 75.1966 107.255 75.1966 108.441V110.994C75.1966 111.479 74.9441 111.73 74.421 111.73H72.5813C72.0582 111.73 71.8057 111.479 71.8057 110.994V99.7064C71.8057 99.2032 72.0582 98.9515 72.5813 98.9515H74.2767C74.7818 98.9515 75.1425 99.1313 75.3409 99.5087L78.317 105.332L81.2931 99.5267C81.4915 99.1492 81.8342 98.9515 82.3032 98.9515H84.1069Z" fill="#121212"/>
<path d="M86.6836 99.6884C86.6836 99.2031 86.9181 98.9695 87.4051 98.9695H89.5334C90.0204 98.9695 90.2549 99.2031 90.2549 99.6884V111.012C90.2549 111.497 90.0204 111.73 89.5334 111.73H87.4051C86.9181 111.73 86.6836 111.497 86.6836 111.012V99.6884Z" fill="#121212"/>
<path d="M102.144 98.9695C102.649 98.9695 102.901 99.2211 102.901 99.7243V110.976C102.901 111.479 102.649 111.73 102.144 111.73H100.106C99.7629 111.73 99.5284 111.605 99.366 111.371L96.5883 107.111C95.9931 106.177 95.4701 104.937 95.0011 103.409H94.8568C95.2536 105.224 95.452 106.77 95.452 108.046V110.976C95.452 111.479 95.1995 111.73 94.6764 111.73H92.8547C92.3316 111.73 92.0791 111.479 92.0791 110.976V99.7243C92.0791 99.2211 92.3316 98.9695 92.8547 98.9695H94.9831C95.3258 98.9695 95.5783 99.0953 95.7406 99.3289L98.6987 103.93C98.9332 104.308 99.4382 105.404 100.214 107.219H100.358C99.817 105.476 99.5464 103.966 99.5464 102.672V99.7243C99.5464 99.2211 99.7989 98.9695 100.304 98.9695H102.144Z" fill="#121212"/>
<path d="M114.589 98.9515C115.094 98.9515 115.347 99.2032 115.347 99.7244V110.976C115.347 111.479 115.094 111.73 114.589 111.73H112.533C112.028 111.73 111.776 111.479 111.776 110.976V106.842H108.276V110.976C108.276 111.479 108.024 111.73 107.519 111.73H105.481C104.958 111.73 104.705 111.479 104.705 110.976V99.7244C104.705 99.2032 104.958 98.9515 105.481 98.9515H107.519C108.024 98.9515 108.276 99.2032 108.276 99.7244V103.696H111.776V99.7244C111.776 99.2032 112.028 98.9515 112.533 98.9515H114.589Z" fill="#121212"/>
<path d="M108.257 33.1929C108.257 41.1388 106.31 48.6336 102.865 55.2244C102.566 55.1795 102.257 55.1328 101.942 55.086C101.727 55.0555 101.514 55.0249 101.294 54.9944C100.088 54.8254 98.7619 54.6619 97.3442 54.5271C97.0863 54.5019 96.8247 54.4803 96.5614 54.4588C96.289 54.4372 96.0113 54.4138 95.7335 54.3923C95.472 54.3725 95.2086 54.3563 94.9417 54.3401C94.3897 54.3042 93.8288 54.2736 93.257 54.2521C92.9702 54.2413 92.6852 54.2323 92.393 54.2251C92.1008 54.2161 91.8068 54.2107 91.5128 54.2053C91.2188 54.2017 90.9212 54.1999 90.6218 54.1999C88.9787 54.1999 87.2705 54.2629 85.5282 54.412C85.2252 54.439 84.9221 54.4677 84.6209 54.4983C81.6087 54.811 78.492 55.3898 75.386 56.3567C75.0577 56.4592 74.7312 56.5634 74.4066 56.6749C71.1365 57.782 67.8916 59.3331 64.8019 61.4647C64.4917 61.6786 64.185 61.8961 63.8784 62.1225C63.1154 62.6869 62.3597 63.2872 61.6184 63.9252C61.1747 64.3099 60.7328 64.7089 60.2963 65.1205C59.8598 64.7089 59.4197 64.3099 58.9741 63.9252C58.2328 63.2854 57.4771 62.6869 56.7141 62.1225C56.4057 61.8961 56.1009 61.6768 55.7906 61.4647C52.7009 59.3313 49.456 57.7802 46.1859 56.6749C45.8613 56.5634 45.533 56.4592 45.2065 56.3567C42.1006 55.388 38.9838 54.811 35.9716 54.4983C35.6686 54.4677 35.3673 54.4408 35.0643 54.412C33.322 54.2629 31.6139 54.1999 29.9707 54.1999C29.6713 54.1999 29.3737 54.2035 29.0797 54.2053C28.7857 54.2107 28.4917 54.2161 28.1995 54.2251C27.9073 54.2341 27.6223 54.2413 27.3355 54.2521C26.7637 54.2736 26.2028 54.3042 25.6508 54.3401C25.3839 54.3563 25.1205 54.3725 24.859 54.3923C24.5812 54.4138 24.3035 54.4372 24.0311 54.4588C23.7678 54.4803 23.5062 54.5037 23.2483 54.5271C21.8306 54.6619 20.5049 54.8254 19.2982 54.9944C19.0782 55.0249 18.8653 55.0555 18.6507 55.086C18.335 55.1328 18.0266 55.1795 17.7272 55.2244C14.2821 48.6336 12.3359 41.1406 12.3359 33.1929C21.3238 33.1929 49.346 33.8309 60.2945 46.8759C71.2429 33.8309 99.2651 33.1929 108.253 33.1929H108.257Z" fill="#F8CD5F"/>
<path d="M60.2979 33.1929C69.4964 33.1929 76.9533 25.7624 76.9533 16.5965C76.9533 7.43048 69.4964 0 60.2979 0C51.0994 0 43.6426 7.43048 43.6426 16.5965C43.6426 25.7624 51.0994 33.1929 60.2979 33.1929Z" fill="#F8CD5F"/>
</g>
<defs>
<clipPath id="clip0_550_261">
<rect width="120" height="112" fill="white"/>
</clipPath>
</defs>
</svg>
