<svg width="188" height="38" viewBox="0 0 188 38" fill="none" xmlns="http://www.w3.org/2000/svg">
<path d="M187.212 27.3119C186.075 29.9253 182.584 31.2316 176.738 31.2306C172.529 31.2306 166.808 30.4964 159.575 29.028C155.019 28.0894 150.351 27.3704 145.571 26.8708C142.004 26.498 138.719 26.265 135.714 26.1718C134.694 26.1396 133.707 26.1235 132.753 26.1235C132.379 26.1235 132.023 26.1235 131.679 26.127C131.591 26.1235 131.496 26.1235 131.407 26.1235C131.247 26.1235 131.09 26.1235 130.935 26.1298C130.889 26.1271 130.842 26.1271 130.795 26.1298C127.813 26.1632 124.846 26.5487 121.954 27.2783L125.842 25.033C126.754 24.8967 127.653 24.6913 128.534 24.4186C129.601 24.1166 130.729 23.5574 131.918 22.7409C133.107 21.9244 134.031 21.018 134.69 20.0217C136.112 17.9246 136.823 15.5078 136.822 12.7713C136.822 10.4267 136.281 8.28631 135.197 6.34999C134.114 4.41367 132.513 2.95176 130.395 1.96426C128.337 0.990883 126.089 0.48572 123.813 0.485107C120.134 0.485107 117.073 1.59564 114.63 3.8167C112.187 6.03775 110.966 8.97788 110.966 12.6371C110.966 16.4044 112.17 19.4254 114.577 21.7C116.984 23.9747 120.097 25.1118 123.915 25.1113C124.556 25.1113 125.151 25.0848 125.702 25.0316L122.451 26.8959C122.187 27.0358 121.931 27.1679 121.682 27.293C121.645 27.3119 121.612 27.3314 121.572 27.3489L121.551 27.3587L121.503 27.3825C121.47 27.397 121.437 27.4099 121.402 27.4209C121.351 27.4356 121.3 27.4482 121.249 27.4643C121.215 27.472 121.179 27.4817 121.148 27.4915C120.551 27.6579 119.967 27.8392 119.396 28.0354C118.589 28.294 117.943 28.5163 117.449 28.6987C117.146 28.8106 116.878 28.9227 116.645 29.035C120.575 27.9656 124.631 27.4281 128.704 27.437C129.652 27.437 130.592 27.4654 131.522 27.5223C133.243 27.6064 134.956 27.8044 136.65 28.1151C136.76 28.136 136.872 28.1556 136.982 28.1745L137.294 28.2318L137.809 28.3346C137.999 28.373 138.19 28.4128 138.383 28.4541C138.409 28.459 138.436 28.4639 138.462 28.4702C138.592 28.4972 138.721 28.5256 138.85 28.5554C138.932 28.5743 139.014 28.5918 139.096 28.6114C142.329 29.344 145.887 30.4391 149.768 31.8968C150.232 32.0709 150.691 32.2421 151.137 32.4036C151.214 32.4344 151.285 32.4616 151.361 32.4854V32.4889C155.001 33.818 158.01 34.7652 160.39 35.3305C163.115 35.9759 166.137 36.2986 169.456 36.2986C174.509 36.2986 178.62 35.4696 181.789 33.8115C184.958 32.1534 186.84 29.9887 187.434 27.3175L187.212 27.3119ZM124.132 24.9512C121.076 24.9512 118.784 23.9917 117.256 22.0726C116.527 21.148 115.967 19.86 115.579 18.2084C115.19 16.5568 114.995 14.744 114.992 12.7699C114.992 10.8173 115.188 9.01004 115.579 7.34821C115.97 5.68637 116.529 4.38431 117.256 3.44201C118.784 1.5248 120.977 0.565729 123.838 0.564797C126.752 0.564797 128.973 1.55067 130.501 3.5224C131.247 4.48241 131.815 5.79286 132.207 7.45376C132.608 9.20634 132.805 10.9994 132.793 12.7972C132.793 14.7517 132.593 16.5554 132.193 18.2084C131.793 19.8614 131.221 21.1494 130.476 22.0726C128.911 23.9917 126.797 24.9512 124.132 24.9512Z" fill="white"/>
<path d="M0 5.77603L0.134214 0.805908H21.8322L21.9391 5.77603H21.886C21.619 4.2088 21.2538 3.07753 20.7906 2.38223C20.3274 1.68692 19.8241 1.25935 19.2807 1.0995C18.7369 0.939656 17.8148 0.859501 16.5146 0.859035H12.693V18.4159C12.693 20.2865 12.7378 21.5157 12.8272 22.1033C12.9167 22.691 13.1537 23.123 13.5382 23.3993C13.9212 23.6752 14.6471 23.8134 15.7156 23.8139H16.8649V23.867H4.99738V23.8139H6.22628C7.24174 23.8139 7.94543 23.6848 8.33736 23.4266C8.72928 23.1684 8.98326 22.7674 9.0993 22.2236C9.21581 21.6806 9.27406 20.4114 9.27406 18.4159V0.859035H5.74535C4.21307 0.859035 3.1799 0.934763 2.64584 1.08622C2.11178 1.23768 1.6129 1.67853 1.14921 2.40879C0.685984 3.13998 0.338565 4.26239 0.106952 5.77603H0Z" fill="white"/>
<path d="M42.4083 23.867C40.9827 22.8698 39.2367 20.8924 37.1704 17.935C36.4215 16.8483 35.6467 15.8105 34.8461 14.8216C34.0455 13.8327 33.4888 13.2315 33.1761 13.0181C32.8644 12.8042 32.3879 12.6972 31.7466 12.6972H30.8113V18.416C30.8113 20.2866 30.8558 21.5157 30.9448 22.1034C31.0338 22.691 31.2666 23.123 31.6432 23.3994C32.016 23.6753 32.7465 23.8134 33.8346 23.8139H34.9831V23.867H23.5693V23.8139H24.3446C25.3605 23.8139 26.0642 23.6848 26.4556 23.4266C26.8471 23.1685 27.0964 22.7675 27.2036 22.2236C27.3103 21.6807 27.3639 20.4115 27.3644 18.416V5.77608C27.3644 3.88823 27.3108 2.66795 27.2036 2.11525C27.0964 1.56255 26.8604 1.18391 26.4955 0.979323C26.1297 0.774274 25.3502 0.671982 24.1572 0.672448H23.7567V0.565496L32.575 0.485107C34.837 0.485107 36.6809 0.694817 38.1064 1.11424C39.532 1.53366 40.6809 2.22407 41.5533 3.18547C42.4267 4.14734 42.8633 5.29631 42.8633 6.6324C42.8633 8.18285 42.2931 9.51101 41.1528 10.6169C40.0124 11.7227 38.3289 12.4073 36.1023 12.6706C37.0996 13.1516 38.7029 14.8796 40.9123 17.8547C42.7116 20.278 44.1279 21.8636 45.161 22.6116C46.1942 23.3595 47.4059 23.7603 48.796 23.8139V23.867H42.4083ZM33.5368 12.5378C34.4633 12.4838 35.2739 12.35 35.9688 12.1366C36.6636 11.9231 37.2256 11.6156 37.6548 11.2139C38.0826 10.8135 38.4168 10.2837 38.6572 9.62426C38.8977 8.96484 39.0179 8.05609 39.0179 6.89803C39.0163 5.97581 38.9086 5.05685 38.6971 4.15922C38.4832 3.24209 38.1714 2.55168 37.7618 2.08799C36.923 1.07299 35.1055 0.565496 32.3093 0.565496C31.8815 0.565496 31.3827 0.592059 30.8127 0.645186V12.6441L33.5368 12.5378Z" fill="white"/>
<path d="M85.0309 18.4159C85.0309 20.3042 85.0666 21.5334 85.1379 22.1033C85.2264 22.6914 85.4669 23.1234 85.8593 23.3993C86.2516 23.6752 86.9821 23.8134 88.0507 23.8138H88.8238V23.867H77.9189V23.8138H78.5607C79.5757 23.8138 80.2793 23.6848 80.6717 23.4266C81.0641 23.1684 81.3134 22.7674 81.4197 22.2235C81.5269 21.6806 81.5805 20.4114 81.5805 18.4159V5.77602C81.5805 3.88816 81.5269 2.66789 81.4197 2.11518C81.3125 1.56248 81.0776 1.18384 80.7151 0.979257C80.3492 0.774207 79.561 0.671916 78.3503 0.672382H77.9224V0.56543L86.5003 0.591993C88.9595 0.591993 90.8524 0.783295 92.1792 1.1659C93.506 1.5485 94.5927 2.23006 95.4395 3.21057C96.2853 4.18921 96.7082 5.42743 96.7082 6.92523C96.7082 8.22543 96.4188 9.3744 95.84 10.3722C95.265 11.3669 94.3972 12.1602 93.355 12.644C92.2771 13.1604 90.3664 13.4185 87.6229 13.4185H85.0309V18.4159ZM86.7142 13.285C88.0857 13.285 89.1948 13.1468 90.0416 12.8705C90.8883 12.5941 91.5874 12.0198 92.1387 11.1474C92.4057 10.7377 92.6154 10.1454 92.7678 9.37044C92.915 8.63568 92.991 7.88847 92.995 7.13913C92.9977 6.12956 92.8721 5.12373 92.621 4.14587C92.3731 3.184 92.0161 2.48031 91.5501 2.0348C90.5714 1.12605 89.0037 0.671916 86.847 0.672382C86.0459 0.672382 85.4401 0.69009 85.0295 0.725508V13.285H86.7142Z" fill="white"/>
<path d="M98.2852 0.805908H109.161V0.859035H108.653C107.495 0.859035 106.733 0.957132 106.369 1.15333C106.004 1.34952 105.759 1.71022 105.633 2.23543C105.509 2.7611 105.447 4.26122 105.447 6.7358V18.4159C105.447 20.3042 105.491 21.5334 105.58 22.1033C105.669 22.6914 105.905 23.1234 106.288 23.3993C106.672 23.6752 107.398 23.8134 108.466 23.8139H109.161V23.867H98.2852V23.8139H98.98C100.012 23.8139 100.725 23.6848 101.118 23.4266C101.51 23.1684 101.755 22.7674 101.852 22.2236C101.95 21.6806 101.999 20.4114 101.999 18.4159V6.7358C101.999 4.33113 101.946 2.85687 101.839 2.31302C101.732 1.76917 101.501 1.39077 101.144 1.17779C100.788 0.96389 100.004 0.856938 98.7927 0.856938H98.2852V0.805908Z" fill="white"/>
<path d="M165.492 0.67254V0.724269C164.138 0.813745 163.212 1.05421 162.713 1.44567C162.196 1.83759 161.88 2.28754 161.764 2.7955C161.649 3.30346 161.592 4.27931 161.594 5.72305V13.6564C161.594 16.7386 161.54 18.6004 161.433 19.2416C161.367 19.7147 161.255 20.1802 161.099 20.6313C160.965 20.9878 160.729 21.3797 160.391 21.8071C159.645 22.7512 158.585 23.5083 157.211 24.0782C155.836 24.6482 154.252 24.9332 152.457 24.9332C150.337 24.9332 148.543 24.5725 147.075 23.8511C145.606 23.1297 144.56 22.1988 143.935 21.0584C143.311 19.919 142.999 18.3869 142.999 16.4623L143.026 13.2558V5.85656C143.026 3.95054 142.968 2.7256 142.853 2.18175C142.737 1.6379 142.501 1.25949 142.144 1.04652C141.782 0.831687 140.995 0.724269 139.784 0.724269H139.249V0.671143H150.129V0.724269H149.649C148.473 0.724269 147.707 0.822366 147.35 1.01856C146.994 1.21476 146.753 1.57546 146.629 2.10066C146.504 2.62634 146.441 3.87784 146.441 5.85517V13.3649C146.441 17.1066 146.562 19.5205 146.803 20.6068C147.044 21.6931 147.716 22.6464 148.82 23.4666C149.871 24.2323 151.341 24.6153 153.229 24.6158C154.387 24.6158 155.669 24.3753 157.074 23.8944C157.743 23.6656 158.374 23.3355 158.944 22.9157C159.514 22.4963 159.95 22.0643 160.254 21.6197C160.738 20.9355 161.058 20.1491 161.189 19.3213C161.313 18.4666 161.376 16.5338 161.376 13.5229V5.40219C161.376 4.06564 161.3 3.12591 161.149 2.583C161.003 2.04737 160.651 1.59112 160.17 1.31355C159.675 1.01111 158.794 0.814677 157.529 0.724269V0.671143L165.492 0.67254Z" fill="white"/>
<path d="M186.308 17.2129L185.8 23.867H166.827V23.8139H167.308C168.501 23.8139 169.272 23.658 169.62 23.3462C169.969 23.0316 170.2 22.6072 170.275 22.1432C170.363 21.6539 170.408 20.4115 170.408 18.416V6.73584C170.408 4.42018 170.359 2.97715 170.261 2.40674C170.162 1.83633 169.935 1.43555 169.579 1.2044C169.223 0.97139 168.466 0.854884 167.308 0.854884V0.801758H183.582L184.141 6.73375H184.061C183.871 5.89439 183.612 5.07212 183.287 4.27525C182.948 3.43641 182.636 2.83058 182.351 2.45777C181.798 1.76293 181.148 1.3265 180.4 1.14848C179.652 0.970458 178.566 0.881215 177.14 0.880749H173.826V11.5969H176.364C177.523 11.5969 178.333 11.4988 178.796 11.3026C179.259 11.1064 179.562 10.8082 179.705 10.4079C179.847 10.0066 179.919 9.21811 179.919 8.04233H179.998V16.1931H179.919C179.919 14.3583 179.807 13.2182 179.584 12.7727C179.362 12.3272 179.036 12.0375 178.606 11.9038C178.178 11.77 177.456 11.7032 176.439 11.7032H173.826V18.0951C173.826 20.9099 174.009 22.5666 174.374 23.0652C174.739 23.5639 175.715 23.8134 177.3 23.8139H179.09C180.336 23.8139 181.365 23.6536 182.177 23.333C182.988 23.0123 183.758 22.3532 184.488 21.3554C185.218 20.3581 185.797 18.9773 186.225 17.2129H186.308Z" fill="white"/>
<path d="M25.722 36.2874V31.7885H23.9814V31.3362H27.9848V31.7885H26.2449V36.2874H25.722Z" fill="white"/>
<path d="M28.6152 36.2876V32.5743H29.0962V33.5858L29.0465 33.409C29.1398 33.1385 29.3251 32.9093 29.5701 32.7617C29.8478 32.6046 30.1635 32.5275 30.4824 32.5387V33.028C30.4634 33.0282 30.4445 33.027 30.4257 33.0245C30.4069 33.0234 30.388 33.0234 30.3691 33.0245C29.9776 33.0245 29.6712 33.1436 29.4499 33.3817C29.2285 33.6198 29.1176 33.9582 29.1171 34.3967V36.2925L28.6152 36.2876Z" fill="white"/>
<path d="M32.8729 36.3223C32.534 36.3285 32.1996 36.2443 31.904 36.0784C31.6232 35.9181 31.3911 35.6847 31.2323 35.4031C31.0702 35.1024 30.9854 34.7661 30.9854 34.4245C30.9854 34.0828 31.0702 33.7465 31.2323 33.4458C31.3921 33.1677 31.6242 32.9379 31.904 32.781C32.2045 32.6225 32.5392 32.5399 32.8789 32.5405C33.2186 32.5411 33.5531 32.6249 33.8529 32.7845C34.1324 32.9419 34.3645 33.1715 34.5247 33.4493C34.6919 33.7479 34.7761 34.0858 34.7687 34.428C34.7751 34.77 34.6909 35.1076 34.5247 35.4066C34.3656 35.6883 34.132 35.9207 33.8494 36.0784C33.5509 36.2439 33.2142 36.328 32.8729 36.3223ZM32.8729 35.877C33.1229 35.8819 33.3696 35.8196 33.5873 35.6967C33.7946 35.5756 33.964 35.3991 34.0766 35.1871C34.1952 34.9506 34.2569 34.6897 34.2569 34.4252C34.2569 34.1606 34.1952 33.8997 34.0766 33.6632C33.9631 33.4528 33.7938 33.2777 33.5873 33.1571C33.3703 33.0388 33.1271 32.9768 32.8799 32.9768C32.6327 32.9768 32.3895 33.0388 32.1725 33.1571C31.9649 33.2782 31.794 33.453 31.6776 33.6632C31.5567 33.899 31.4937 34.1602 31.4937 34.4252C31.4937 34.6901 31.5567 34.9513 31.6776 35.1871C31.7917 35.398 31.9608 35.5741 32.1669 35.6967C32.3816 35.8196 32.6256 35.8819 32.8729 35.877Z" fill="white"/>
<path d="M35.7939 37.6597V32.5742H36.2749V33.6927L36.2252 34.4358L36.2952 35.1851V37.6611L35.7939 37.6597ZM37.7107 36.3224C37.4062 36.3267 37.1061 36.25 36.8411 36.1002C36.5783 35.9479 36.3637 35.7248 36.2218 35.4563C36.0598 35.1382 35.9807 34.7842 35.9918 34.4274C35.9807 34.0707 36.0585 33.7168 36.2183 33.3977C36.3573 33.1296 36.571 32.9075 36.8334 32.7581C37.1017 32.6096 37.4041 32.534 37.7107 32.5386C38.0431 32.5332 38.3711 32.6149 38.6621 32.7756C38.9402 32.9311 39.1693 33.1614 39.3234 33.4403C39.4814 33.7459 39.5638 34.0848 39.5638 34.4288C39.5638 34.7727 39.4814 35.1117 39.3234 35.4172C39.1681 35.6952 38.9393 35.9252 38.6621 36.082C38.3719 36.2451 38.0435 36.328 37.7107 36.3224ZM37.675 35.8772C37.9227 35.8814 38.167 35.8191 38.3825 35.6968C38.5912 35.5752 38.7626 35.3987 38.8781 35.1865C39.004 34.9534 39.0674 34.6916 39.0619 34.4267C39.0677 34.1626 39.0043 33.9016 38.8781 33.6696C38.7601 33.4551 38.5855 33.2771 38.3734 33.1548C38.1613 33.0326 37.9198 32.9708 37.675 32.9762C37.4261 32.9722 37.1808 33.0355 36.9648 33.1593C36.7561 33.2807 36.5847 33.4569 36.4692 33.6689C36.3452 33.9016 36.2831 34.1623 36.2889 34.426C36.2823 34.6905 36.3434 34.9523 36.4664 35.1865C36.5803 35.3997 36.7521 35.5763 36.962 35.6961C37.1794 35.8188 37.4255 35.8813 37.675 35.8772Z" fill="white"/>
<path d="M40.8433 31.7536C40.7948 31.7547 40.7466 31.7458 40.7016 31.7275C40.6567 31.7093 40.6159 31.682 40.5819 31.6474C40.5478 31.6144 40.5209 31.5748 40.5026 31.5311C40.4843 31.4873 40.4752 31.4403 40.4756 31.3929C40.4748 31.346 40.4839 31.2994 40.5022 31.2562C40.5205 31.213 40.5476 31.1741 40.5819 31.142C40.6164 31.1083 40.6573 31.0818 40.7022 31.0642C40.7471 31.0465 40.7951 31.038 40.8433 31.0392C40.9404 31.0364 41.0346 31.0721 41.1055 31.1385C41.1399 31.1697 41.1672 31.208 41.1855 31.2507C41.2038 31.2934 41.2128 31.3395 41.2117 31.3859C41.2129 31.4342 41.2044 31.4821 41.1868 31.527C41.1691 31.572 41.1427 31.6129 41.109 31.6474C41.0745 31.6826 41.0331 31.7103 40.9874 31.7286C40.9416 31.7469 40.8926 31.7554 40.8433 31.7536ZM40.5903 36.2876V32.5743H41.0929V36.2876H40.5903Z" fill="white"/>
<path d="M44.034 36.3225C43.6893 36.3284 43.3491 36.2443 43.0469 36.0785C42.7623 35.9213 42.5262 35.6889 42.3647 35.4067C42.2022 35.1051 42.1172 34.7679 42.1172 34.4253C42.1172 34.0827 42.2022 33.7455 42.3647 33.4439C42.5265 33.1637 42.7626 32.9336 43.0469 32.7791C43.3499 32.6157 43.6898 32.5329 44.034 32.5386C44.3294 32.5343 44.622 32.5971 44.8896 32.7225C45.1405 32.8422 45.3499 33.0342 45.4907 33.274L45.1161 33.5291C44.9994 33.3486 44.8355 33.2035 44.6421 33.1097C44.4323 33.0139 44.2032 32.9681 43.9727 32.976C43.7422 32.9839 43.5167 33.0452 43.314 33.1552C43.103 33.2743 42.9291 33.4495 42.8113 33.6613C42.6905 33.8977 42.6274 34.1594 42.6274 34.4249C42.6274 34.6905 42.6905 34.9522 42.8113 35.1886C42.9288 35.4006 43.1028 35.5758 43.314 35.6947C43.5167 35.8046 43.7422 35.8659 43.9726 35.8739C44.2031 35.8819 44.4322 35.8364 44.6421 35.7409C44.8338 35.6488 44.9974 35.5071 45.1161 35.3305L45.4907 35.585C45.3481 35.8224 45.1391 36.0129 44.8896 36.133C44.6229 36.2615 44.33 36.3264 44.034 36.3225Z" fill="white"/>
<path d="M47.5205 36.3225C47.2717 36.3279 47.0246 36.2802 46.7956 36.1827C46.6055 36.103 46.4423 35.9705 46.3251 35.801C46.2154 35.6341 46.1587 35.438 46.1623 35.2383C46.1605 35.0532 46.2088 34.8711 46.3021 34.7112C46.4092 34.5398 46.5674 34.4063 46.7543 34.3295C46.9641 34.2331 47.2437 34.1848 47.5995 34.1848H48.8801V34.5595H47.6128C47.2544 34.5595 47.0055 34.6231 46.8662 34.7503C46.7973 34.8138 46.7431 34.8914 46.7072 34.9779C46.6713 35.0644 46.6546 35.1576 46.6583 35.2512C46.6621 35.3447 46.6861 35.4364 46.7287 35.5197C46.7714 35.6031 46.8316 35.6761 46.9053 35.7339C47.0703 35.8611 47.3012 35.9247 47.5981 35.9247C47.856 35.9315 48.1103 35.8638 48.3307 35.7297C48.5376 35.5976 48.6953 35.4011 48.7794 35.1705L48.8927 35.52C48.7993 35.7646 48.6272 35.9712 48.4034 36.1072C48.1685 36.2512 47.8742 36.3229 47.5205 36.3225ZM48.8011 36.2875V35.4662L48.7794 35.3319V33.9604C48.7794 33.6445 48.6911 33.4017 48.5145 33.232C48.3379 33.0624 48.0751 32.9774 47.726 32.9769C47.4919 32.976 47.2594 33.0167 47.0396 33.0971C46.8378 33.1688 46.6509 33.2769 46.488 33.4159L46.2615 33.0405C46.4617 32.8742 46.6922 32.7481 46.9403 32.6693C47.2097 32.5813 47.4915 32.5371 47.7749 32.5386C48.2559 32.5386 48.6273 32.6577 48.8892 32.8958C49.1511 33.134 49.2821 33.4958 49.2821 33.9814V36.2882L48.8011 36.2875Z" fill="white"/>
<path d="M50.6475 36.2874V31.0391H51.1501V36.2874H50.6475Z" fill="white"/>
<path d="M54.5088 36.2874V31.3362H56.645C57.1963 31.3362 57.6241 31.4469 57.9285 31.6682C58.2328 31.8896 58.3849 32.2032 58.3849 32.6091C58.3926 32.8493 58.3273 33.0862 58.1976 33.2886C58.0714 33.4743 57.8945 33.6199 57.688 33.708C57.4657 33.8034 57.2259 33.851 56.9841 33.8478L57.1043 33.6779C57.3837 33.6711 57.6616 33.7205 57.9215 33.8233C58.1386 33.9105 58.3246 34.0607 58.4555 34.2546C58.5888 34.4672 58.6553 34.7148 58.6464 34.9656C58.6464 35.385 58.4921 35.7112 58.1836 35.9442C57.8751 36.1772 57.4091 36.2937 56.7855 36.2937L54.5088 36.2874ZM55.0324 35.8561H56.7799C57.2138 35.8561 57.5463 35.7818 57.7775 35.6331C58.0086 35.4845 58.1251 35.2475 58.127 34.9222C58.127 34.6016 58.0105 34.367 57.7775 34.2183C57.5445 34.0696 57.2117 33.9962 56.7792 33.9981H54.9757V33.5668H56.6094C57.006 33.5668 57.3138 33.4913 57.5328 33.3403C57.7518 33.1893 57.8613 32.9654 57.8613 32.6685C57.8613 32.3673 57.7516 32.1415 57.5328 31.9933C57.314 31.8451 57.0057 31.7703 56.6094 31.7703H55.0324V35.8561Z" fill="white"/>
<path d="M61.2496 36.3223C60.9107 36.3287 60.5762 36.2445 60.2807 36.0784C59.9997 35.9181 59.7674 35.6847 59.6082 35.4031C59.4462 35.1024 59.3613 34.7661 59.3613 34.4245C59.3613 34.0828 59.4462 33.7465 59.6082 33.4458C59.7684 33.1676 60.0007 32.9379 60.2807 32.781C60.5811 32.6225 60.9156 32.5399 61.2553 32.5405C61.5949 32.5411 61.9292 32.6249 62.2289 32.7845C62.5086 32.9418 62.7409 33.1714 62.9014 33.4493C63.0682 33.748 63.1524 34.0859 63.1453 34.4279C63.1514 34.7699 63.0673 35.1075 62.9014 35.4066C62.7422 35.6885 62.5083 35.9209 62.2254 36.0784C61.9272 36.2439 61.5906 36.328 61.2496 36.3223ZM61.2496 35.877C61.4996 35.8819 61.7463 35.8196 61.964 35.6967C62.1713 35.5756 62.3407 35.3991 62.4533 35.1871C62.5719 34.9506 62.6336 34.6897 62.6336 34.4252C62.6336 34.1606 62.5719 33.8997 62.4533 33.6632C62.3398 33.4528 62.1705 33.2777 61.964 33.1571C61.747 33.0388 61.5037 32.9768 61.2566 32.9768C61.0094 32.9768 60.7662 33.0388 60.5491 33.1571C60.3414 33.2779 60.1704 33.4528 60.0542 33.6632C59.9334 33.899 59.8704 34.1602 59.8704 34.4252C59.8704 34.6901 59.9334 34.9513 60.0542 35.1871C60.1683 35.398 60.3374 35.5741 60.5436 35.6967C60.7582 35.8196 61.0022 35.8819 61.2496 35.877Z" fill="white"/>
<path d="M65.7059 36.3224C65.4202 36.3291 65.1369 36.2685 64.8789 36.1456C64.6453 36.0304 64.4535 35.8451 64.3302 35.6157C64.1921 35.342 64.1252 35.0378 64.1359 34.7314V32.5742H64.6378V34.6713C64.6378 35.067 64.7354 35.3652 64.9307 35.5661C65.1259 35.7669 65.4006 35.8671 65.7548 35.8667C65.9901 35.8724 66.2229 35.8176 66.4308 35.7073C66.6211 35.6016 66.7742 35.4397 66.8691 35.2438C66.9757 35.0162 67.0277 34.7667 67.0208 34.5154V32.5742H67.5234V36.2875H67.0424V35.269L67.12 35.4528C67.0087 35.7183 66.817 35.9422 66.572 36.0931C66.3107 36.2497 66.0104 36.3292 65.7059 36.3224Z" fill="white"/>
<path d="M68.3428 32.9914V32.572H70.6412V32.9914H68.3428ZM70.0966 36.3223C69.7481 36.3223 69.4792 36.2291 69.29 36.0427C69.1008 35.8563 69.0076 35.5897 69.0103 35.243V31.7534H69.5123V35.2122C69.5123 35.4289 69.5675 35.5967 69.6786 35.7141C69.7898 35.8316 69.9484 35.891 70.1561 35.891C70.3572 35.8982 70.5539 35.8301 70.7076 35.7002L70.8845 36.0609C70.7816 36.1526 70.6596 36.2202 70.5272 36.2587C70.3884 36.3012 70.244 36.3226 70.0987 36.3223H70.0966Z" fill="white"/>
<path d="M72.0474 31.7536C71.9989 31.7547 71.9507 31.7458 71.9057 31.7275C71.8608 31.7093 71.82 31.682 71.786 31.6474C71.7519 31.6144 71.725 31.5748 71.7067 31.5311C71.6884 31.4873 71.6793 31.4403 71.6797 31.3929C71.6789 31.346 71.688 31.2994 71.7063 31.2562C71.7246 31.213 71.7517 31.1741 71.786 31.142C71.8205 31.1083 71.8614 31.0818 71.9063 31.0642C71.9512 31.0465 71.9992 31.038 72.0474 31.0392C72.1445 31.0364 72.2387 31.0721 72.3096 31.1385C72.344 31.1697 72.3713 31.208 72.3896 31.2507C72.4079 31.2934 72.4169 31.3395 72.4158 31.3859C72.417 31.4342 72.4085 31.4821 72.3909 31.527C72.3732 31.572 72.3468 31.6129 72.3131 31.6474C72.2787 31.6826 72.2372 31.7103 72.1915 31.7286C72.1457 31.7469 72.0967 31.7554 72.0474 31.7536ZM71.793 36.2876V32.5743H72.2956V36.2876H71.793Z" fill="white"/>
<path d="M75.1764 36.3225C74.8435 36.3281 74.5152 36.2451 74.225 36.082C73.9476 35.9254 73.7188 35.6954 73.5637 35.4172C73.4057 35.1117 73.3232 34.7727 73.3232 34.4288C73.3232 34.0848 73.4057 33.7459 73.5637 33.4404C73.7176 33.1613 73.9467 32.931 74.225 32.7756C74.516 32.6149 74.844 32.5332 75.1764 32.5386C75.4842 32.5331 75.7879 32.6089 76.0572 32.7581C76.318 32.9085 76.5302 33.1305 76.6688 33.3977C76.8285 33.7168 76.9064 34.0707 76.8953 34.4274C76.9064 34.7843 76.8273 35.1382 76.6653 35.4564C76.5239 35.7241 76.3106 35.947 76.0495 36.1002C75.7835 36.2508 75.482 36.3275 75.1764 36.3225ZM75.2113 35.8772C75.4601 35.8811 75.7054 35.8189 75.9222 35.6968C76.1318 35.5766 76.3035 35.4001 76.4179 35.1872C76.5417 34.9534 76.6038 34.6919 76.5982 34.4274C76.604 34.1638 76.5419 33.9031 76.4179 33.6703C76.302 33.4586 76.1307 33.2824 75.9222 33.1607C75.7061 33.0366 75.4605 32.9731 75.2113 32.9769C74.9679 32.9728 74.7279 33.0353 74.5173 33.1574C74.3066 33.2796 74.1333 33.457 74.016 33.6703C73.8897 33.9023 73.8263 34.1633 73.8321 34.4274C73.8267 34.6923 73.89 34.9541 74.016 35.1872C74.1315 35.3992 74.3029 35.5754 74.5116 35.6968C74.7245 35.8186 74.9661 35.8809 75.2113 35.8772ZM76.5905 37.6597V35.1865L76.6604 34.4372L76.6108 33.6941V32.5757H77.0917V37.6611L76.5905 37.6597Z" fill="white"/>
<path d="M80.0292 36.3224C79.7432 36.3291 79.4597 36.2686 79.2015 36.1456C78.9681 36.0303 78.7765 35.8451 78.6535 35.6157C78.5151 35.3421 78.4483 35.0379 78.4591 34.7314V32.5742H78.9611V34.6713C78.9611 35.067 79.0589 35.3652 79.2546 35.5661C79.4504 35.7669 79.7251 35.8671 80.0788 35.8667C80.3139 35.8725 80.5464 35.8176 80.7541 35.7073C80.9444 35.6016 81.0974 35.4397 81.1924 35.2438C81.2993 35.0162 81.3515 34.7668 81.3448 34.5154V32.5742H81.8467V36.2875H81.3657V35.269L81.444 35.4528C81.3326 35.7185 81.1407 35.9424 80.8953 36.0931C80.634 36.2499 80.3337 36.3294 80.0292 36.3224Z" fill="white"/>
<path d="M84.8242 36.3224C84.4694 36.3303 84.1185 36.2462 83.8057 36.0785C83.5196 35.922 83.2823 35.6895 83.12 35.4067C82.9514 35.1085 82.8659 34.7705 82.8725 34.428C82.8651 34.0869 82.9466 33.7496 83.1088 33.4494C83.2618 33.1722 83.4866 32.9414 83.7596 32.7811C84.0418 32.6167 84.3635 32.5323 84.69 32.5372C85.0158 32.5313 85.3371 32.6132 85.6204 32.7741C85.8912 32.932 86.1127 33.1622 86.26 33.4389C86.4202 33.7428 86.5006 34.0825 86.4935 34.4259C86.4935 34.449 86.4935 34.4742 86.49 34.5C86.4865 34.5259 86.49 34.5532 86.49 34.5811H83.2577V34.2078H86.2209L86.0231 34.356C86.0277 34.1058 85.968 33.8586 85.8497 33.6381C85.7401 33.4354 85.5775 33.2663 85.3793 33.1488C85.1711 33.0284 84.934 32.9673 84.6935 32.972C84.453 32.9685 84.216 33.0296 84.0071 33.1488C83.8056 33.2655 83.6414 33.4372 83.5338 33.6437C83.4176 33.8689 83.3592 34.1195 83.364 34.3728V34.4504C83.3582 34.7114 83.4229 34.969 83.5513 35.1963C83.6746 35.4101 83.8562 35.5844 84.0749 35.6989C84.312 35.8225 84.5764 35.8845 84.8438 35.8792C85.0608 35.8812 85.276 35.8403 85.4771 35.759C85.6728 35.6787 85.8464 35.5526 85.9832 35.3913L86.2628 35.7164C86.0964 35.9153 85.8841 36.0707 85.6442 36.1693C85.3839 36.2747 85.1051 36.3268 84.8242 36.3224Z" fill="white"/>
<path d="M90.0021 36.2874H89.4785V31.3362H90.0021V36.2874ZM93.1477 34.003H89.9427V33.543H93.1463L93.1477 34.003ZM93.0981 31.3362H93.6147V36.2874H93.0981V31.3362Z" fill="white"/>
<path d="M96.6363 36.3223C96.2972 36.3286 95.9625 36.2444 95.6667 36.0784C95.3861 35.9179 95.154 35.6846 94.995 35.4031C94.8329 35.1024 94.748 34.7661 94.748 34.4245C94.748 34.0828 94.8329 33.7465 94.995 33.4458C95.155 33.1678 95.3871 32.9381 95.6667 32.781C95.9672 32.6225 96.3019 32.5399 96.6416 32.5405C96.9813 32.5411 97.3158 32.6249 97.6156 32.7845C97.8953 32.9417 98.1274 33.1713 98.2874 33.4493C98.4546 33.7479 98.5388 34.0858 98.5314 34.428C98.5378 34.77 98.4536 35.1076 98.2874 35.4066C98.1285 35.6884 97.8948 35.9209 97.6121 36.0784C97.3138 36.2438 96.9773 36.3279 96.6363 36.3223ZM96.6363 35.877C96.8867 35.8821 97.134 35.8199 97.3521 35.6967C97.5592 35.5754 97.7286 35.399 97.8414 35.1871C97.96 34.9506 98.0217 34.6897 98.0217 34.4252C98.0217 34.1606 97.96 33.8997 97.8414 33.6632C97.7277 33.4529 97.5584 33.2779 97.3521 33.1571C97.1351 33.0388 96.8919 32.9768 96.6447 32.9768C96.3975 32.9768 96.1543 33.0388 95.9373 33.1571C95.7295 33.2779 95.5585 33.4528 95.4424 33.6632C95.3211 33.8989 95.2578 34.1601 95.2578 34.4252C95.2578 34.6902 95.3211 34.9514 95.4424 35.1871C95.5562 35.3982 95.7253 35.5744 95.9317 35.6967C96.1459 35.8194 96.3894 35.8818 96.6363 35.877Z" fill="white"/>
<path d="M98.9775 32.9914V32.572H101.276V32.9914H98.9775ZM100.731 36.3223C100.383 36.3223 100.114 36.2291 99.9254 36.0427C99.7367 35.8563 99.6435 35.5897 99.6458 35.243V31.7534H100.148V35.2122C100.148 35.4289 100.204 35.5967 100.314 35.7141C100.425 35.8316 100.584 35.891 100.792 35.891C100.993 35.8982 101.189 35.8301 101.343 35.7002L101.52 36.0609C101.417 36.1528 101.295 36.2204 101.163 36.2587C101.023 36.3015 100.878 36.3229 100.731 36.3223Z" fill="white"/>
<path d="M103.872 36.3224C103.517 36.3304 103.166 36.2463 102.853 36.0785C102.567 35.9222 102.329 35.6897 102.167 35.4067C101.999 35.1084 101.913 34.7705 101.919 34.428C101.912 34.0868 101.994 33.7496 102.156 33.4494C102.309 33.1721 102.534 32.9412 102.807 32.7811C103.089 32.6167 103.411 32.5323 103.737 32.5372C104.063 32.5313 104.384 32.6132 104.667 32.7741C104.938 32.932 105.16 33.1622 105.308 33.4389C105.468 33.7429 105.548 34.0825 105.541 34.4259C105.541 34.4507 105.54 34.4754 105.537 34.5C105.537 34.5259 105.537 34.5532 105.537 34.5811H102.301V34.2078H105.265L105.067 34.356C105.071 34.1059 105.012 33.8587 104.894 33.6381C104.784 33.4358 104.621 33.2667 104.423 33.1488C104.215 33.0284 103.978 32.9672 103.737 32.972C103.497 32.9685 103.26 33.0296 103.051 33.1488C102.85 33.2657 102.685 33.4373 102.577 33.6437C102.461 33.8689 102.403 34.1195 102.407 34.3728V34.4504C102.402 34.7114 102.466 34.969 102.595 35.1963C102.718 35.4098 102.9 35.5841 103.118 35.6989C103.355 35.8225 103.62 35.8845 103.887 35.8792C104.103 35.8807 104.316 35.8399 104.516 35.759C104.712 35.6787 104.886 35.5526 105.022 35.3913L105.302 35.7164C105.137 35.9124 104.928 36.0663 104.692 36.1651C104.432 36.272 104.153 36.3255 103.872 36.3224Z" fill="white"/>
<path d="M106.566 36.2874V31.0391H107.068V36.2874H106.566Z" fill="white"/>
<path d="M74.9234 12.1737C74.9234 12.1038 74.9235 12.0339 74.9179 11.9598C74.9123 11.8857 74.913 11.8053 74.9088 11.7277C74.9088 11.6662 74.9018 11.6047 74.8976 11.5425C74.8976 11.5006 74.8927 11.4586 74.8885 11.4167C74.885 11.3608 74.8801 11.3055 74.8752 11.2496C74.5392 11.2119 74.2004 11.1886 73.8588 11.1797H73.849C73.719 11.1755 73.589 11.1734 73.459 11.1734H73.3758C70.0818 11.1866 66.9275 12.5053 64.6043 14.8405C64.4263 15.0195 64.2536 15.2026 64.0863 15.39C64.0074 15.4787 63.9291 15.5696 63.8529 15.6605L63.8445 15.6703C63.6753 15.873 63.5122 16.0797 63.3552 16.2903C63.1 16.6366 62.8629 16.996 62.6449 17.3668C62.6044 17.4367 62.5639 17.5066 62.5247 17.5765C61.998 16.0463 62.0681 14.3737 62.7211 12.893C62.7715 12.7847 62.8232 12.6784 62.877 12.5722C62.9036 12.5183 62.9308 12.4659 62.9581 12.4128L62.9665 12.3974C62.9917 12.3499 63.0168 12.3016 63.0434 12.2576C63.0469 12.2497 63.0509 12.242 63.0553 12.2345C63.1461 12.0675 63.2412 11.9032 63.3412 11.7403C63.5276 11.4327 63.7296 11.1333 63.9472 10.8421C64.0293 10.7316 64.1131 10.6226 64.1989 10.5149L64.2366 10.4681C64.3764 10.2905 64.5274 10.1186 64.6805 9.94801C64.8157 9.79841 64.9555 9.65208 65.0999 9.50901C66.9629 7.6308 69.4027 6.43269 72.0281 6.10682C72.8225 7.30437 73.3812 8.64246 73.6743 10.0494C73.6834 10.0948 73.6932 10.1409 73.7015 10.1892C73.7099 10.2374 73.7197 10.2849 73.7281 10.3325C73.7365 10.38 73.7456 10.4317 73.7547 10.4821C73.7638 10.5324 73.7714 10.5848 73.7791 10.6366C73.7868 10.6883 73.7931 10.7253 73.7987 10.7701C73.8043 10.8148 73.8092 10.84 73.8141 10.8791C73.8141 10.8791 73.8141 10.8833 73.8141 10.8854C74.1617 10.8943 74.5052 10.9176 74.8445 10.9553C74.8382 10.8959 74.8305 10.8365 74.8235 10.7778C74.8102 10.6792 74.7969 10.5806 74.7815 10.4828C74.7739 10.4345 74.7662 10.3863 74.7592 10.3381C74.7585 10.3339 74.7585 10.3297 74.7592 10.3255C74.7333 10.1745 74.7053 10.0235 74.6746 9.87391C74.662 9.8089 74.648 9.74389 74.6333 9.67888C74.6131 9.5894 74.5921 9.49923 74.5704 9.40905C74.5572 9.35872 74.5439 9.30699 74.5313 9.25666C74.5187 9.20633 74.5012 9.14342 74.4852 9.0868C74.4691 9.03018 74.4537 8.97356 74.4376 8.91763C74.4215 8.86171 74.4034 8.80089 74.3852 8.74357C74.3747 8.70722 74.3628 8.67367 74.3516 8.63522C74.3335 8.5779 74.3146 8.51988 74.2957 8.46326C74.2768 8.40664 74.2559 8.34233 74.2335 8.28221C74.2209 8.24307 74.2069 8.20462 74.193 8.16617C74.179 8.12773 74.1706 8.10606 74.1601 8.076C74.1377 8.01448 74.114 7.95297 74.0902 7.89215C74.0664 7.83134 74.0455 7.77821 74.0203 7.72089C73.9951 7.66357 73.9735 7.60834 73.9504 7.55172C73.7299 7.02394 73.4715 6.51278 73.1773 6.02224C73.0337 5.78177 72.8827 5.5476 72.7243 5.31971C72.6586 5.22604 72.5929 5.13307 72.5251 5.0401C71.4593 3.59325 70.0925 2.39461 68.5189 1.52676C68.2491 1.3781 67.973 1.23946 67.6906 1.11084H67.6864C67.3118 1.3061 66.9476 1.52053 66.5952 1.75325C64.9804 2.81682 63.6305 4.236 62.6491 5.90201C62.5927 5.99801 62.5378 6.09447 62.4842 6.19141C62.4296 6.09401 62.3744 5.99754 62.3185 5.90201C61.3484 4.25691 60.0197 2.85191 58.4312 1.7917C58.0832 1.55993 57.7237 1.34598 57.354 1.15068C57.0748 1.27651 56.8027 1.41399 56.5375 1.56311C55.6419 2.06414 54.812 2.67466 54.0671 3.3806C53.8364 3.59823 53.6148 3.82402 53.4023 4.05796C53.1147 4.37512 52.8436 4.7069 52.5901 5.05198C52.5924 5.05163 52.5947 5.05163 52.5971 5.05198C52.9885 5.08461 53.3748 5.13494 53.7561 5.20297H53.7609C54.3066 4.53282 54.9267 3.92683 55.6092 3.39668C55.7877 3.25687 55.9706 3.12359 56.1579 2.99683C56.6249 2.6758 57.1157 2.3907 57.6259 2.14401C58.4456 2.64146 59.2023 3.23597 59.8796 3.91466C59.96 3.99505 60.0397 4.07683 60.1158 4.15862C60.8042 4.88447 61.3982 5.69429 61.8837 6.56888C61.8928 6.58566 61.9026 6.60174 61.911 6.61852L61.9389 6.67024C61.9921 6.76741 62.0445 6.86597 62.0927 6.96593C62.1116 7.00368 62.1305 7.04073 62.1486 7.07848C62.8254 8.53312 62.9336 10.1883 62.452 11.7187C62.4094 11.6418 62.3653 11.5656 62.3206 11.4901C61.9812 10.9115 61.5955 10.3615 61.1672 9.84525C61.0898 9.75204 61.0101 9.65884 60.9281 9.56563C60.7478 9.35919 60.5597 9.15833 60.364 8.96307C58.5206 7.10836 56.1389 5.88276 53.5582 5.46092C53.177 5.39801 52.7916 5.35303 52.402 5.326C52.3999 5.32565 52.3978 5.32565 52.3957 5.326C52.2378 5.55342 52.0877 5.78643 51.9456 6.02504C51.705 6.42759 51.4883 6.84401 51.2969 7.27211L51.236 7.41192C51.2137 7.46434 51.1899 7.51747 51.1661 7.5706C51.1424 7.62372 51.1221 7.67615 51.1004 7.72928C51.0788 7.7824 51.0543 7.84322 51.0305 7.90054C51.0068 7.95786 50.9837 8.02217 50.9606 8.08369C50.9452 8.12563 50.9292 8.16897 50.9138 8.21231L50.8802 8.30808C50.8614 8.3619 50.8432 8.41643 50.825 8.47095C50.8061 8.52827 50.7873 8.58559 50.7691 8.64361C50.7572 8.67856 50.7467 8.71351 50.7355 8.74917C50.7181 8.80719 50.7006 8.8652 50.6838 8.92392C50.667 8.98264 50.6523 9.03577 50.6363 9.09239C50.6202 9.14901 50.6048 9.20563 50.5908 9.26225C50.5769 9.31888 50.5643 9.36082 50.5531 9.41115C50.5468 9.43422 50.5412 9.45728 50.5356 9.48105C50.5167 9.55865 50.4993 9.63554 50.4825 9.71383C50.4657 9.79212 50.4447 9.88999 50.4273 9.97876C50.4161 10.0389 50.4042 10.099 50.393 10.1591C50.3818 10.2192 50.3727 10.2731 50.3636 10.3304C50.3378 10.4835 50.3147 10.6373 50.2937 10.7917C50.2882 10.8407 50.2819 10.8903 50.2763 10.9392C50.6153 10.9078 50.9592 10.8882 51.3059 10.8826C51.3057 10.881 51.3057 10.8793 51.3059 10.8777C51.3059 10.87 51.3059 10.8616 51.3059 10.854C51.3059 10.8463 51.3059 10.8365 51.3059 10.8281L51.3122 10.7785C51.3199 10.7253 51.3276 10.6729 51.336 10.6198C51.3528 10.5086 51.3717 10.3975 51.3919 10.2877C51.401 10.2402 51.4101 10.1934 51.4199 10.1479C51.4297 10.1025 51.4381 10.0571 51.4478 10.0081C51.4604 9.9494 51.4737 9.89069 51.4863 9.83267C51.7887 8.51253 52.3262 7.25758 53.0731 6.12779C55.6471 6.47485 58.0348 7.66109 59.8663 9.50272C60.1706 9.80669 60.4583 10.1268 60.7282 10.4618L60.7548 10.4953C60.8414 10.603 60.9253 10.7106 61.0064 10.8211C61.2273 11.1166 61.4331 11.4209 61.6237 11.734C61.7236 11.8969 61.8187 12.0612 61.9096 12.2282L61.9152 12.2387C61.9725 12.3443 62.0284 12.4484 62.0822 12.5568C62.0871 12.5659 62.0913 12.5757 62.0955 12.5848C62.1654 12.7155 62.2241 12.8469 62.2842 12.979C62.2703 13.014 62.257 13.0489 62.2437 13.0853C61.8002 14.2568 61.6906 15.5285 61.927 16.7587C61.8208 16.6 61.7103 16.4434 61.5971 16.2889C61.4426 16.0792 61.2797 15.8695 61.1078 15.6703L61.0994 15.6605C61.0232 15.5696 60.9456 15.4787 60.8659 15.39C60.7701 15.2816 60.6723 15.1754 60.5723 15.0698C60.4982 14.9925 60.4234 14.916 60.3479 14.8405L60.3179 14.8105C59.1587 13.6538 57.7827 12.7373 56.2686 12.1135C54.7545 11.4898 53.1322 11.171 51.4947 11.1755C51.4169 11.1755 51.3393 11.1755 51.2619 11.1755C50.917 11.182 50.5752 11.2021 50.2364 11.2356C50.2364 11.244 50.2364 11.251 50.2364 11.2594C50.2266 11.3635 50.2189 11.4691 50.2127 11.5733C50.2085 11.6257 50.2057 11.6774 50.2029 11.7305C50.2029 11.7578 50.2029 11.7858 50.2029 11.813C50.2029 11.862 50.1987 11.9102 50.1973 11.9598C50.1959 12.0095 50.1973 12.064 50.1924 12.1164C50.1924 12.1374 50.1924 12.1583 50.1924 12.1793C50.1924 12.2408 50.1924 12.3037 50.1924 12.3653C50.1924 12.4715 50.1924 12.5785 50.1973 12.684V12.7539C50.1973 12.8343 50.2029 12.9147 50.2064 12.9944V13.0007C50.2064 13.0517 50.212 13.1034 50.2162 13.1552C50.2203 13.2069 50.2224 13.253 50.2259 13.302C50.2259 13.3236 50.2259 13.346 50.2308 13.3684C50.2378 13.4488 50.2448 13.5291 50.2532 13.6095C50.2595 13.6704 50.2658 13.7319 50.2728 13.7927C50.2895 13.9441 50.3098 14.0951 50.3336 14.2457C50.3413 14.2953 50.3497 14.3456 50.3574 14.3959C50.4905 15.2026 50.7041 15.9939 50.9949 16.758C50.9952 16.7596 50.9952 16.7613 50.9949 16.7629C51.0725 16.7594 51.1501 16.7573 51.2276 16.7559C51.3171 16.7559 51.4059 16.7559 51.4961 16.7559C51.5723 16.7559 51.6485 16.7559 51.724 16.7559C51.8463 16.7559 51.9686 16.7615 52.0903 16.7678C52.0546 16.6811 52.0204 16.5944 51.9847 16.5063C51.9372 16.3861 51.891 16.2652 51.8449 16.1435C51.6532 15.6037 51.5036 15.0498 51.3975 14.4868C51.3633 14.3093 51.3339 14.131 51.308 13.95C51.3024 13.9059 51.2969 13.8626 51.2906 13.8185C51.2906 13.8088 51.2906 13.7997 51.2906 13.7899C51.2794 13.7018 51.2689 13.613 51.2605 13.5236C51.2602 13.5184 51.2602 13.5133 51.2605 13.5082C51.2507 13.418 51.243 13.3271 51.236 13.237C51.2357 13.2328 51.2357 13.2286 51.236 13.2244C51.2151 12.9401 51.2046 12.6537 51.2046 12.3653C51.2046 12.2954 51.2046 12.2255 51.2046 12.1555C51.2046 12.0689 51.2046 11.9829 51.2109 11.8976C51.2913 11.8976 51.373 11.8941 51.4548 11.8941C54.5409 11.8857 57.5078 13.0852 59.7209 15.2362L59.8607 15.376C59.9005 15.4158 59.9404 15.4564 59.9795 15.4969C60.0187 15.5375 60.0767 15.5969 60.1242 15.6479C60.1795 15.7066 60.234 15.7654 60.2871 15.8248C60.3305 15.8723 60.3717 15.9191 60.4129 15.9646C60.4444 16.0002 60.4758 16.0345 60.5066 16.0736C60.5374 16.1128 60.5632 16.1393 60.5905 16.1729C60.6178 16.2064 60.6562 16.2512 60.6884 16.291L60.7177 16.3274C60.8058 16.4364 60.8911 16.5462 60.975 16.658C61.2014 16.9591 61.4112 17.269 61.6041 17.5877C61.6985 17.7415 61.7893 17.8974 61.8753 18.0547C61.8844 18.0694 61.8921 18.0847 61.9005 18.0987L61.9061 18.1092C61.9221 18.1379 61.9382 18.1679 61.9522 18.1973C61.9662 18.2266 61.9837 18.2539 61.9983 18.2833C62.013 18.3126 62.0354 18.3532 62.0522 18.3895C62.435 19.1557 62.6607 19.9908 62.7161 20.8455C62.7714 21.7003 62.6553 22.5574 62.3744 23.3666C62.3493 23.3233 62.3234 23.2799 62.2982 23.2359C62.1444 22.9738 61.9802 22.7151 61.8089 22.467C61.6258 22.2023 61.4319 21.9439 61.2273 21.6917C61.1868 21.6414 61.1462 21.5918 61.1043 21.5429C61.0251 21.4496 60.9444 21.3564 60.8624 21.2632C60.8177 21.2129 60.7715 21.1619 60.7226 21.1122C60.6583 21.0423 60.5912 20.9724 60.5248 20.9025C60.4584 20.8326 60.4031 20.7774 60.3416 20.7159C58.1759 18.5378 55.2802 17.2388 52.2133 17.0697C51.9728 17.0551 51.731 17.0488 51.4884 17.0488H51.4492C51.3332 17.0488 51.2172 17.0488 51.0997 17.0544C51.1382 17.148 51.1773 17.2403 51.2179 17.334C51.2822 17.4815 51.35 17.6276 51.4199 17.7723C52.5182 20.0254 54.2728 21.8934 56.4529 23.1304C56.6535 23.2443 56.857 23.3533 57.0646 23.4554C57.1729 23.5092 57.2813 23.561 57.391 23.6106C57.4532 23.6399 57.5175 23.6686 57.5805 23.6966C58.5225 24.1076 59.5127 24.3982 60.5276 24.5613L60.6268 24.5774C60.6443 24.5774 60.6611 24.5829 60.6786 24.585L60.8345 24.6074C60.8799 24.6137 60.9253 24.6207 60.9743 24.6263L61.1057 24.6424C61.1444 24.6475 61.1828 24.6517 61.221 24.6549C61.3454 24.6689 61.4706 24.6808 61.5971 24.6899H61.6104H61.6139L61.7537 24.7004L61.8697 24.7067H61.8928H61.9152H61.9312H61.969C62.0088 24.7067 62.0494 24.7109 62.0892 24.7123H62.1661H62.2479H62.3045H62.3395H62.4359H62.6806H62.8414C62.895 24.7123 62.9488 24.7109 63.0028 24.7081H63.056C63.121 24.7081 63.1853 24.7025 63.2489 24.699L63.3524 24.6927H63.3608C63.5208 24.6822 63.6809 24.6696 63.8396 24.6528L63.9794 24.6382H63.9927L64.1325 24.6207L64.2842 24.6004L64.3478 24.592L64.4408 24.5774L64.5938 24.5536C64.7183 24.5319 64.8413 24.5095 64.965 24.4837L64.9874 24.4914L65.1594 24.4557C65.2132 24.4438 65.2663 24.4327 65.3194 24.4201C65.3726 24.4075 65.4194 24.397 65.4697 24.3844C65.5201 24.3718 65.5823 24.3572 65.6389 24.3425C65.7242 24.3201 65.8095 24.2977 65.8954 24.2726C66.4244 24.1253 66.9424 23.9414 67.4459 23.7224C67.5081 23.6959 67.5703 23.6686 67.6318 23.6406C67.7437 23.5908 67.8541 23.5391 67.9632 23.4855C68.1757 23.3829 68.3854 23.2741 68.5923 23.159C69.1555 22.843 69.6931 22.4833 70.2001 22.0832C70.4424 21.8921 70.6775 21.6927 70.9054 21.4848C72.0575 20.4311 73 19.1691 73.6834 17.7653C73.7973 17.5318 73.9043 17.2948 74.0021 17.0537C73.8218 17.0453 73.6414 17.0418 73.4604 17.0418C73.2793 17.0418 73.0829 17.046 72.8949 17.0551C69.8251 17.1848 66.9123 18.4469 64.7183 20.5978C64.6798 20.6348 64.6421 20.6726 64.6043 20.7103C64.5561 20.7592 64.5079 20.8075 64.4645 20.8571C64.451 20.8697 64.4382 20.883 64.4261 20.8969C64.3562 20.9669 64.2926 21.0368 64.2269 21.1067C64.1807 21.1563 64.1353 21.2073 64.087 21.2576C64.0053 21.3499 63.9242 21.4436 63.8452 21.5373C63.8039 21.5862 63.7627 21.6365 63.7229 21.6869C63.5173 21.9385 63.3235 22.1969 63.1413 22.4621C63.0714 22.5592 63.0084 22.6571 62.9441 22.7557C63.2368 21.4601 63.1435 20.1072 62.6757 18.8642C62.6827 18.8488 62.689 18.8348 62.6967 18.8201C62.7127 18.7852 62.7281 18.7502 62.7449 18.7153C62.7882 18.623 62.8337 18.53 62.8805 18.4357L62.891 18.4161C62.9406 18.3154 62.9931 18.2162 63.0469 18.1176L63.0588 18.0945C63.0672 18.0805 63.0749 18.0652 63.0839 18.0505C63.1699 17.8932 63.2608 17.7373 63.3552 17.5835C63.5467 17.2704 63.7538 16.9654 63.9766 16.6685C64.0598 16.5567 64.1451 16.4455 64.2338 16.3372C64.2471 16.3204 64.2597 16.3036 64.2737 16.2868C64.5339 15.9671 64.8104 15.661 65.102 15.3697C66.2038 14.2619 67.5143 13.3835 68.9578 12.7856C70.4013 12.1877 71.949 11.8821 73.5114 11.8864C73.6414 11.8864 73.7721 11.8864 73.9008 11.8934C73.9008 11.899 73.9008 11.9039 73.9008 11.9102V11.9235C73.9008 11.9871 73.9064 12.05 73.9078 12.1129V12.1423C73.9078 12.2122 73.9078 12.2863 73.9078 12.3583C73.9078 12.598 73.9001 12.8364 73.8861 13.0741C73.8721 13.3117 73.8476 13.5634 73.8162 13.8018C73.7994 13.9311 73.7805 14.059 73.7603 14.1876C73.619 15.0709 73.3726 15.934 73.0263 16.7587C73.171 16.7538 73.3157 16.7517 73.4618 16.7517C73.6813 16.7517 73.8994 16.7573 74.1161 16.7685C74.1163 16.7668 74.1163 16.7652 74.1161 16.7636C74.3158 16.2395 74.4793 15.7023 74.6054 15.1558C74.6636 14.9046 74.7142 14.6509 74.7571 14.3945C74.7822 14.2422 74.8046 14.0884 74.827 13.9346C74.827 13.9122 74.8326 13.8905 74.8347 13.8647C74.8514 13.7333 74.8654 13.5998 74.8773 13.4655C74.8822 13.4131 74.8864 13.3607 74.8899 13.309C74.8983 13.2041 74.9046 13.0992 74.9102 12.9937V12.9469C74.9151 12.8567 74.9179 12.7672 74.9199 12.677C74.9199 12.5715 74.9241 12.4673 74.9241 12.359C74.9248 12.2996 74.9241 12.2366 74.9234 12.1737ZM62.6757 7.40912C62.7414 7.26512 62.8099 7.12112 62.8812 6.97992C62.9343 6.87366 62.9903 6.77021 63.0476 6.66255L63.0581 6.64228C64.0837 4.77036 65.589 3.20504 67.4193 2.10696C68.9379 2.8309 70.2779 3.88113 71.3437 5.1827H71.3493C71.7338 5.11979 72.1231 5.07295 72.5181 5.0429C72.588 5.13447 72.6523 5.22674 72.7166 5.32251C72.3247 5.34488 71.9358 5.38542 71.5499 5.44414C68.9168 5.84409 66.4819 7.07968 64.6043 8.96866C64.4086 9.16439 64.2206 9.36525 64.0402 9.57123C63.9591 9.66443 63.8797 9.75764 63.8018 9.85084C63.5205 10.19 63.2575 10.544 63.014 10.9113C63.2107 9.73559 63.094 8.52882 62.6757 7.41262V7.40912ZM61.6188 23.6735C61.5489 23.6679 61.4741 23.6609 61.4021 23.6539H61.3937C61.3678 23.6539 61.3426 23.649 61.3175 23.6455C61.263 23.6393 61.2084 23.6337 61.1539 23.626C61.084 23.6176 61.0099 23.6078 60.9379 23.5973C60.8407 23.5833 60.7443 23.5679 60.6478 23.5519C59.9152 23.4271 59.1968 23.2299 58.5032 22.9633C58.3934 22.9213 58.2837 22.878 58.1767 22.8319C55.812 21.8339 53.8525 20.0682 52.6145 17.8198C55.2362 18.0678 57.6994 19.186 59.6118 20.9962C59.7004 21.0796 59.7882 21.1649 59.8754 21.2521C59.9271 21.3031 59.9781 21.3548 60.0278 21.4072C60.0977 21.4771 60.1613 21.547 60.2263 21.617C60.2584 21.6505 60.2899 21.6869 60.3207 21.7204C60.453 21.8672 60.5807 22.0163 60.7037 22.1678L60.7331 22.2041C60.8212 22.3132 60.9065 22.4229 60.9903 22.5348C61.2168 22.8363 61.4265 23.1462 61.6195 23.4645C61.6649 23.5379 61.7089 23.612 61.7516 23.6854C61.7089 23.6812 61.6642 23.6777 61.6188 23.6735ZM63.3545 23.4638C63.546 23.1506 63.7531 22.8456 63.9759 22.5488C64.0591 22.4369 64.1444 22.3258 64.2331 22.2174C64.2464 22.2006 64.259 22.1839 64.273 22.1671C64.396 22.0156 64.5237 21.8665 64.6561 21.7197L64.7448 21.6218C64.8098 21.5519 64.8763 21.482 64.9434 21.4121C64.9853 21.3681 65.0279 21.3248 65.0713 21.2814L65.1013 21.2514C65.1803 21.1724 65.2593 21.0955 65.3397 21.02C65.3476 21.0113 65.356 21.0031 65.3649 20.9955C67.3167 19.1501 69.84 18.026 72.5174 17.8093C71.6031 19.4741 70.2879 20.8845 68.6909 21.9126C68.5045 22.0343 68.3136 22.1508 68.1184 22.2622C67.7093 22.4928 67.2863 22.6978 66.8517 22.8759C66.742 22.9213 66.6322 22.964 66.5204 23.0059C65.8072 23.2723 65.0687 23.4653 64.3163 23.5819C64.2206 23.598 64.1241 23.6113 64.0269 23.6232L63.8627 23.6434C63.7797 23.6532 63.6965 23.6616 63.6131 23.6686C63.5285 23.677 63.4432 23.684 63.358 23.6889C63.3104 23.6931 63.2636 23.6959 63.2182 23.698C63.2615 23.6155 63.3097 23.5386 63.3545 23.4624V23.4638Z" fill="white"/>
<path d="M58.7559 1.66509H58.7482H58.7524H58.7594C59.4148 1.43197 60.0904 1.25998 60.7775 1.15131L60.9453 1.12614L61.1166 1.10237C61.1865 1.09329 61.2626 1.0842 61.3353 1.07721C61.408 1.07022 61.4752 1.06253 61.5451 1.05624L61.615 1.05065C61.6849 1.04435 61.7548 1.03946 61.8247 1.03527H61.8345C62.0763 1.02059 62.3182 1.0129 62.5628 1.0129C62.6432 1.0129 62.7229 1.0129 62.8033 1.0129C62.9187 1.0129 63.034 1.01919 63.1479 1.02478C63.2619 1.03037 63.3765 1.03806 63.4905 1.04785L63.5394 1.05204C63.6002 1.05694 63.6603 1.06183 63.7211 1.06882L63.768 1.07371C63.8274 1.07931 63.8861 1.087 63.9455 1.09399C64.0154 1.10237 64.0916 1.11216 64.1636 1.12195C64.8772 1.22321 65.5795 1.39269 66.2607 1.62805L66.2754 1.63364H66.2796L66.2649 1.62805C66.6158 1.38991 66.9789 1.16855 67.354 0.963966C66.7278 0.700563 66.0805 0.490116 65.4191 0.334837C65.3233 0.312467 65.2276 0.290797 65.1318 0.270525C64.9542 0.232778 64.776 0.200622 64.5956 0.169166C64.4432 0.144001 64.2902 0.120933 64.1357 0.0992627C64.0329 0.0866801 63.926 0.0747966 63.8246 0.0643111C63.7232 0.0538256 63.6149 0.0447381 63.5128 0.0363497C63.4108 0.0279613 63.3031 0.02167 63.1976 0.0160777C63.092 0.0104855 62.9879 0.0069903 62.8809 0.0048932C62.774 0.00279611 62.6712 0 62.5621 0C62.4028 0 62.2427 -4.27072e-08 62.0847 0.00978641L61.9715 0.0139807C61.7981 0.0216701 61.6268 0.0342525 61.4556 0.0496312C61.4039 0.0538254 61.3514 0.0587188 61.2997 0.0643111C61.1955 0.0747966 61.09 0.0866801 60.99 0.0992627L60.8355 0.120234C60.7838 0.127923 60.7328 0.134913 60.6818 0.143302L60.579 0.15868C60.5496 0.164273 60.5196 0.168467 60.4909 0.17336C59.5236 0.336422 58.5794 0.615241 57.6787 1.00381C58.0501 1.207 58.4092 1.42742 58.7559 1.66509Z" fill="white"/>
</svg>
