<svg width="40" height="27" viewBox="0 0 40 27" fill="none" xmlns="http://www.w3.org/2000/svg">
<path d="M14.9144 0.656906C14.7079 0.448755 14.4623 0.283541 14.1917 0.170795C13.9211 0.0580481 13.6308 0 13.3376 0C13.0445 0 12.7542 0.0580481 12.4836 0.170795C12.2129 0.283541 11.9673 0.448755 11.7609 0.656906L0.656906 11.7609C0.448755 11.9673 0.283541 12.2129 0.170794 12.4836C0.0580476 12.7542 0 13.0445 0 13.3376C0 13.6308 0.0580476 13.9211 0.170794 14.1917C0.283541 14.4623 0.448755 14.7079 0.656906 14.9144L11.7609 26.0183C11.9673 26.2265 12.2129 26.3917 12.4836 26.5045C12.7542 26.6172 13.0445 26.6752 13.3376 26.6752C13.6308 26.6752 13.9211 26.6172 14.1917 26.5045C14.4623 26.3917 14.7079 26.2265 14.9144 26.0183C15.1225 25.8119 15.2878 25.5663 15.4005 25.2956C15.5132 25.025 15.5713 24.7348 15.5713 24.4416C15.5713 24.1484 15.5132 23.8581 15.4005 23.5875C15.2878 23.3169 15.1225 23.0713 14.9144 22.8648L5.36498 13.3376L14.9144 3.81043C15.1225 3.60398 15.2878 3.35836 15.4005 3.08773C15.5132 2.81711 15.5713 2.52684 15.5713 2.23367C15.5713 1.9405 15.5132 1.65023 15.4005 1.3796C15.2878 1.10898 15.1225 0.863358 14.9144 0.656906ZM39.3431 11.7609L28.2391 0.656906C28.0321 0.449843 27.7863 0.285592 27.5157 0.17353C27.2452 0.0614682 26.9552 0.00379 26.6624 0.00379C26.071 0.00379 25.5038 0.238723 25.0856 0.656906C24.8785 0.86397 24.7143 1.10979 24.6022 1.38033C24.4902 1.65087 24.4325 1.94084 24.4325 2.23367C24.4325 2.82507 24.6674 3.39225 25.0856 3.81043L34.635 13.3376L25.0856 22.8648C24.8775 23.0713 24.7122 23.3169 24.5995 23.5875C24.4868 23.8581 24.4287 24.1484 24.4287 24.4416C24.4287 24.7348 24.4868 25.025 24.5995 25.2956C24.7122 25.5663 24.8775 25.8119 25.0856 26.0183C25.2921 26.2265 25.5377 26.3917 25.8083 26.5045C26.0789 26.6172 26.3692 26.6752 26.6624 26.6752C26.9555 26.6752 27.2458 26.6172 27.5164 26.5045C27.7871 26.3917 28.0327 26.2265 28.2391 26.0183L39.3431 14.9144C39.5512 14.7079 39.7165 14.4623 39.8292 14.1917C39.942 13.9211 40 13.6308 40 13.3376C40 13.0445 39.942 12.7542 39.8292 12.4836C39.7165 12.2129 39.5512 11.9673 39.3431 11.7609Z" fill="#333333"/>
</svg>
